SplineFontDB: 3.2
FontName: Grotesk-03Regular-Italic
FullName: Grotesk 03 Regular Italic
FamilyName: Grotesk 03 Regular Italic
Weight: Regular Italic
Copyright: Copyright \\(c\\) 2010-2023 by Frank Adebiaye. Certains droits r_serv_s
Version: 003.000
ItalicAngle: 0
UnderlinePosition: -125
UnderlineWidth: 50
Ascent: 800
Descent: 200
InvalidEm: 0
sfntRevision: 0x00030000
LayerCount: 2
Layer: 0 0 "Arri+AOgA-re" 1
Layer: 1 0 "Avant" 0
XUID: [1021 92 -1557539766 7493630]
StyleMap: 0x0020
FSType: 8
OS2Version: 4
OS2_WeightWidthSlopeOnly: 0
OS2_UseTypoMetrics: 1
CreationTime: 1673544023
ModificationTime: 1746203282
PfmFamily: 81
TTFWeight: 400
TTFWidth: 5
LineGap: 90
VLineGap: 0
Panose: 0 0 0 0 0 0 0 0 0 0
OS2TypoAscent: 800
OS2TypoAOffset: 0
OS2TypoDescent: -200
OS2TypoDOffset: 0
OS2TypoLinegap: 90
OS2WinAscent: 1000
OS2WinAOffset: 0
OS2WinDescent: 200
OS2WinDOffset: 0
HheadAscent: 1000
HheadAOffset: 0
HheadDescent: -200
HheadDOffset: 0
OS2SubXSize: 650
OS2SubYSize: 600
OS2SubXOff: 0
OS2SubYOff: 75
OS2SupXSize: 650
OS2SupYSize: 600
OS2SupXOff: 0
OS2SupYOff: 350
OS2StrikeYSize: 50
OS2StrikeYPos: 260
OS2CapHeight: 650
OS2XHeight: 520
OS2Vendor: 'VTF '
OS2CodePages: 20000097.00000000
OS2UnicodeRanges: a000026f.00002042.00000000.00000004
Lookup: 1 0 0 "'aalt' Access All Alternates in Latin lookup 0" { "'aalt' Access All Alternates in Latin lookup 0 subtable"  } ['aalt' ('DFLT' <'dflt' > 'latn' <'AZE ' 'CAT ' 'CRT ' 'KAZ ' 'MOL ' 'NLD ' 'ROM ' 'TAT ' 'TRK ' 'dflt' > ) ]
Lookup: 3 0 0 "'aalt' Access All Alternates in Latin lookup 1" { "'aalt' Access All Alternates in Latin lookup 1 subtable"  } ['aalt' ('DFLT' <'dflt' > 'latn' <'AZE ' 'CAT ' 'CRT ' 'KAZ ' 'MOL ' 'NLD ' 'ROM ' 'TAT ' 'TRK ' 'dflt' > ) ]

StartChar: .notdef
Encoding: 65536 -1 0
Width: 980
GlyphClass: 1
Flags: W
HStem: -150 15<-57.1484 -45.3369> -110 10<95.291 130.291 140.291 158.166> -60 10<8.79395 68.7939 103.794 138.794> 0 10<108.673 166.547 208.673 266.547 383.673 441.547 723.673 733.673 778.673 836.547> 30 10<25.0488 27.9238 37.9238 45.0488 300.049 302.924 312.924 320.049 715.049 717.924> 45 10<118.237 156.112 393.237 431.112 583.237 606.112 616.112 643.237 788.237 826.112> 60 10<16.4258 19.3008 59.3008 66.4258 291.426 294.301 334.301 341.426 706.426 709.301> 90 10<-2.19727 10.6768 80.6768 95.6768 125.677 185.677 272.803 285.677 355.677 370.677 400.677 460.677 482.803 515.677 525.677 560.677 690.677 700.677 795.677 855.677> 150 10<25.5557 78.4307 115.556 170.556 270.556 280.556 510.556 563.431> 180 10<261.933 264.807 399.807 406.933 416.933 461.933 471.933 474.807> 210 10<253.31 256.184 421.184 428.31 463.31 466.184> 240 10<42.5605 97.5605 132.561 187.561 237.561 247.561 324.687 357.561 367.561 402.561 442.561 457.561 527.561 582.561 604.687 637.561 647.561 682.561> 300 10<147.439 202.439 412.439 425.313 647.439 705.313 777.439 832.439> 330 10<393.816 406.69 543.816 546.69 556.69 563.816> 340 10<260.941 295.941 305.941 323.816 890.941 925.941 935.941 953.816> 345 10<67.0049 104.879 372.005 384.879 657.005 694.879> 360 10<398.067 415.193 535.193 538.067 578.067 585.193> 390 10<74.4443 134.444 164.444 219.444 269.444 304.444 429.444 444.444 519.444 529.444 599.444 609.444 664.444 724.444 794.444 849.444 899.444 934.444> 435 30<972.197 979.009> 450 10<89.3232 119.323 129.323 159.323 374.323 384.323 684.323 739.323 889.323 947.197> 480 10<208.574 215.699 225.699 270.699 280.699 283.574 365.699 368.574 585.699 588.574 598.574 605.699> 490 10<792.825 827.825 837.825 855.699> 510 10<229.951 237.076 272.076 274.951 357.076 359.951 577.076 579.951 619.951 627.076> 540 10<251.327 266.327 341.327 351.327 433.453 466.327 476.327 511.327 561.327 571.327 641.327 651.327 701.327 756.327 801.327 836.327 906.327 966.327> 600 10<371.206 426.206 476.206 536.206> 645 10<170.771 208.646 270.771 293.646 303.646 330.771> 690 10<178.211 238.211 388.211 443.211>
VStem: -60.3369 15<-150 -135> 4.30078 12.125<91.8831 100> 270.699 10<490 510> 284.081 10<600 632.934> 406.933 10<190 210> 540.313 10<300 330> 969.009 10<435 465>
LayerCount: 2
Fore
SplineSet
595.336914062 700 m 1xfff8c3ffc0
 1040.33691406 700 l 1
 1019.08105469 600 l 1
 574.081054688 600 l 1
 595.336914062 700 l 1xfff8c3ffc0
-60.3369140625 -150 m 1
 -57.1484375 -135 l 1
 -42.1484375 -135 l 1
 -45.3369140625 -150 l 1
 -60.3369140625 -150 l 1
-4.3232421875 90 m 1
 -2.197265625 100 l 1
 22.802734375 100 l 1
 16.42578125 70 l 1
 31.42578125 70 l 1
 25.048828125 40 l 1
 45.048828125 40 l 1
 51.42578125 70 l 1
 66.42578125 70 l 1
 72.802734375 100 l 1
 97.802734375 100 l 1
 95.6767578125 90 l 1
 80.6767578125 90 l 1
 74.30078125 60 l 1
 59.30078125 60 l 1
 52.923828125 30 l 1
 37.923828125 30 l 1
 31.546875 0 l 1
 21.546875 0 l 1
 27.923828125 30 l 1
 12.923828125 30 l 1
 19.30078125 60 l 1
 4.30078125 60 l 1
 10.6767578125 90 l 1
 -4.3232421875 90 l 1
13.4306640625 150 m 1
 34.6865234375 250 l 1
 99.6865234375 250 l 1
 97.560546875 240 l 1
 42.560546875 240 l 1
 25.5556640625 160 l 1
 80.5556640625 160 l 1
 78.4306640625 150 l 1
 13.4306640625 150 l 1
45.3134765625 300 m 1
 66.5693359375 400 l 1
 136.569335938 400 l 1
 134.444335938 390 l 1
 74.4443359375 390 l 1
 67.0048828125 355 l 1
 107.004882812 355 l 1
 104.87890625 345 l 1
 64.87890625 345 l 1xfff9c3ffc0
 55.3134765625 300 l 1
 45.3134765625 300 l 1
77.197265625 450 m 1xfff8d3ffc0
 98.453125 550 l 1
 108.453125 550 l 1
 89.3232421875 460 l 1
 119.323242188 460 l 1
 131.013671875 515 l 1
 141.013671875 515 l 1
 129.323242188 460 l 1
 159.323242188 460 l 1
 178.453125 550 l 1
 188.453125 550 l 1
 167.197265625 450 l 1
 77.197265625 450 l 1xfff8d3ffc0
109.081054688 600 m 1
 130.336914062 700 l 1
 140.336914062 700 l 1
 119.081054688 600 l 1
 109.081054688 600 l 1
-20.3369140625 -150 m 1
 0.9189453125 -50 l 1
 70.9189453125 -50 l 1
 68.7939453125 -60 l 1
 8.7939453125 -60 l 1
 1.3544921875 -95 l 1
 41.3544921875 -95 l 1
 39.228515625 -105 l 1
 -0.771484375 -105 l 1
 -10.3369140625 -150 l 1
 -20.3369140625 -150 l 1
149.081054688 600 m 1
 170.336914062 700 l 1
 240.336914062 700 l 1
 238.2109375 690 l 1
 178.2109375 690 l 1
 170.771484375 655 l 1
 210.771484375 655 l 1
 208.645507812 645 l 1
 168.645507812 645 l 1
 159.081054688 600 l 1
 149.081054688 600 l 1
103.430664062 150 m 1
 124.686523438 250 l 1
 199.686523438 250 l 1
 178.430664062 150 l 1
 103.430664062 150 l 1
135.313476562 300 m 1
 156.569335938 400 l 1
 231.569335938 400 l 1
 210.313476562 300 l 1
 135.313476562 300 l 1
115.555664062 160 m 1
 170.555664062 160 l 1
 187.560546875 240 l 1
 132.560546875 240 l 1
 115.555664062 160 l 1
147.439453125 310 m 1
 202.439453125 310 l 1
 219.444335938 390 l 1
 164.444335938 390 l 1
 147.439453125 310 l 1
96.546875 0 m 1
 117.802734375 100 l 1
 187.802734375 100 l 1
 185.676757812 90 l 1
 125.676757812 90 l 1
 118.237304688 55 l 1
 158.237304688 55 l 1
 156.112304688 45 l 1
 116.112304688 45 l 1
 108.672851562 10 l 1
 168.672851562 10 l 1
 166.546875 0 l 1
 96.546875 0 l 1
192.197265625 450 m 1
 200.69921875 490 l 1xfff8d7ffc0
 215.69921875 490 l 1
 222.076171875 520 l 1
 237.076171875 520 l 1
 243.453125 550 l 1
 278.453125 550 l 1
 272.076171875 520 l 1
 287.076171875 520 l 1
 280.69921875 490 l 1xfff8cbffc0
 295.69921875 490 l 1xfff8c7ffc0
 287.197265625 450 l 1
 277.197265625 450 l 1
 283.57421875 480 l 1
 208.57421875 480 l 1xfff8dbffc0
 202.197265625 450 l 1
 192.197265625 450 l 1
74.6630859375 -150 m 1
 95.9189453125 -50 l 1
 150.918945312 -50 l 1
 140.291015625 -100 l 1
 170.291015625 -100 l 1
 159.663085938 -150 l 1
 149.663085938 -150 l 1
 158.166015625 -110 l 1
 93.166015625 -110 l 1
 84.6630859375 -150 l 1
 74.6630859375 -150 l 1
95.291015625 -100 m 1
 130.291015625 -100 l 1
 138.793945312 -60 l 1
 103.793945312 -60 l 1
 95.291015625 -100 l 1
225.69921875 490 m 1xfff8cbffc0
 270.69921875 490 l 1
 274.951171875 510 l 1
 259.951171875 510 l 1
 266.327148438 540 l 1
 251.327148438 540 l 1
 244.951171875 510 l 1
 229.951171875 510 l 1
 225.69921875 490 l 1xfff8cbffc0
258.645507812 645 m 1
 270.336914062 700 l 1
 280.336914062 700 l 1
 270.771484375 655 l 1
 330.771484375 655 l 1
 340.336914062 700 l 1
 350.336914062 700 l 1
 338.645507812 645 l 1
 303.645507812 645 l 1
 294.081054688 600 l 1
 284.081054688 600 l 1
 293.645507812 645 l 1
 258.645507812 645 l 1
208.430664062 150 m 1
 229.686523438 250 l 1
 259.686523438 250 l 1
 253.309570312 220 l 1
 268.309570312 220 l 1
 261.932617188 190 l 1
 276.932617188 190 l 1
 270.555664062 160 l 1
 280.555664062 160 l 1
 299.686523438 250 l 1
 309.686523438 250 l 1
 288.430664062 150 l 1
 258.430664062 150 l 1
 264.806640625 180 l 1
 249.806640625 180 l 1
 256.18359375 210 l 1
 241.18359375 210 l 1
 247.560546875 240 l 1
 237.560546875 240 l 1
 218.430664062 150 l 1
 208.430664062 150 l 1
240.313476562 300 m 1
 261.569335938 400 l 1
 316.569335938 400 l 1
 305.94140625 350 l 1
 335.94140625 350 l 1
 325.313476562 300 l 1
 315.313476562 300 l 1
 323.81640625 340 l 1
 258.81640625 340 l 1xfffac3ffc0
 250.313476562 300 l 1
 240.313476562 300 l 1
260.94140625 350 m 1
 295.94140625 350 l 1
 304.444335938 390 l 1
 269.444335938 390 l 1
 260.94140625 350 l 1
196.546875 0 m 1
 217.802734375 100 l 1
 227.802734375 100 l 1
 208.672851562 10 l 1
 268.672851562 10 l 1
 266.546875 0 l 1
 196.546875 0 l 1
312.197265625 450 m 1xfff8dbffc0
 333.453125 550 l 1
 363.453125 550 l 1
 357.076171875 520 l 1
 372.076171875 520 l 1
 365.69921875 490 l 1xfff8dbffc0
 380.69921875 490 l 1xfff8c7ffc0
 374.323242188 460 l 1
 384.323242188 460 l 1
 403.453125 550 l 1
 413.453125 550 l 1
 392.197265625 450 l 1
 362.197265625 450 l 1
 368.57421875 480 l 1
 353.57421875 480 l 1
 359.951171875 510 l 1
 344.951171875 510 l 1
 351.327148438 540 l 1
 341.327148438 540 l 1
 322.197265625 450 l 1
 312.197265625 450 l 1xfff8dbffc0
194.663085938 -150 m 1
 215.918945312 -50 l 1
 880.918945312 -50 l 1
 859.663085938 -150 l 1
 194.663085938 -150 l 1
359.081054688 600 m 1
 380.336914062 700 l 1
 455.336914062 700 l 1
 434.081054688 600 l 1
 359.081054688 600 l 1
371.206054688 610 m 1
 426.206054688 610 l 1
 443.2109375 690 l 1
 388.2109375 690 l 1
 371.206054688 610 l 1
270.676757812 90 m 1
 272.802734375 100 l 1
 297.802734375 100 l 1
 291.42578125 70 l 1
 306.42578125 70 l 1
 300.048828125 40 l 1
 320.048828125 40 l 1
 326.42578125 70 l 1
 341.42578125 70 l 1
 347.802734375 100 l 1
 372.802734375 100 l 1
 370.676757812 90 l 1
 355.676757812 90 l 1
 349.30078125 60 l 1
 334.30078125 60 l 1
 327.923828125 30 l 1
 312.923828125 30 l 1
 306.546875 0 l 1
 296.546875 0 l 1
 302.923828125 30 l 1
 287.923828125 30 l 1
 294.30078125 60 l 1
 279.30078125 60 l 1
 285.676757812 90 l 1
 270.676757812 90 l 1
322.560546875 240 m 1
 324.686523438 250 l 1
 404.686523438 250 l 1
 402.560546875 240 l 1
 367.560546875 240 l 1
 348.430664062 150 l 1
 338.430664062 150 l 1
 357.560546875 240 l 1
 322.560546875 240 l 1
350.313476562 300 m 1
 371.569335938 400 l 1
 381.569335938 400 l 1
 372.004882812 355 l 1
 387.004882812 355 l 1
 390.193359375 370 l 1
 415.193359375 370 l 1
 421.569335938 400 l 1
 446.569335938 400 l 1
 444.444335938 390 l 1
 429.444335938 390 l 1
 423.067382812 360 l 1
 398.067382812 360 l 1
 393.81640625 340 l 1xfffdc3ffc0
 418.81640625 340 l 1xfffac3ffc0
 412.439453125 310 l 1
 427.439453125 310 l 1
 425.313476562 300 l 1
 400.313476562 300 l 1
 406.690429688 330 l 1
 381.690429688 330 l 1
 384.87890625 345 l 1
 369.87890625 345 l 1xfffdc3ffc0
 360.313476562 300 l 1
 350.313476562 300 l 1
431.327148438 540 m 1
 433.453125 550 l 1
 513.453125 550 l 1
 511.327148438 540 l 1
 476.327148438 540 l 1
 457.197265625 450 l 1
 447.197265625 450 l 1xfff8d3ffc0
 466.327148438 540 l 1
 431.327148438 540 l 1
464.081054688 600 m 1
 485.336914062 700 l 1
 495.336914062 700 l 1
 476.206054688 610 l 1
 536.206054688 610 l 1
 555.336914062 700 l 1
 565.336914062 700 l 1
 544.081054688 600 l 1
 464.081054688 600 l 1
383.430664062 150 m 1
 391.932617188 190 l 1
 406.932617188 190 l 1
 413.309570312 220 l 1
 428.309570312 220 l 1
 434.686523438 250 l 1
 469.686523438 250 l 1
 463.309570312 220 l 1
 478.309570312 220 l 1
 471.932617188 190 l 1
 486.932617188 190 l 1
 478.430664062 150 l 1
 468.430664062 150 l 1
 474.806640625 180 l 1
 399.806640625 180 l 1
 393.430664062 150 l 1
 383.430664062 150 l 1
371.546875 0 m 1
 392.802734375 100 l 1
 462.802734375 100 l 1
 460.676757812 90 l 1
 400.676757812 90 l 1
 393.237304688 55 l 1
 433.237304688 55 l 1
 431.112304688 45 l 1
 391.112304688 45 l 1
 383.672851562 10 l 1
 443.672851562 10 l 1
 441.546875 0 l 1
 371.546875 0 l 1
416.932617188 190 m 1
 461.932617188 190 l 1
 466.18359375 210 l 1
 451.18359375 210 l 1
 457.560546875 240 l 1
 442.560546875 240 l 1
 436.18359375 210 l 1
 421.18359375 210 l 1
 416.932617188 190 l 1
490.313476562 300 m 1
 511.569335938 400 l 1
 541.569335938 400 l 1
 535.193359375 370 l 1
 550.193359375 370 l 1
 543.81640625 340 l 1
 563.81640625 340 l 1
 570.193359375 370 l 1
 585.193359375 370 l 1
 591.569335938 400 l 1
 621.569335938 400 l 1
 600.313476562 300 l 1
 590.313476562 300 l 1
 609.444335938 390 l 1
 599.444335938 390 l 1
 593.067382812 360 l 1
 578.067382812 360 l 1
 571.690429688 330 l 1
 556.690429688 330 l 1
 550.313476562 300 l 1
 540.313476562 300 l 1
 546.690429688 330 l 1
 531.690429688 330 l 1xfffcc3ffc0
 538.067382812 360 l 1
 523.067382812 360 l 1
 529.444335938 390 l 1
 519.444335938 390 l 1
 500.313476562 300 l 1
 490.313476562 300 l 1
532.197265625 450 m 1xfff8dbffc0
 553.453125 550 l 1
 583.453125 550 l 1
 577.076171875 520 l 1
 592.076171875 520 l 1
 585.69921875 490 l 1
 605.69921875 490 l 1
 612.076171875 520 l 1
 627.076171875 520 l 1
 633.453125 550 l 1
 663.453125 550 l 1
 642.197265625 450 l 1
 632.197265625 450 l 1
 651.327148438 540 l 1
 641.327148438 540 l 1
 634.951171875 510 l 1
 619.951171875 510 l 1
 613.57421875 480 l 1
 598.57421875 480 l 1
 592.197265625 450 l 1
 582.197265625 450 l 1
 588.57421875 480 l 1
 573.57421875 480 l 1
 579.951171875 510 l 1
 564.951171875 510 l 1
 571.327148438 540 l 1
 561.327148438 540 l 1
 542.197265625 450 l 1
 532.197265625 450 l 1xfff8dbffc0
480.676757812 90 m 1
 482.802734375 100 l 1
 562.802734375 100 l 1
 560.676757812 90 l 1
 525.676757812 90 l 1
 506.546875 0 l 1
 496.546875 0 l 1
 515.676757812 90 l 1
 480.676757812 90 l 1
498.430664062 150 m 1
 519.686523438 250 l 1
 584.686523438 250 l 1
 582.560546875 240 l 1
 527.560546875 240 l 1
 510.555664062 160 l 1
 565.555664062 160 l 1
 563.430664062 150 l 1
 498.430664062 150 l 1
602.560546875 240 m 1
 604.686523438 250 l 1
 684.686523438 250 l 1
 682.560546875 240 l 1
 647.560546875 240 l 1
 628.430664062 150 l 1
 618.430664062 150 l 1
 637.560546875 240 l 1
 602.560546875 240 l 1
571.112304688 45 m 1
 582.802734375 100 l 1
 592.802734375 100 l 1
 583.237304688 55 l 1
 643.237304688 55 l 1
 652.802734375 100 l 1
 662.802734375 100 l 1
 651.112304688 45 l 1
 616.112304688 45 l 1
 606.546875 0 l 1
 596.546875 0 l 1
 606.112304688 45 l 1
 571.112304688 45 l 1
635.313476562 300 m 1
 656.569335938 400 l 1
 726.569335938 400 l 1
 724.444335938 390 l 1
 664.444335938 390 l 1
 657.004882812 355 l 1
 697.004882812 355 l 1
 694.87890625 345 l 1
 654.87890625 345 l 1xfff9c3ffc0
 647.439453125 310 l 1
 707.439453125 310 l 1
 705.313476562 300 l 1
 635.313476562 300 l 1
672.197265625 450 m 1xfff8d3ffc0
 693.453125 550 l 1
 768.453125 550 l 1
 747.197265625 450 l 1
 672.197265625 450 l 1xfff8d3ffc0
684.323242188 460 m 1
 739.323242188 460 l 1
 756.327148438 540 l 1
 701.327148438 540 l 1
 684.323242188 460 l 1
683.430664062 150 m 1
 704.686523438 250 l 1
 944.686523438 250 l 1
 923.430664062 150 l 1
 683.430664062 150 l 1
661.546875 0 m 1
 682.802734375 100 l 1
 712.802734375 100 l 1
 706.42578125 70 l 1
 721.42578125 70 l 1
 715.048828125 40 l 1
 730.048828125 40 l 1
 723.672851562 10 l 1
 733.672851562 10 l 1
 752.802734375 100 l 1
 762.802734375 100 l 1
 741.546875 0 l 1
 711.546875 0 l 1
 717.923828125 30 l 1
 702.923828125 30 l 1
 709.30078125 60 l 1
 694.30078125 60 l 1
 700.676757812 90 l 1
 690.676757812 90 l 1
 671.546875 0 l 1
 661.546875 0 l 1
772.197265625 450 m 1
 793.453125 550 l 1
 848.453125 550 l 1
 837.825195312 500 l 1
 867.825195312 500 l 1
 857.197265625 450 l 1
 847.197265625 450 l 1
 855.69921875 490 l 1
 790.69921875 490 l 1xfff8d7ffc0
 782.197265625 450 l 1
 772.197265625 450 l 1
792.825195312 500 m 1
 827.825195312 500 l 1
 836.327148438 540 l 1
 801.327148438 540 l 1
 792.825195312 500 l 1
765.313476562 300 m 1
 786.569335938 400 l 1
 861.569335938 400 l 1
 840.313476562 300 l 1
 765.313476562 300 l 1
777.439453125 310 m 1
 832.439453125 310 l 1
 849.444335938 390 l 1
 794.444335938 390 l 1
 777.439453125 310 l 1
766.546875 0 m 1
 787.802734375 100 l 1
 857.802734375 100 l 1
 855.676757812 90 l 1
 795.676757812 90 l 1
 788.237304688 55 l 1
 828.237304688 55 l 1
 826.112304688 45 l 1
 786.112304688 45 l 1
 778.672851562 10 l 1
 838.672851562 10 l 1
 836.546875 0 l 1
 766.546875 0 l 1
877.197265625 450 m 1
 898.453125 550 l 1
 968.453125 550 l 1
 966.327148438 540 l 1
 906.327148438 540 l 1
 898.887695312 505 l 1
 938.887695312 505 l 1
 936.762695312 495 l 1
 896.762695312 495 l 1
 889.323242188 460 l 1
 949.323242188 460 l 1
 947.197265625 450 l 1
 877.197265625 450 l 1
870.313476562 300 m 1
 891.569335938 400 l 1
 946.569335938 400 l 1
 935.94140625 350 l 1
 965.94140625 350 l 1
 955.313476562 300 l 1
 945.313476562 300 l 1
 953.81640625 340 l 1
 888.81640625 340 l 1xfffac3ffc0
 880.313476562 300 l 1
 870.313476562 300 l 1
890.94140625 350 m 1
 925.94140625 350 l 1
 934.444335938 390 l 1
 899.444335938 390 l 1
 890.94140625 350 l 1
967.197265625 450 m 1xfff8d3ffc0
 970.385742188 465 l 1
 985.385742188 465 l 1
 979.008789062 435 l 1
 969.008789062 435 l 1xfff8e3ffc0
 972.197265625 450 l 1
 967.197265625 450 l 1xfff8d3ffc0
EndSplineSet
Validated: 524289
EndChar

StartChar: A
Encoding: 65 65 2
Width: 640
GlyphClass: 2
Flags: HMW
HStem: 169 93<228 419 228 446 200 419> 565 85<320 330 320 320>
VStem: 50 540<0 0>
AnchorPoint: "Anchor-7" 389.081 650 basechar 0
AnchorPoint: "Anchor-6" 485.919 0 basechar 0
AnchorPoint: "Anchor-5" 250.919 0 basechar 0
LayerCount: 2
Fore
SplineSet
520.918945312 0 m 1
 426.918945312 0 l 1
 412.840820312 169 l 1
 166.840820312 169 l 1
 79.9189453125 0 l 1
 -19.0810546875 0 l 1
 321.081054688 650 l 1
 465.081054688 650 l 1
 520.918945312 0 l 1
214.609375 262 m 1
 405.609375 262 l 1
 381.013671875 565 l 1
 371.013671875 565 l 1
 214.609375 262 l 1
EndSplineSet
Validated: 524289
EndChar

StartChar: Aacute
Encoding: 193 193 3
Width: 640
GlyphClass: 2
Flags: HMW
HStem: 169 93<228 419 228 446 200 419> 565 85<320 330 320 320> 708 100<275 425 331 369>
VStem: 50 540<0 0>
AnchorPoint: "Anchor-7" 405.873 808 basechar 0
AnchorPoint: "Anchor-6" 469.127 0 basechar 0
AnchorPoint: "Anchor-5" 234.127 0 basechar 0
LayerCount: 2
Fore
SplineSet
504.126953125 0 m 1
 410.126953125 0 l 1
 396.048828125 169 l 1
 150.048828125 169 l 1
 63.126953125 0 l 1
 -35.873046875 0 l 1
 304.2890625 650 l 1
 448.2890625 650 l 1
 504.126953125 0 l 1
197.817382812 262 m 1
 388.817382812 262 l 1
 364.221679688 565 l 1
 354.221679688 565 l 1
 197.817382812 262 l 1
339.6171875 708 m 1
 416.873046875 808 l 1
 510.873046875 808 l 1
 433.6171875 708 l 1
 339.6171875 708 l 1
EndSplineSet
Validated: 524289
EndChar

StartChar: Abreve
Encoding: 258 258 4
Width: 640
GlyphClass: 2
Flags: HMW
HStem: 169 93<228 419 228 446 200 419> 565 85<320 330 320 320> 700 66<310 330 310 349.5> 700 101<221 349.5>
VStem: 221 65<791 801 791 801> 354 65<791 801>
AnchorPoint: "Anchor-7" 405.129 801 basechar 0
AnchorPoint: "Anchor-6" 469.871 0 basechar 0
AnchorPoint: "Anchor-5" 234.871 0 basechar 0
LayerCount: 2
Fore
SplineSet
504.87109375 0 m 1xdc
 410.87109375 0 l 1
 396.79296875 169 l 1
 150.79296875 169 l 1
 63.87109375 0 l 1
 -35.12890625 0 l 1
 305.033203125 650 l 1
 449.033203125 650 l 1
 504.87109375 0 l 1xdc
306.12890625 801 m 1
 371.12890625 801 l 1xdc
 370.511564408 798.095529306 370.211888808 795.296507988 370.211888808 792.633563506 c 0
 370.211888808 776.959642085 380.593923819 766 397.689453125 766 c 0xec
 417.689453125 766 434.877929688 781 439.12890625 801 c 1
 504.12890625 801 l 1
 491.163085938 740 442.661132812 700 383.661132812 700 c 0
 333.516976143 700 303.238350451 728.893265706 303.238350451 775.015500337 c 0
 303.238350451 783.161041335 304.182749075 791.84395859 306.12890625 801 c 1
198.560546875 262 m 1
 389.560546875 262 l 1
 364.965820312 565 l 1
 354.965820312 565 l 1
 198.560546875 262 l 1
EndSplineSet
Validated: 524289
EndChar

StartChar: Acircumflex
Encoding: 194 194 5
Width: 640
GlyphClass: 2
Flags: HMW
HStem: 169 93<228 419 228 446 200 419> 565 85<320 330 320 320> 709 91<195 329 311 350 311 445>
VStem: 50 540<0 0>
AnchorPoint: "Anchor-7" 405.022 800 basechar 0
AnchorPoint: "Anchor-6" 469.978 0 basechar 0
AnchorPoint: "Anchor-5" 234.978 0 basechar 0
LayerCount: 2
Fore
SplineSet
504.977539062 0 m 1
 410.977539062 0 l 1
 396.899414062 169 l 1
 150.899414062 169 l 1
 63.9775390625 0 l 1
 -35.0224609375 0 l 1
 305.138671875 650 l 1
 449.138671875 650 l 1
 504.977539062 0 l 1
260.6796875 709 m 1
 396.022460938 800 l 1
 414.022460938 800 l 1
 510.6796875 709 l 1
 415.6796875 709 l 1
 391.206054688 735 l 1
 355.6796875 709 l 1
 260.6796875 709 l 1
198.666992188 262 m 1
 389.666992188 262 l 1
 365.072265625 565 l 1
 355.072265625 565 l 1
 198.666992188 262 l 1
EndSplineSet
Validated: 524289
EndChar

StartChar: Adieresis
Encoding: 196 196 6
Width: 640
GlyphClass: 2
Flags: HMW
HStem: 169 93<228 419 228 446 200 419> 565 85<320 330 320 320> 717 104<225.5 254.5 385.5 414.5>
VStem: 188 104<754.5 783.5> 348 104<754.5 783.5>
AnchorPoint: "Anchor-7" 408.955 829 basechar 0
AnchorPoint: "Anchor-6" 467.745 0 basechar 0
AnchorPoint: "Anchor-5" 232.745 0 basechar 0
LayerCount: 2
Fore
SplineSet
502.745117188 0 m 1
 408.745117188 0 l 1
 394.66796875 169 l 1
 148.66796875 169 l 1
 61.7451171875 0 l 1
 -37.2548828125 0 l 1
 302.907226562 650 l 1
 446.907226562 650 l 1
 502.745117188 0 l 1
264.201171875 769 m 0
 270.365234375 798 298.254882812 821 327.254882812 821 c 0
 352.434076133 821 369.404057141 803.661342622 369.404057141 780.111086191 c 0
 369.404057141 776.537461893 369.013299157 772.820806679 368.201171875 769 c 0
 362.037109375 740 334.1484375 717 305.1484375 717 c 0
 279.969100269 717 262.998332996 734.338855574 262.998332996 757.889317609 c 0
 262.998332996 761.462818082 263.389075182 765.179337231 264.201171875 769 c 0
196.435546875 262 m 1
 387.435546875 262 l 1
 362.83984375 565 l 1
 352.83984375 565 l 1
 196.435546875 262 l 1
424.201171875 769 m 0
 430.365234375 798 458.254882812 821 487.254882812 821 c 0
 512.434076133 821 529.404057141 803.661342622 529.404057141 780.111086191 c 0
 529.404057141 776.537461893 529.013299157 772.820806679 528.201171875 769 c 0
 522.037109375 740 494.1484375 717 465.1484375 717 c 0
 439.969100269 717 422.998332996 734.338855574 422.998332996 757.889317609 c 0
 422.998332996 761.462818082 423.389075182 765.179337231 424.201171875 769 c 0
EndSplineSet
Validated: 524289
EndChar

StartChar: Agrave
Encoding: 192 192 7
Width: 640
GlyphClass: 2
Flags: HMW
HStem: 169 93<228 419 228 446 200 419> 565 85<320 330 320 320> 708 100<271 309 215 365 271 271>
VStem: 50 540<0 0>
AnchorPoint: "Anchor-7" 405.873 808 basechar 0
AnchorPoint: "Anchor-6" 469.127 0 basechar 0
AnchorPoint: "Anchor-5" 234.127 0 basechar 0
LayerCount: 2
Fore
SplineSet
504.126953125 0 m 1
 410.126953125 0 l 1
 396.048828125 169 l 1
 150.048828125 169 l 1
 63.126953125 0 l 1
 -35.873046875 0 l 1
 304.2890625 650 l 1
 448.2890625 650 l 1
 504.126953125 0 l 1
300.873046875 808 m 1
 394.873046875 808 l 1
 429.6171875 708 l 1
 335.6171875 708 l 1
 300.873046875 808 l 1
197.817382812 262 m 1
 388.817382812 262 l 1
 364.221679688 565 l 1
 354.221679688 565 l 1
 197.817382812 262 l 1
EndSplineSet
Validated: 524289
EndChar

StartChar: Amacron
Encoding: 256 256 8
Width: 640
GlyphClass: 2
Flags: HMW
HStem: 169 93<228 419 228 446 200 419> 565 85<320 330 320 320> 735 66<155 485 155 485>
VStem: 155 330<735 801 735 801>
AnchorPoint: "Anchor-7" 405.129 801 basechar 0
AnchorPoint: "Anchor-6" 469.871 0 basechar 0
AnchorPoint: "Anchor-5" 234.871 0 basechar 0
LayerCount: 2
Fore
SplineSet
504.87109375 0 m 1
 410.87109375 0 l 1
 396.79296875 169 l 1
 150.79296875 169 l 1
 63.87109375 0 l 1
 -35.12890625 0 l 1
 305.033203125 650 l 1
 449.033203125 650 l 1
 504.87109375 0 l 1
226.100585938 735 m 1
 240.12890625 801 l 1
 570.12890625 801 l 1
 556.100585938 735 l 1
 226.100585938 735 l 1
198.560546875 262 m 1
 389.560546875 262 l 1
 364.965820312 565 l 1
 354.965820312 565 l 1
 198.560546875 262 l 1
EndSplineSet
Validated: 524289
EndChar

StartChar: Aogonek
Encoding: 260 260 9
Width: 640
GlyphClass: 2
Flags: HMW
HStem: -200 66<527 659 527 659> 169 93<228 419 228 446 200 419> 565 85<320 330 320 320>
VStem: 50 609<-200 0>
AnchorPoint: "Anchor-7" 410.337 650 basechar 0
AnchorPoint: "Anchor-6" 507.175 0 basechar 0
AnchorPoint: "Anchor-5" 272.175 0 basechar 0
LayerCount: 2
Fore
SplineSet
542.174804688 0 m 1
 450.692382812 -134 l 1
 582.692382812 -134 l 1
 568.663085938 -200 l 1
 336.663085938 -200 l 1
 473.174804688 0 l 1
 448.174804688 0 l 1
 434.096679688 169 l 1
 188.096679688 169 l 1
 101.174804688 0 l 1
 2.1748046875 0 l 1
 342.336914062 650 l 1
 486.336914062 650 l 1
 542.174804688 0 l 1
235.864257812 262 m 1
 426.864257812 262 l 1
 402.26953125 565 l 1
 392.26953125 565 l 1
 235.864257812 262 l 1
EndSplineSet
Validated: 524289
EndChar

StartChar: Aring
Encoding: 197 197 10
Width: 640
GlyphClass: 2
Flags: HMW
HStem: 169 93<228 419 228 446 200 419> 565 85<320 330 320 320> 698 43<308.5 331 308.5 343> 823 43<308.5 331>
VStem: 236 43<770.5 793 770.5 805.5> 361 43<770.5 793>
AnchorPoint: "Anchor-7" 412.037 866 basechar 0
AnchorPoint: "Anchor-6" 462.963 0 basechar 0
AnchorPoint: "Anchor-5" 227.963 0 basechar 0
LayerCount: 2
Fore
SplineSet
497.962890625 0 m 1
 403.962890625 0 l 1
 389.884765625 169 l 1
 143.884765625 169 l 1
 56.962890625 0 l 1
 -42.037109375 0 l 1
 298.125 650 l 1
 442.125 650 l 1
 497.962890625 0 l 1
191.65234375 262 m 1
 382.65234375 262 l 1
 358.057617188 565 l 1
 348.057617188 565 l 1
 191.65234375 262 l 1
310.182617188 782 m 0
 320.172851562 829 365.037109375 866 412.037109375 866 c 0
 452.077322303 866 480.097745998 837.966403546 480.097745998 799.705745079 c 0
 480.097745998 794.010835861 479.476957833 788.089347661 478.182617188 782 c 0
 468.192382812 735 422.327148438 698 376.327148438 698 c 0
 335.551639569 698 308.222708888 725.848691069 308.222708888 763.915421774 c 0
 308.222708888 769.72641063 308.859550693 775.775508869 310.182617188 782 c 0
353.182617188 782 m 0
 352.532345578 778.941242868 352.219251533 775.970916692 352.219251533 773.11959847 c 0
 352.219251533 754.530731584 365.52653057 741 385.467773438 741 c 0
 407.467773438 741 430.29296875 759 435.182617188 782 c 0
 435.762359293 784.727742302 436.040224252 787.409365318 436.040224252 790.014371709 c 0
 436.040224252 808.419466077 422.169718636 823 402.897460938 823 c 0
 379.897460938 823 357.858398438 804 353.182617188 782 c 0
EndSplineSet
Validated: 524289
EndChar

StartChar: Atilde
Encoding: 195 195 11
Width: 640
GlyphClass: 2
Flags: HMW
HStem: 169 93<228 419 228 446 200 419> 565 85<320 330 320 320> 704 58<355.5 386 355.5 401> 755 58<258 284>
VStem: 178 58<709 721.5 709 738.5> 409 58<794 808>
AnchorPoint: "Anchor-7" 406.191 812 basechar 0
AnchorPoint: "Anchor-6" 468.596 0 basechar 0
AnchorPoint: "Anchor-5" 233.596 0 basechar 0
LayerCount: 2
Fore
SplineSet
503.595703125 0 m 1xec
 409.595703125 0 l 1
 395.517578125 169 l 1
 149.517578125 169 l 1
 62.595703125 0 l 1
 -36.404296875 0 l 1
 303.7578125 650 l 1
 447.7578125 650 l 1
 503.595703125 0 l 1xec
242.298828125 709 m 1xdc
 254.838867188 768 303.404296875 813 354.404296875 813 c 0
 402.404296875 813 410.563476562 762 451.563476562 762 c 0
 471.563476562 762 488.389648438 780 494.341796875 808 c 1
 552.341796875 808 l 1xec
 539.587890625 748 489.235351562 704 439.235351562 704 c 0
 388.235351562 704 374.076171875 755 342.076171875 755 c 0
 322.076171875 755 305.612304688 734 300.298828125 709 c 1
 242.298828125 709 l 1xdc
197.28515625 262 m 1xec
 388.28515625 262 l 1
 363.690429688 565 l 1
 353.690429688 565 l 1
 197.28515625 262 l 1xec
EndSplineSet
Validated: 524289
EndChar

StartChar: AE
Encoding: 198 198 12
Width: 795
GlyphClass: 1
Flags: HMW
HStem: 0 98<492 703 492 703> 0 262<50 394 50 394 245 394 245 703> 169 93<245 394 245 394 211 394> 275 98<492 653 492 653> 552 97<352 394 352 352 492 703>
VStem: 394 98<98 169 169 169 262 275 373 552 649 650> 394 259<0 373 169 373 275 373 275 552 275 552> 394 309<0 98 0 169 0 169 0 552>
LayerCount: 2
Fore
SplineSet
-19.0810546875 0 m 1x4c
 353.868164062 649 l 1
 462.868164062 649 l 1
 463.081054688 650 l 1
 561.081054688 650 l 1
 560.868164062 649 l 1
 771.868164062 649 l 1
 751.25 552 l 1xa9
 540.25 552 l 1
 502.203125 373 l 1xbc
 663.203125 373 l 1
 642.372070312 275 l 1xba
 481.372070312 275 l 1
 443.75 98 l 1xbc
 654.75 98 l 1
 633.918945312 0 l 1xa9
 324.918945312 0 l 1
 360.840820312 169 l 1
 177.840820312 169 l 1xac
 79.9189453125 0 l 1
 -19.0810546875 0 l 1x4c
231.609375 262 m 1
 380.609375 262 l 1
 442.25 552 l 1
 400.25 552 l 1xac
 231.609375 262 l 1
EndSplineSet
Validated: 524289
EndChar

StartChar: B
Encoding: 66 66 13
Width: 582
GlyphClass: 2
Flags: HMW
HStem: 0 94<202 315 315 319> 220 90<202 219 202 227> 560 90<202 219 219 227 202 202>
VStem: 104 98<94 94 94 220 310 560> 104 330<429 499.5 429 650 429 650> 348 86<429 470.5> 438 94<186.5 236.5>
AnchorPoint: "Anchor-7" 379.081 650 basechar 0
AnchorPoint: "Anchor-6" 87.9189 0 basechar 0
AnchorPoint: "Anchor-5" 240.919 0 basechar 0
LayerCount: 2
Fore
SplineSet
34.9189453125 0 m 1xf4
 173.081054688 650 l 1xf2
 288.081054688 650 l 2
 397.988881725 650 463.413253161 587.572452485 463.413253161 489.311450846 c 0
 463.413253161 472.24245686 461.439044577 454.092172963 457.380859375 435 c 0xe8
 454.830078125 423 451.4921875 412 448.154296875 401 c 1
 493.48275278 370.889099702 514.743136394 322.895234575 514.743136394 268.063987615 c 0
 514.743136394 251.87714444 512.890291054 235.094422503 509.256835938 218 c 0xf2
 485.450195312 106 390.918945312 0 249.918945312 0 c 2
 34.9189453125 0 l 1xf4
152.899414062 94 m 1
 265.899414062 94 l 2
 344.899414062 94 401.865234375 155 415.256835938 218 c 0
 417.256823507 227.409602512 418.217962501 236.495828035 418.217962501 245.159989577 c 0
 418.217962501 270.564639835 409.95454766 292.340585209 395.38671875 308 c 1
 346.696289062 253 276.681640625 220 196.681640625 220 c 2
 179.681640625 220 l 1
 152.899414062 94 l 1
198.811523438 310 m 1
 223.811523438 310 l 2
 294.811523438 310 356.290039062 364 371.380859375 435 c 0xf4
 373.567423953 445.286786017 374.628567305 455.216717158 374.628567305 464.677264076 c 0
 374.628567305 520.513966472 337.664385858 560 276.951171875 560 c 2
 251.951171875 560 l 1
 198.811523438 310 l 1
EndSplineSet
Validated: 524289
EndChar

StartChar: C
Encoding: 67 67 14
Width: 565
GlyphClass: 2
Flags: HMW
HStem: 0 94<300.5 515 403 515 403 515> 556 94<395 403 403 515>
VStem: 80 98<256.5 393 256.5 422>
AnchorPoint: "Anchor-7" 478.868 649 basechar 0
AnchorPoint: "Anchor-5" 340.919 0 basechar 0
LayerCount: 2
Fore
SplineSet
325.918945312 0 m 2
 165.704550409 0 70.6177318377 93.4163322257 70.6177318377 240.654707943 c 0
 70.6177318377 267.108921006 73.6872342245 295.30056617 80 325 c 0
 121.236328125 519 275.081054688 650 464.081054688 650 c 2
 584.081054688 650 l 1
 564.100585938 556 l 1
 452.100585938 556 l 2
 317.100585938 556 206.907226562 461 178 325 c 0
 173.609243886 304.343023115 171.472414363 284.663645454 171.472414363 266.136694123 c 0
 171.472414363 161.790276977 239.254829241 94 353.899414062 94 c 2
 465.899414062 94 l 1
 445.918945312 0 l 1
 325.918945312 0 l 2
EndSplineSet
Validated: 1572865
EndChar

StartChar: Cacute
Encoding: 262 262 15
Width: 615
GlyphClass: 2
Flags: HMW
HStem: 0 94<300.5 515 403 515 403 515> 556 94<395 403 403 515> 707 100<365 515 421 459>
VStem: 80 98<256.5 393 256.5 422>
AnchorPoint: "Anchor-7" 495.767 807 basechar 0
AnchorPoint: "Anchor-5" 324.233 0 basechar 0
LayerCount: 2
Fore
SplineSet
309.233398438 0 m 2
 149.019003535 0 53.9321849627 93.4163322259 53.9321849627 240.654707943 c 0
 53.9321849627 267.108921006 57.0016873495 295.30056617 63.314453125 325 c 0
 104.549804688 519 258.395507812 650 447.395507812 650 c 2
 567.395507812 650 l 1
 547.415039062 556 l 1
 435.415039062 556 l 2
 300.415039062 556 190.221679688 461 161.314453125 325 c 0
 156.923697011 304.343023115 154.786867488 284.663645455 154.786867488 266.136694124 c 0
 154.786867488 161.790276978 222.569282366 94 337.213867188 94 c 2
 449.213867188 94 l 1
 429.233398438 0 l 1
 309.233398438 0 l 2
429.510742188 707 m 1
 506.766601562 807 l 1
 600.766601562 807 l 1
 523.510742188 707 l 1
 429.510742188 707 l 1
EndSplineSet
Validated: 1572865
EndChar

StartChar: Ccaron
Encoding: 268 268 16
Width: 615
GlyphClass: 2
Flags: HMW
HStem: 0 94<300.5 515 403 515 403 515> 556 94<395 403 403 515> 556 250<335.5 380 285 403 440 515> 715 91<285 419 285 401>
VStem: 80 98<256.5 393 256.5 422>
AnchorPoint: "Anchor-7" 494.173 799 basechar 0
AnchorPoint: "Anchor-5" 324.34 0 basechar 0
LayerCount: 2
Fore
SplineSet
309.33984375 0 m 2xc8
 149.125769913 0 54.0383096366 93.4159578178 54.0383096366 240.653822757 c 0
 54.0383096366 267.108292124 57.1079135145 295.300234911 63.4208984375 325 c 0
 104.65625 519 258.501953125 650 447.501953125 650 c 2
 567.501953125 650 l 1
 547.521484375 556 l 1
 435.521484375 556 l 2
 300.521484375 556 190.328125 461 161.420898438 325 c 0
 157.030142324 304.343023115 154.893312801 284.663645454 154.893312801 266.136694123 c 0
 154.893312801 161.790276977 222.675727679 94 337.3203125 94 c 2
 449.3203125 94 l 1
 429.33984375 0 l 1
 309.33984375 0 l 2xc8
370.66015625 806 m 1xa8
 465.66015625 806 l 1
 490.133789062 780 l 1
 525.66015625 806 l 1
 620.66015625 806 l 1xa8
 485.317382812 715 l 1
 467.317382812 715 l 1xd8
 370.66015625 806 l 1xa8
EndSplineSet
Validated: 1572865
EndChar

StartChar: Ccedilla
Encoding: 199 199 17
Width: 615
GlyphClass: 2
Flags: HMW
HStem: -241 65<389 399 389 419.5> -108 65<389 399> 0 94<300.5 515 403 515 403 515> 556 94<395 403 403 515>
VStem: 80 98<256.5 393 256.5 422> 389 101<-241 -112.5 -176 -112.5 -171.5 -43 -171.5 -43> 389 126<-108 94 -43 94> 424 66<-152 -132>
AnchorPoint: "Anchor-7" 504.481 649 basechar 0
AnchorPoint: "Anchor-5" 294.306 -241 basechar 0
LayerCount: 2
Fore
SplineSet
351.532226562 0 m 2x3c
 191.318152725 0 96.230692449 93.4159578177 96.230692449 240.653822756 c 0
 96.230692449 267.108292124 99.300296327 295.300234911 105.61328125 325 c 0
 146.848632812 519 300.694335938 650 489.694335938 650 c 2
 609.694335938 650 l 1
 589.713867188 556 l 1
 477.713867188 556 l 2
 342.713867188 556 232.520507812 461 203.61328125 325 c 0
 199.222525136 304.343023115 197.085695613 284.663645454 197.085695613 266.136694123 c 0
 197.085695613 161.790276977 264.868110491 94 379.512695312 94 c 2
 491.512695312 94 l 1
 471.532226562 0 l 1x3a
 351.532226562 0 l 2x3c
294.305664062 -241 m 1xfc
 308.122070312 -176 l 1xbc
 328.122070312 -176 346.09765625 -162 350.349609375 -142 c 0x79
 350.924597172 -139.294796675 351.20182161 -136.699365225 351.20182161 -134.233502667 c 0
 351.20182161 -118.468849721 339.87096855 -108 322.576171875 -108 c 1
 336.392578125 -43 l 1
 388.493116984 -43 419.071295203 -72.1799639822 419.071295203 -117.455412932 c 0
 419.071295203 -125.189058445 418.179110856 -133.392324471 416.349609375 -142 c 0
 403.80859375 -201 355.305664062 -241 294.305664062 -241 c 1xfc
EndSplineSet
Validated: 1572865
EndChar

StartChar: Cdotaccent
Encoding: 266 266 18
Width: 615
GlyphClass: 2
Flags: HMW
HStem: 0 94<300.5 515 403 515 403 515> 556 94<395 403 403 515> 716 104<395.5 424.5>
VStem: 80 98<256.5 393 256.5 422> 358 104<753.5 782.5>
AnchorPoint: "Anchor-7" 460.801 649 basechar 0
AnchorPoint: "Anchor-5" 322.852 0 basechar 0
LayerCount: 2
Fore
SplineSet
307.8515625 0 m 2
 147.637167597 0 52.5503490252 93.4163322258 52.5503490252 240.654707943 c 0
 52.5503490252 267.108921006 55.619851412 295.30056617 61.9326171875 325 c 0
 103.168945312 519 257.013671875 650 446.013671875 650 c 2
 566.013671875 650 l 1
 546.033203125 556 l 1
 434.033203125 556 l 2
 299.033203125 556 188.840820312 461 159.932617188 325 c 0
 155.541861074 304.343023115 153.405031551 284.663645454 153.405031551 266.136694123 c 0
 153.405031551 161.790276977 221.187446429 94 335.83203125 94 c 2
 447.83203125 94 l 1
 427.8515625 0 l 1
 307.8515625 0 l 2
434.095703125 768 m 0
 440.259765625 797 468.1484375 820 497.1484375 820 c 0
 522.327774731 820 539.298542004 802.661144426 539.298542004 779.110682391 c 0
 539.298542004 775.537181918 538.907799818 771.820662769 538.095703125 768 c 0
 531.930664062 739 504.041992188 716 475.041992188 716 c 0
 449.863129131 716 432.892526869 733.338202535 432.892526869 756.887987119 c 0
 432.892526869 760.461895586 433.283376969 764.178863057 434.095703125 768 c 0
EndSplineSet
Validated: 1572865
EndChar

StartChar: D
Encoding: 68 68 19
Width: 635
GlyphClass: 2
Flags: HMW
HStem: 0 94<202 232 202 232> 556 94<202 232 202 202>
VStem: 104 98<94 94 94 556> 458 97<256.5 393>
AnchorPoint: "Anchor-7" 288.868 649 basechar 0
AnchorPoint: "Anchor-5" 253.919 0 basechar 0
LayerCount: 2
Fore
SplineSet
34.9189453125 0 m 1
 173.081054688 650 l 1
 301.081054688 650 l 2
 462.778829643 650 563.837979152 554.113873472 563.837979152 404.924559346 c 0
 563.837979152 379.734353545 560.956843971 353.024506131 555 325 c 0
 513.551757812 130 351.918945312 0 162.918945312 0 c 2
 34.9189453125 0 l 1
152.899414062 94 m 1
 182.899414062 94 l 2
 317.899414062 94 428.879882812 188 458 325 c 0
 462.304281374 345.250378073 464.397790447 364.591738504 464.397790447 382.845812042 c 0
 464.397790447 487.184708978 395.999107704 556 281.100585938 556 c 2
 251.100585938 556 l 1
 152.899414062 94 l 1
EndSplineSet
Validated: 1572865
EndChar

StartChar: Eth
Encoding: 208 208 20
Width: 655
GlyphClass: 1
Flags: HMW
HStem: 0 94<206 252 252 260> 275 98<104 108 104 108 206 327> 556 94<206 252 206 206>
VStem: 108 98<94 94 94 275 373 556> 108 219<0 373 275 373 275 650> 478 97<256.5 393>
LayerCount: 2
Fore
SplineSet
93.3720703125 275 m 1xf4
 114.203125 373 l 1
 118.203125 373 l 1
 177.081054688 650 l 1
 329.081054688 650 l 2
 489.365289525 650 584.312743901 555.782992979 584.312743901 408.824889103 c 0
 584.312743901 382.496570513 581.265252458 354.47544149 575 325 c 0
 533.551757812 130 379.918945312 0 190.918945312 0 c 2
 38.9189453125 0 l 1
 97.3720703125 275 l 1
 93.3720703125 275 l 1xf4
156.899414062 94 m 1
 202.899414062 94 l 2
 337.899414062 94 448.879882812 188 478 325 c 0
 482.304281374 345.250378073 484.397790447 364.591738504 484.397790447 382.845812042 c 0
 484.397790447 487.184708978 415.999107704 556 301.100585938 556 c 2
 255.100585938 556 l 1
 216.203125 373 l 1xf4
 337.203125 373 l 1
 316.372070312 275 l 1xec
 195.372070312 275 l 1
 156.899414062 94 l 1
EndSplineSet
Validated: 524289
EndChar

StartChar: Dcaron
Encoding: 270 270 21
Width: 645
GlyphClass: 2
Flags: HMW
HStem: 0 94<202 232 202 232> 556 94<202 232 202 202> 715 91<95 229 95 211>
VStem: 104 98<94 94 94 556> 458 97<256.5 393>
AnchorPoint: "Anchor-7" 304.173 799 basechar 0
AnchorPoint: "Anchor-5" 237.34 0 basechar 0
LayerCount: 2
Fore
SplineSet
18.33984375 0 m 1
 156.501953125 650 l 1
 284.501953125 650 l 2
 446.200052112 650 547.258567819 554.113489171 547.258567819 404.923662446 c 0
 547.258567819 379.733719541 544.377530642 353.024173526 538.420898438 325 c 0
 496.971679688 130 335.33984375 0 146.33984375 0 c 2
 18.33984375 0 l 1
180.66015625 806 m 1
 275.66015625 806 l 1
 300.133789062 780 l 1
 335.66015625 806 l 1
 430.66015625 806 l 1
 295.317382812 715 l 1
 277.317382812 715 l 1
 180.66015625 806 l 1
136.3203125 94 m 1
 166.3203125 94 l 2
 301.3203125 94 412.30078125 188 441.420898438 325 c 0
 445.725179812 345.250378073 447.818688885 364.591738504 447.818688885 382.845812042 c 0
 447.818688885 487.184708978 379.420006141 556 264.521484375 556 c 2
 234.521484375 556 l 1
 136.3203125 94 l 1
EndSplineSet
Validated: 1572865
EndChar

StartChar: Dcroat
Encoding: 272 272 22
Width: 655
GlyphClass: 1
Flags: HMW
HStem: 0 94<206 252 252 260> 275 98<104 108 104 108 206 327> 556 94<206 252 206 206>
VStem: 108 98<94 94 94 275 373 556> 108 219<0 373 275 373 275 650> 478 97<256.5 393>
LayerCount: 2
Fore
SplineSet
93.3720703125 275 m 1xf4
 114.203125 373 l 1
 118.203125 373 l 1
 177.081054688 650 l 1
 329.081054688 650 l 2
 489.365289525 650 584.312743901 555.782992979 584.312743901 408.824889103 c 0
 584.312743901 382.496570513 581.265252458 354.47544149 575 325 c 0
 533.551757812 130 379.918945312 0 190.918945312 0 c 2
 38.9189453125 0 l 1
 97.3720703125 275 l 1
 93.3720703125 275 l 1xf4
156.899414062 94 m 1
 202.899414062 94 l 2
 337.899414062 94 448.879882812 188 478 325 c 0
 482.304281374 345.250378073 484.397790447 364.591738504 484.397790447 382.845812042 c 0
 484.397790447 487.184708978 415.999107704 556 301.100585938 556 c 2
 255.100585938 556 l 1
 216.203125 373 l 1xf4
 337.203125 373 l 1
 316.372070312 275 l 1xec
 195.372070312 275 l 1
 156.899414062 94 l 1
EndSplineSet
Validated: 524289
EndChar

StartChar: E
Encoding: 69 69 23
Width: 520
GlyphClass: 2
Flags: HMW
HStem: 0 94<202 428 202 428> 278 93<202 378 202 378> 556 94<202 428 202 202>
VStem: 104 98<94 278 371 556> 104 274<278 371 278 650> 104 324<0 94 556 650>
AnchorPoint: "Anchor-7" 335.868 649 basechar 0
AnchorPoint: "Anchor-6" 321.919 0 basechar 0
AnchorPoint: "Anchor-5" 197.919 0 basechar 0
LayerCount: 2
Fore
SplineSet
173.081054688 650 m 1xf0
 497.081054688 650 l 1
 477.100585938 556 l 1xe4
 251.100585938 556 l 1
 211.77734375 371 l 1xf0
 387.77734375 371 l 1
 368.009765625 278 l 1xe8
 192.009765625 278 l 1
 152.899414062 94 l 1xf0
 378.899414062 94 l 1
 358.918945312 0 l 1xe4
 34.9189453125 0 l 1
 173.081054688 650 l 1xf0
EndSplineSet
Validated: 524289
EndChar

StartChar: Eacute
Encoding: 201 201 24
Width: 520
GlyphClass: 2
Flags: HMW
HStem: 0 94<202 428 202 428> 278 93<202 378 202 378> 556 94<202 428 202 202> 707 100<222 372 278 316>
VStem: 104 98<94 278 371 556> 104 274<278 371 278 650> 104 324<0 94 556 650>
AnchorPoint: "Anchor-7" 352.767 807 basechar 0
AnchorPoint: "Anchor-6" 305.233 0 basechar 0
AnchorPoint: "Anchor-5" 181.233 0 basechar 0
LayerCount: 2
Fore
SplineSet
156.395507812 650 m 1xf8
 480.395507812 650 l 1
 460.415039062 556 l 1xf2
 234.415039062 556 l 1
 195.091796875 371 l 1xf8
 371.091796875 371 l 1
 351.32421875 278 l 1xf4
 175.32421875 278 l 1
 136.213867188 94 l 1xf8
 362.213867188 94 l 1
 342.233398438 0 l 1xf2
 18.2333984375 0 l 1
 156.395507812 650 l 1xf8
286.510742188 707 m 1
 363.766601562 807 l 1
 457.766601562 807 l 1
 380.510742188 707 l 1
 286.510742188 707 l 1
EndSplineSet
Validated: 524289
EndChar

StartChar: Ecaron
Encoding: 282 282 25
Width: 520
GlyphClass: 2
Flags: HMW
HStem: 0 94<202 428 202 428> 278 93<202 378 202 378> 556 94<202 428 202 202> 556 250<202 237 297 392 142 428 202 202> 715 91<142 276 142 258>
VStem: 104 98<94 278 371 556> 104 274<278 371 278 650> 104 324<0 94 556 650>
AnchorPoint: "Anchor-7" 351.173 799 basechar 0
AnchorPoint: "Anchor-6" 305.34 0 basechar 0
AnchorPoint: "Anchor-5" 181.34 0 basechar 0
LayerCount: 2
Fore
SplineSet
156.501953125 650 m 1xe4
 480.501953125 650 l 1
 460.521484375 556 l 1xe1
 234.521484375 556 l 1
 195.198242188 371 l 1xe4
 371.198242188 371 l 1
 351.430664062 278 l 1xe2
 175.430664062 278 l 1
 136.3203125 94 l 1xe4
 362.3203125 94 l 1
 342.33984375 0 l 1xe1
 18.33984375 0 l 1
 156.501953125 650 l 1xe4
227.66015625 806 m 1xd1
 322.66015625 806 l 1
 347.133789062 780 l 1
 382.66015625 806 l 1
 477.66015625 806 l 1xd1
 342.317382812 715 l 1
 324.317382812 715 l 1xe9
 227.66015625 806 l 1xd1
EndSplineSet
Validated: 524289
EndChar

StartChar: Ecircumflex
Encoding: 202 202 26
Width: 520
GlyphClass: 2
Flags: HMW
HStem: 0 94<202 428 202 428> 278 93<202 378 202 378> 556 94<202 428 202 202> 708 91<142 276 258 297 258 392>
VStem: 104 98<94 278 371 556> 104 274<278 371 278 650> 104 324<0 94 556 650>
AnchorPoint: "Anchor-7" 351.916 799 basechar 0
AnchorPoint: "Anchor-6" 306.084 0 basechar 0
AnchorPoint: "Anchor-5" 182.084 0 basechar 0
LayerCount: 2
Fore
SplineSet
157.245117188 650 m 1xe8
 481.245117188 650 l 1
 461.264648438 556 l 1xf2
 235.264648438 556 l 1
 195.942382812 371 l 1xe8
 371.942382812 371 l 1
 352.174804688 278 l 1xe4
 176.174804688 278 l 1
 137.064453125 94 l 1xe8
 363.064453125 94 l 1
 343.083984375 0 l 1xe2
 19.083984375 0 l 1
 157.245117188 650 l 1xe8
207.573242188 708 m 1
 342.916015625 799 l 1
 360.916015625 799 l 1
 457.573242188 708 l 1
 362.573242188 708 l 1
 338.100585938 734 l 1
 302.573242188 708 l 1
 207.573242188 708 l 1
EndSplineSet
Validated: 524289
EndChar

StartChar: Edieresis
Encoding: 203 203 27
Width: 520
GlyphClass: 2
Flags: HMW
HStem: 0 94<202 428 202 428> 278 93<202 378 202 378> 556 94<202 428 202 202> 716 104<172.5 201.5 332.5 361.5>
VStem: 104 98<94 278 371 556> 104 274<278 371 278 650> 104 324<0 94 556 650> 135 104<753.5 782.5> 295 104<753.5 782.5>
AnchorPoint: "Anchor-7" 355.849 828 basechar 0
AnchorPoint: "Anchor-6" 303.852 0 basechar 0
AnchorPoint: "Anchor-5" 179.852 0 basechar 0
LayerCount: 2
Fore
SplineSet
155.013671875 650 m 1xe8
 479.013671875 650 l 1
 459.033203125 556 l 1xe2
 233.033203125 556 l 1
 193.709960938 371 l 1xe8
 369.709960938 371 l 1
 349.942382812 278 l 1xe4
 173.942382812 278 l 1
 134.83203125 94 l 1xe8
 360.83203125 94 l 1
 340.8515625 0 l 1xe2
 16.8515625 0 l 1
 155.013671875 650 l 1xe8
211.095703125 768 m 0xf180
 217.259765625 797 245.1484375 820 274.1484375 820 c 0
 299.327774731 820 316.298542004 802.661144426 316.298542004 779.110682391 c 0
 316.298542004 775.537181918 315.907799818 771.820662769 315.095703125 768 c 0
 308.930664062 739 281.041992188 716 252.041992188 716 c 0
 226.863129131 716 209.892526869 733.338202535 209.892526869 756.887987119 c 0
 209.892526869 760.461895586 210.283376969 764.178863057 211.095703125 768 c 0xf180
371.095703125 768 m 0
 377.259765625 797 405.1484375 820 434.1484375 820 c 0
 459.327774731 820 476.298542004 802.661144426 476.298542004 779.110682391 c 0
 476.298542004 775.537181918 475.907799818 771.820662769 475.095703125 768 c 0
 468.930664062 739 441.041992188 716 412.041992188 716 c 0
 386.863129131 716 369.892526869 733.338202535 369.892526869 756.887987119 c 0
 369.892526869 760.461895586 370.283376969 764.178863057 371.095703125 768 c 0
EndSplineSet
Validated: 524289
EndChar

StartChar: Edotaccent
Encoding: 278 278 28
Width: 520
GlyphClass: 2
Flags: HMW
HStem: 0 94<202 428 202 428> 278 93<202 378 202 378> 556 94<202 428 202 202> 716 104<252.5 281.5>
VStem: 104 98<94 278 371 556> 104 274<278 371 278 650> 104 324<0 94 556 650> 215 104<753.5 782.5>
AnchorPoint: "Anchor-7" 317.801 649 basechar 0
AnchorPoint: "Anchor-6" 303.852 0 basechar 0
AnchorPoint: "Anchor-5" 179.852 0 basechar 0
LayerCount: 2
Fore
SplineSet
155.013671875 650 m 1xe8
 479.013671875 650 l 1
 459.033203125 556 l 1xe2
 233.033203125 556 l 1
 193.709960938 371 l 1xe8
 369.709960938 371 l 1
 349.942382812 278 l 1xe4
 173.942382812 278 l 1
 134.83203125 94 l 1xe8
 360.83203125 94 l 1
 340.8515625 0 l 1xe2
 16.8515625 0 l 1
 155.013671875 650 l 1xe8
291.095703125 768 m 0xf9
 297.259765625 797 325.1484375 820 354.1484375 820 c 0
 379.327774731 820 396.298542004 802.661144426 396.298542004 779.110682391 c 0
 396.298542004 775.537181918 395.907799818 771.820662769 395.095703125 768 c 0
 388.930664062 739 361.041992188 716 332.041992188 716 c 0
 306.863129131 716 289.892526869 733.338202535 289.892526869 756.887987119 c 0
 289.892526869 760.461895586 290.283376969 764.178863057 291.095703125 768 c 0xf9
EndSplineSet
Validated: 524289
EndChar

StartChar: Egrave
Encoding: 200 200 29
Width: 520
GlyphClass: 2
Flags: HMW
HStem: 0 94<202 428 202 428> 278 93<202 378 202 378> 556 94<202 428 202 202> 707 100<218 256 162 312 218 218>
VStem: 104 98<94 278 371 556> 104 274<278 371 278 650> 104 324<0 94 556 650>
AnchorPoint: "Anchor-7" 352.767 807 basechar 0
AnchorPoint: "Anchor-6" 305.233 0 basechar 0
AnchorPoint: "Anchor-5" 181.233 0 basechar 0
LayerCount: 2
Fore
SplineSet
156.395507812 650 m 1xf8
 480.395507812 650 l 1
 460.415039062 556 l 1xf2
 234.415039062 556 l 1
 195.091796875 371 l 1xf8
 371.091796875 371 l 1
 351.32421875 278 l 1xf4
 175.32421875 278 l 1
 136.213867188 94 l 1xf8
 362.213867188 94 l 1
 342.233398438 0 l 1xf2
 18.2333984375 0 l 1
 156.395507812 650 l 1xf8
247.766601562 807 m 1
 341.766601562 807 l 1
 376.510742188 707 l 1
 282.510742188 707 l 1
 247.766601562 807 l 1
EndSplineSet
Validated: 524289
EndChar

StartChar: Emacron
Encoding: 274 274 30
Width: 520
GlyphClass: 2
Flags: HMW
HStem: 0 94<202 428 202 428> 278 93<202 378 202 378> 556 94<202 428 202 202> 734 66<102 432 102 432>
VStem: 102 330<734 800 734 800> 104 98<94 278 371 556> 104 274<278 371 278 650> 104 324<0 94 556 650>
AnchorPoint: "Anchor-7" 352.022 800 basechar 0
AnchorPoint: "Anchor-6" 305.978 0 basechar 0
AnchorPoint: "Anchor-5" 181.978 0 basechar 0
LayerCount: 2
Fore
SplineSet
157.138671875 650 m 1xf4
 481.138671875 650 l 1
 461.159179688 556 l 1xf1
 235.159179688 556 l 1
 195.8359375 371 l 1xf4
 371.8359375 371 l 1
 352.068359375 278 l 1xf2
 176.068359375 278 l 1
 136.958007812 94 l 1xf4
 362.958007812 94 l 1
 342.977539062 0 l 1xf1
 18.9775390625 0 l 1
 157.138671875 650 l 1xf4
172.994140625 734 m 1xf8
 187.022460938 800 l 1
 517.022460938 800 l 1
 502.994140625 734 l 1
 172.994140625 734 l 1xf8
EndSplineSet
Validated: 524289
EndChar

StartChar: Eogonek
Encoding: 280 280 31
Width: 520
GlyphClass: 2
Flags: HMW
HStem: -200 66<363 495 363 495> 0 94<202 357 426 428 426 426> 278 93<202 378 202 378> 556 94<202 428 202 202>
VStem: 104 98<94 278 371 556> 104 274<278 371 278 650> 104 324<0 94 556 650>
AnchorPoint: "Anchor-7" 357.124 649 basechar 0
AnchorPoint: "Anchor-6" 343.175 0 basechar 0
AnchorPoint: "Anchor-5" 219.175 0 basechar 0
LayerCount: 2
Fore
SplineSet
194.336914062 650 m 1xf8
 518.336914062 650 l 1
 498.356445312 556 l 1xf2
 272.356445312 556 l 1
 233.033203125 371 l 1xf8
 409.033203125 371 l 1
 389.265625 278 l 1xf4
 213.265625 278 l 1
 174.155273438 94 l 1xf8
 400.155273438 94 l 1
 380.174804688 0 l 1
 378.174804688 0 l 1
 286.692382812 -134 l 1
 418.692382812 -134 l 1
 404.663085938 -200 l 1xf2
 172.663085938 -200 l 1
 309.174804688 0 l 1
 56.1748046875 0 l 1
 194.336914062 650 l 1xf8
EndSplineSet
Validated: 524289
EndChar

StartChar: uni1EBC
Encoding: 7868 7868 32
Width: 520
GlyphClass: 2
Flags: HMW
HStem: 0 94<202 428 202 428> 278 93<202 378 202 378> 556 94<202 428 202 202> 703 58<302.5 333 302.5 348> 754 58<205 231>
VStem: 104 79<0 720.5 650 720.5> 104 98<94 278 371 556> 104 274<278 371 278 650> 104 324<0 94 556 650> 125 58<708 720.5 708 737.5> 356 58<793 807>
AnchorPoint: "Anchor-7" 353.085 811 basechar 0
AnchorPoint: "Anchor-6" 304.702 0 basechar 0
AnchorPoint: "Anchor-5" 180.702 0 basechar 0
LayerCount: 2
Fore
SplineSet
155.864257812 650 m 1xf2
 479.864257812 650 l 1
 459.883789062 556 l 1xf080
 233.883789062 556 l 1
 194.560546875 371 l 1xf2
 370.560546875 371 l 1
 350.79296875 278 l 1xf1
 174.79296875 278 l 1
 135.682617188 94 l 1xf2
 361.682617188 94 l 1
 341.702148438 0 l 1xf080
 17.7021484375 0 l 1
 155.864257812 650 l 1xf2
189.192382812 708 m 1xe840
 201.733398438 767 250.297851562 812 301.297851562 812 c 0
 349.297851562 812 357.458007812 761 398.458007812 761 c 0
 418.458007812 761 435.283203125 779 441.235351562 807 c 1
 499.235351562 807 l 1xf060
 486.481445312 747 436.12890625 703 386.12890625 703 c 0
 335.12890625 703 320.969726562 754 288.969726562 754 c 0
 268.969726562 754 252.505859375 733 247.192382812 708 c 1xec20
 189.192382812 708 l 1xe840
EndSplineSet
Validated: 524289
EndChar

StartChar: F
Encoding: 70 70 33
Width: 520
GlyphClass: 2
Flags: HMW
HStem: 273 93<202 428 202 428> 556 94<202 428 202 202>
VStem: 104 98<0 273 366 556> 104 324<273 366 556 650 273 650 273 650>
AnchorPoint: "Anchor-7" 329.081 650 basechar 0
AnchorPoint: "Anchor-5" 190.919 0 basechar 0
LayerCount: 2
Fore
SplineSet
173.081054688 650 m 1xe0
 497.081054688 650 l 1
 477.100585938 556 l 1xd0
 251.100585938 556 l 1
 210.71484375 366 l 1xe0
 436.71484375 366 l 1
 416.947265625 273 l 1xd0
 190.947265625 273 l 1
 132.918945312 0 l 1
 34.9189453125 0 l 1
 173.081054688 650 l 1xe0
EndSplineSet
Validated: 1572865
EndChar

StartChar: G
Encoding: 71 71 34
Width: 605
GlyphClass: 2
Flags: HMW
HStem: 0 94<300.5 428 403 428 403 525> 556 94<395 403 403 515>
VStem: 80 98<256.5 393 256.5 422> 428 97<94 330 0 330>
AnchorPoint: "Anchor-7" 473.868 649 basechar 0
AnchorPoint: "Anchor-5" 335.919 0 basechar 0
LayerCount: 2
Fore
SplineSet
325.918945312 0 m 2
 165.704550409 0 70.6177318377 93.4163322257 70.6177318377 240.654707943 c 0
 70.6177318377 267.108921006 73.6872342245 295.30056617 80 325 c 0
 121.236328125 519 275.081054688 650 464.081054688 650 c 2
 584.081054688 650 l 1
 564.100585938 556 l 1
 452.100585938 556 l 2
 317.100585938 556 206.907226562 461 178 325 c 0
 173.609243886 304.343023115 171.472414363 284.663645454 171.472414363 266.136694123 c 0
 171.472414363 161.790276977 239.254829241 94 353.899414062 94 c 2
 378.899414062 94 l 1
 429.0625 330 l 1
 526.0625 330 l 1
 455.918945312 0 l 1
 325.918945312 0 l 2
EndSplineSet
Validated: 1572865
EndChar

StartChar: Gbreve
Encoding: 286 286 35
Width: 605
GlyphClass: 2
Flags: HMW
HStem: 0 94<300.5 428 403 428 403 525> 556 94<395 403 403 515> 699 66<395 415 395 434.5> 699 101<306 434.5>
VStem: 80 98<256.5 393 256.5 422> 306 65<790 800 790 800> 428 97<94 330 0 330> 439 65<790 800>
AnchorPoint: "Anchor-7" 490.022 800 basechar 0
AnchorPoint: "Anchor-5" 319.978 0 basechar 0
LayerCount: 2
Fore
SplineSet
309.977539062 0 m 2xde
 149.763465225 0 54.676004949 93.4159578177 54.676004949 240.653822756 c 0
 54.676004949 267.108292124 57.745608827 295.300234911 64.05859375 325 c 0
 105.293945312 519 259.138671875 650 448.138671875 650 c 2
 568.138671875 650 l 1
 548.159179688 556 l 1
 436.159179688 556 l 2
 301.159179688 556 190.965820312 461 162.05859375 325 c 0
 157.667837636 304.343023115 155.531008113 284.663645454 155.531008113 266.136694123 c 0
 155.531008113 161.790276977 223.313422991 94 337.958007812 94 c 2
 362.958007812 94 l 1
 413.12109375 330 l 1
 510.12109375 330 l 1
 439.977539062 0 l 1
 309.977539062 0 l 2xde
391.022460938 800 m 1
 456.022460938 800 l 1xde
 455.405119096 797.095529306 455.105443496 794.296507987 455.105443496 791.633563505 c 0
 455.105443496 775.959642084 465.487478506 765 482.583007812 765 c 0xed
 502.583007812 765 519.771484375 780 524.022460938 800 c 1
 589.022460938 800 l 1xdd
 576.056640625 739 527.5546875 699 468.5546875 699 c 0
 418.410530831 699 388.131905139 727.893265706 388.131905139 774.015500336 c 0
 388.131905139 782.161041335 389.076303763 790.84395859 391.022460938 800 c 1
EndSplineSet
Validated: 1572865
EndChar

StartChar: uni0122
Encoding: 290 290 36
Width: 605
GlyphClass: 2
Flags: HMW
HStem: -208 154<295 436 295 436> 0 94<300.5 428 403 428 403 525> 556 94<395 403 403 515>
VStem: 80 98<256.5 393 256.5 422> 428 97<94 330 0 330>
AnchorPoint: "Anchor-7" 495.975 649 basechar 0
AnchorPoint: "Anchor-5" 273.813 -208 basechar 0
LayerCount: 2
Fore
SplineSet
348.025390625 0 m 2
 187.810815639 0 92.7232616462 93.4165422278 92.7232616462 240.655204436 c 0
 92.7232616462 267.10927374 95.7927424671 295.300751969 102.10546875 325 c 0
 143.341796875 519 297.186523438 650 486.186523438 650 c 2
 606.186523438 650 l 1
 586.206054688 556 l 1
 474.206054688 556 l 2
 339.206054688 556 229.013671875 461 200.10546875 325 c 0
 195.714712636 304.343023115 193.577883113 284.663645454 193.577883113 266.136694123 c 0
 193.577883113 161.790276977 261.360297991 94 376.004882812 94 c 2
 401.004882812 94 l 1
 451.168945312 330 l 1
 548.168945312 330 l 1
 478.025390625 0 l 1
 348.025390625 0 l 2
203.813476562 -208 m 1
 308.546875 -54 l 1
 377.546875 -54 l 1
 272.813476562 -208 l 1
 203.813476562 -208 l 1
EndSplineSet
Validated: 1572865
EndChar

StartChar: Gdotaccent
Encoding: 288 288 37
Width: 605
GlyphClass: 2
Flags: HMW
HStem: 0 94<300.5 428 403 428 403 525> 556 94<395 403 403 515> 716 104<390.5 419.5>
VStem: 80 98<256.5 393 256.5 422> 353 104<753.5 782.5> 428 97<94 330 0 330>
AnchorPoint: "Anchor-7" 455.801 649 basechar 0
AnchorPoint: "Anchor-5" 317.852 0 basechar 0
LayerCount: 2
Fore
SplineSet
307.8515625 0 m 2xd4
 147.637167597 0 52.5503490252 93.4163322258 52.5503490252 240.654707943 c 0
 52.5503490252 267.108921006 55.619851412 295.30056617 61.9326171875 325 c 0
 103.168945312 519 257.013671875 650 446.013671875 650 c 2
 566.013671875 650 l 1
 546.033203125 556 l 1
 434.033203125 556 l 2
 299.033203125 556 188.840820312 461 159.932617188 325 c 0
 155.541861074 304.343023115 153.405031551 284.663645454 153.405031551 266.136694123 c 0
 153.405031551 161.790276977 221.187446429 94 335.83203125 94 c 2
 360.83203125 94 l 1
 410.995117188 330 l 1
 507.995117188 330 l 1
 437.8515625 0 l 1
 307.8515625 0 l 2xd4
429.095703125 768 m 0xf8
 435.259765625 797 463.1484375 820 492.1484375 820 c 0
 517.327774731 820 534.298542004 802.661144426 534.298542004 779.110682391 c 0
 534.298542004 775.537181918 533.907799818 771.820662769 533.095703125 768 c 0
 526.930664062 739 499.041992188 716 470.041992188 716 c 0
 444.863129131 716 427.892526869 733.338202535 427.892526869 756.887987119 c 0
 427.892526869 760.461895586 428.283376969 764.178863057 429.095703125 768 c 0xf8
EndSplineSet
Validated: 1572865
EndChar

StartChar: H
Encoding: 72 72 38
Width: 635
GlyphClass: 2
Flags: HMW
HStem: 279 93<202 433 202 433>
VStem: 104 98<0 279 372 650> 433 98<0 279 279 279 372 650 0 650>
AnchorPoint: "Anchor-7" 387.081 650 basechar 0
AnchorPoint: "Anchor-5" 248.919 0 basechar 0
LayerCount: 2
Fore
SplineSet
34.9189453125 0 m 1
 173.081054688 650 l 1
 271.081054688 650 l 1
 211.990234375 372 l 1
 442.990234375 372 l 1
 502.081054688 650 l 1
 600.081054688 650 l 1
 461.918945312 0 l 1
 363.918945312 0 l 1
 423.22265625 279 l 1
 192.22265625 279 l 1
 132.918945312 0 l 1
 34.9189453125 0 l 1
EndSplineSet
Validated: 1572865
EndChar

StartChar: Hbar
Encoding: 294 294 39
Width: 635
GlyphClass: 2
Flags: HMW
HStem: 279 93<202 433 202 433> 485 82<30 104 30 104 202 433 531 605>
VStem: 104 98<0 279 372 485 567 650> 433 98<0 279 279 279 372 485 0 485 567 650>
AnchorPoint: "Anchor-7" 387.081 650 basechar 0
AnchorPoint: "Anchor-6" 426.919 0 basechar 0
AnchorPoint: "Anchor-5" 248.919 0 basechar 0
LayerCount: 2
Fore
SplineSet
81.4384765625 567 m 1
 155.438476562 567 l 1
 173.081054688 650 l 1
 271.081054688 650 l 1
 253.438476562 567 l 1
 484.438476562 567 l 1
 502.081054688 650 l 1
 600.081054688 650 l 1
 582.438476562 567 l 1
 656.438476562 567 l 1
 639.008789062 485 l 1
 565.008789062 485 l 1
 461.918945312 0 l 1
 363.918945312 0 l 1
 423.22265625 279 l 1
 192.22265625 279 l 1
 132.918945312 0 l 1
 34.9189453125 0 l 1
 138.008789062 485 l 1
 64.0087890625 485 l 1
 81.4384765625 567 l 1
211.990234375 372 m 1
 442.990234375 372 l 1
 467.008789062 485 l 1
 236.008789062 485 l 1
 211.990234375 372 l 1
EndSplineSet
Validated: 524289
EndChar

StartChar: I
Encoding: 73 73 40
Width: 300
GlyphClass: 2
Flags: HMW
HStem: 0 650<101 199 101 199>
VStem: 101 98<0 650 0 650>
AnchorPoint: "Anchor-7" 218.868 649 basechar 0
AnchorPoint: "Anchor-6" 94.9189 0 basechar 0
AnchorPoint: "Anchor-5" 80.9189 0 basechar 0
LayerCount: 2
Fore
SplineSet
31.9189453125 0 m 1
 170.081054688 650 l 1
 268.081054688 650 l 1
 129.918945312 0 l 1
 31.9189453125 0 l 1
EndSplineSet
Validated: 524289
EndChar

StartChar: IJ
Encoding: 306 306 41
AltUni2: 000133.ffffffff.0 000133.ffffffff.0
Width: 536
GlyphClass: 1
Flags: HMW
HStem: -18 95<248.5 287.5 248.5 316.5> -18 214<104 316.5> 300 349<104 202 104 202>
VStem: 104 98<142 146 146 196 125 196 300 649> 334 98<146 649>
LayerCount: 2
Fore
SplineSet
100.705078125 300 m 1xb8
 174.887695312 649 l 1
 272.887695312 649 l 1
 198.705078125 300 l 1
 100.705078125 300 l 1xb8
67.12109375 142 m 2
 78.599609375 196 l 1
 176.599609375 196 l 1x78
 165.971679688 146 l 2
 164.608698217 139.587934029 163.949360163 133.525481919 163.949360163 127.855343614 c 0
 163.949360163 96.3852201293 184.259725321 77 217.305664062 77 c 0
 256.305664062 77 289.043945312 104 297.971679688 146 c 2
 404.887695312 649 l 1
 502.887695312 649 l 1
 395.12109375 142 l 2
 374.715820312 46 294.112304688 -18 197.112304688 -18 c 0
 113.924326976 -18 62.8063648961 29.0714567643 62.8063648961 103.029940931 c 0
 62.8063648961 115.309554642 64.2155464149 128.330369695 67.12109375 142 c 2
EndSplineSet
Validated: 524289
EndChar

StartChar: Iacute
Encoding: 205 205 42
Width: 300
GlyphClass: 2
Flags: HMW
HStem: 707 100<105 255 161 199>
VStem: 101 98<0 650 0 650>
AnchorPoint: "Anchor-7" 235.767 807 basechar 0
AnchorPoint: "Anchor-6" 78.2334 0 basechar 0
AnchorPoint: "Anchor-5" 64.2334 0 basechar 0
LayerCount: 2
Fore
SplineSet
15.2333984375 0 m 1
 153.395507812 650 l 1
 251.395507812 650 l 1
 113.233398438 0 l 1
 15.2333984375 0 l 1
169.510742188 707 m 1
 246.766601562 807 l 1
 340.766601562 807 l 1
 263.510742188 707 l 1
 169.510742188 707 l 1
EndSplineSet
Validated: 524289
EndChar

StartChar: Icircumflex
Encoding: 206 206 43
Width: 300
GlyphClass: 2
Flags: HMW
HStem: 708 91<25 159 141 180 141 275>
VStem: 101 98<0 650 0 650>
AnchorPoint: "Anchor-7" 234.916 799 basechar 0
AnchorPoint: "Anchor-6" 79.084 0 basechar 0
AnchorPoint: "Anchor-5" 65.084 0 basechar 0
LayerCount: 2
Fore
SplineSet
16.083984375 0 m 1
 154.245117188 650 l 1
 252.245117188 650 l 1
 114.083984375 0 l 1
 16.083984375 0 l 1
90.5732421875 708 m 1
 225.916015625 799 l 1
 243.916015625 799 l 1
 340.573242188 708 l 1
 245.573242188 708 l 1
 221.100585938 734 l 1
 185.573242188 708 l 1
 90.5732421875 708 l 1
EndSplineSet
Validated: 524289
EndChar

StartChar: Idieresis
Encoding: 207 207 44
Width: 300
GlyphClass: 2
Flags: HMW
HStem: 716 104<55.5 84.5 215.5 244.5>
VStem: 18 104<753.5 782.5> 101 98<0 650 0 650> 178 104<753.5 782.5>
AnchorPoint: "Anchor-7" 238.849 828 basechar 0
AnchorPoint: "Anchor-6" 76.8516 0 basechar 0
AnchorPoint: "Anchor-5" 62.8516 0 basechar 0
LayerCount: 2
Fore
SplineSet
13.8515625 0 m 1xa0
 152.013671875 650 l 1
 250.013671875 650 l 1
 111.8515625 0 l 1
 13.8515625 0 l 1xa0
94.095703125 768 m 0xd0
 100.259765625 797 128.1484375 820 157.1484375 820 c 0
 182.327774731 820 199.298542004 802.661144426 199.298542004 779.110682391 c 0
 199.298542004 775.537181918 198.907799818 771.820662769 198.095703125 768 c 0
 191.930664062 739 164.041992188 716 135.041992188 716 c 0
 109.863129131 716 92.8925268687 733.338202535 92.8925268687 756.887987119 c 0
 92.8925268687 760.461895586 93.2833769693 764.178863057 94.095703125 768 c 0xd0
254.095703125 768 m 0
 260.259765625 797 288.1484375 820 317.1484375 820 c 0
 342.327774731 820 359.298542004 802.661144426 359.298542004 779.110682391 c 0
 359.298542004 775.537181918 358.907799818 771.820662769 358.095703125 768 c 0
 351.930664062 739 324.041992188 716 295.041992188 716 c 0
 269.863129131 716 252.892526869 733.338202535 252.892526869 756.887987119 c 0
 252.892526869 760.461895586 253.283376969 764.178863057 254.095703125 768 c 0
EndSplineSet
Validated: 524289
EndChar

StartChar: Idotaccent
Encoding: 304 304 45
Width: 300
GlyphClass: 2
Flags: HMW
HStem: 716 104<135.5 164.5>
VStem: 98 104<753.5 782.5> 101 98<0 650 0 650>
AnchorPoint: "Anchor-7" 200.801 649 basechar 0
AnchorPoint: "Anchor-6" 76.8516 0 basechar 0
AnchorPoint: "Anchor-5" 62.8516 0 basechar 0
LayerCount: 2
Fore
SplineSet
13.8515625 0 m 1xa0
 152.013671875 650 l 1
 250.013671875 650 l 1
 111.8515625 0 l 1
 13.8515625 0 l 1xa0
174.095703125 768 m 0xc0
 180.259765625 797 208.1484375 820 237.1484375 820 c 0
 262.327774731 820 279.298542004 802.661144426 279.298542004 779.110682391 c 0
 279.298542004 775.537181918 278.907799818 771.820662769 278.095703125 768 c 0
 271.930664062 739 244.041992188 716 215.041992188 716 c 0
 189.863129131 716 172.892526869 733.338202535 172.892526869 756.887987119 c 0
 172.892526869 760.461895586 173.283376969 764.178863057 174.095703125 768 c 0xc0
EndSplineSet
Validated: 524289
EndChar

StartChar: Igrave
Encoding: 204 204 46
Width: 300
GlyphClass: 2
Flags: HMW
HStem: 707 100<101 139 45 195 101 101>
VStem: 101 98<0 650 0 650 0 707>
AnchorPoint: "Anchor-7" 235.767 807 basechar 0
AnchorPoint: "Anchor-6" 78.2334 0 basechar 0
AnchorPoint: "Anchor-5" 64.2334 0 basechar 0
LayerCount: 2
Fore
SplineSet
15.2333984375 0 m 1
 153.395507812 650 l 1
 251.395507812 650 l 1
 113.233398438 0 l 1
 15.2333984375 0 l 1
130.766601562 807 m 1
 224.766601562 807 l 1
 259.510742188 707 l 1
 165.510742188 707 l 1
 130.766601562 807 l 1
EndSplineSet
Validated: 524289
EndChar

StartChar: Imacron
Encoding: 298 298 47
Width: 300
GlyphClass: 2
Flags: HMW
HStem: 727 66<15 285 15 285>
VStem: 101 98<0 650 0 650>
AnchorPoint: "Anchor-7" 235.767 800 basechar 0
AnchorPoint: "Anchor-6" 79.7217 0 basechar 0
AnchorPoint: "Anchor-5" 65.7217 0 basechar 0
LayerCount: 2
Fore
SplineSet
16.7216796875 0 m 1
 154.8828125 650 l 1
 252.8828125 650 l 1
 114.721679688 0 l 1
 16.7216796875 0 l 1
85.25 727 m 1
 99.2783203125 793 l 1
 369.278320312 793 l 1
 355.25 727 l 1
 85.25 727 l 1
EndSplineSet
Validated: 524289
EndChar

StartChar: Iogonek
Encoding: 302 302 48
Width: 300
GlyphClass: 2
Flags: HMW
HStem: -200 66<136 268 136 268>
VStem: 101 98<0 650 0 650>
AnchorPoint: "Anchor-7" 240.124 649 basechar 0
AnchorPoint: "Anchor-6" 116.175 0 basechar 0
AnchorPoint: "Anchor-5" 102.175 0 basechar 0
LayerCount: 2
Fore
SplineSet
53.1748046875 0 m 1
 191.336914062 650 l 1
 289.336914062 650 l 1
 151.174804688 0 l 1
 59.6923828125 -134 l 1
 191.692382812 -134 l 1
 177.663085938 -200 l 1
 -54.3369140625 -200 l 1
 82.1748046875 0 l 1
 53.1748046875 0 l 1
EndSplineSet
Validated: 524289
EndChar

StartChar: Itilde
Encoding: 296 296 49
Width: 300
GlyphClass: 2
Flags: HMW
HStem: 703 58<185.5 216 185.5 231> 754 58<88 114>
VStem: 8 58<708 720.5 708 737.5> 101 98<0 650 0 650> 239 58<793 807>
AnchorPoint: "Anchor-7" 236.085 811 basechar 0
AnchorPoint: "Anchor-6" 77.7021 0 basechar 0
AnchorPoint: "Anchor-5" 63.7021 0 basechar 0
LayerCount: 2
Fore
SplineSet
14.7021484375 0 m 1x90
 152.864257812 650 l 1
 250.864257812 650 l 1
 112.702148438 0 l 1
 14.7021484375 0 l 1x90
72.1923828125 708 m 1x78
 84.7333984375 767 133.297851562 812 184.297851562 812 c 0
 232.297851562 812 240.458007812 761 281.458007812 761 c 0
 301.458007812 761 318.283203125 779 324.235351562 807 c 1
 382.235351562 807 l 1xb8
 369.481445312 747 319.12890625 703 269.12890625 703 c 0
 218.12890625 703 203.969726562 754 171.969726562 754 c 0
 151.969726562 754 135.505859375 733 130.192382812 708 c 1
 72.1923828125 708 l 1x78
EndSplineSet
Validated: 524289
EndChar

StartChar: J
Encoding: 74 74 50
Width: 486
GlyphClass: 2
Flags: HMW
HStem: -18 95<198.5 237.5 198.5 266.5> -18 294<54 266.5>
VStem: 54 98<142 146 146 276> 284 98<146 650>
AnchorPoint: "Anchor-7" 403.994 650 basechar 0
AnchorPoint: "Anchor-5" 150.832 0 basechar 0
LayerCount: 2
Fore
SplineSet
147.005859375 -18 m 0xb0
 63.8183828718 -18 12.7005355579 29.0708895532 12.7005355579 103.02860413 c 0
 12.7005355579 115.308609647 14.109833169 128.329873653 17.015625 142 c 2
 45.498046875 276 l 1
 143.498046875 276 l 1x70
 115.865234375 146 l 2
 114.50247276 139.58826698 113.843235972 133.526111514 113.843235972 127.856226895 c 0
 113.843235972 96.3855828568 134.15297084 77 167.19921875 77 c 0
 206.19921875 77 238.938476562 104 247.865234375 146 c 2
 354.994140625 650 l 1
 452.994140625 650 l 1
 345.015625 142 l 2
 324.609375 46 244.005859375 -18 147.005859375 -18 c 0xb0
EndSplineSet
Validated: 1572865
Substitution2: "Single Substitution lookup 16 subtable" uni004A0301
Substitution2: "'aalt' Access All Alternates in Latin lookup 0 subtable" uni004A0301
EndChar

StartChar: uni004A0301
Encoding: 65537 -1 51
Width: 486
GlyphClass: 2
Flags: HMW
HStem: -18 95<198.5 237.5 198.5 266.5> -18 294<54 266.5> 708 100<288 438 344 382>
VStem: 54 98<142 146 146 276> 284 98<146 650>
AnchorPoint: "Anchor-7" 420.786 808 basechar 0
AnchorPoint: "Anchor-5" 134.04 0 basechar 0
LayerCount: 2
Fore
SplineSet
130.213867188 -18 m 0xb8
 47.0263906843 -18 -4.09145662962 29.0708895532 -4.09145662962 103.02860413 c 0
 -4.09145662962 115.308609647 -2.68215901849 128.329873653 0.2236328125 142 c 2
 28.7060546875 276 l 1
 126.706054688 276 l 1x78
 99.0732421875 146 l 2
 97.7104805726 139.58826698 97.0512437845 133.526111514 97.0512437845 127.856226896 c 0
 97.0512437845 96.3855828568 117.360978652 77 150.407226562 77 c 0
 189.407226562 77 222.146484375 104 231.073242188 146 c 2
 338.202148438 650 l 1
 436.202148438 650 l 1
 328.223632812 142 l 2
 307.817382812 46 227.213867188 -18 130.213867188 -18 c 0xb8
354.530273438 708 m 1
 431.786132812 808 l 1
 525.786132812 808 l 1
 448.530273438 708 l 1
 354.530273438 708 l 1
EndSplineSet
Validated: 1572865
EndChar

StartChar: K
Encoding: 75 75 52
Width: 590
GlyphClass: 2
Flags: HMW
HStem: 224 94<202 283 202 329 202 283>
VStem: 104 98<0 224 318 650>
AnchorPoint: "Anchor-7" 376.868 649 basechar 0
AnchorPoint: "Anchor-5" 238.919 0 basechar 0
LayerCount: 2
Fore
SplineSet
173.081054688 650 m 1
 271.081054688 650 l 1
 200.51171875 318 l 1
 281.51171875 318 l 1
 490.081054688 650 l 1
 587.081054688 650 l 1
 381.362304688 322 l 1
 470.918945312 0 l 1
 371.918945312 0 l 1
 307.532226562 224 l 1
 180.532226562 224 l 1
 132.918945312 0 l 1
 34.9189453125 0 l 1
 173.081054688 650 l 1
EndSplineSet
Validated: 1572865
Substitution2: "'ss02' Style Set 2 in Latin lookup 10 subtable" K.ss02
Substitution2: "'aalt' Access All Alternates in Latin lookup 0 subtable" K.ss02
EndChar

StartChar: uni0136
Encoding: 310 310 53
Width: 590
GlyphClass: 2
Flags: HMW
HStem: -208 154<198 339 198 339> 224 94<202 283 202 329 202 283>
VStem: 104 98<0 224 318 650>
AnchorPoint: "Anchor-7" 398.975 649 basechar 0
AnchorPoint: "Anchor-5" 176.813 -208 basechar 0
LayerCount: 2
Fore
SplineSet
195.186523438 650 m 1
 293.186523438 650 l 1
 222.618164062 318 l 1
 303.618164062 318 l 1
 512.186523438 650 l 1
 609.186523438 650 l 1
 403.467773438 322 l 1
 493.025390625 0 l 1
 394.025390625 0 l 1
 329.637695312 224 l 1
 202.637695312 224 l 1
 155.025390625 0 l 1
 57.025390625 0 l 1
 195.186523438 650 l 1
106.813476562 -208 m 1
 211.546875 -54 l 1
 280.546875 -54 l 1
 175.813476562 -208 l 1
 106.813476562 -208 l 1
EndSplineSet
Validated: 1572865
EndChar

StartChar: L
Encoding: 76 76 54
Width: 535
GlyphClass: 2
Flags: HMW
HStem: 0 98<202 485 202 485>
VStem: 104 98<98 650 98 650 98 650> 104 381<0 98 0 650>
AnchorPoint: "Anchor-7" 221.868 649 basechar 0
AnchorPoint: "Anchor-5" 213.919 0 basechar 0
LayerCount: 2
Fore
SplineSet
34.9189453125 0 m 1xc0
 173.081054688 650 l 1
 271.081054688 650 l 1
 153.75 98 l 1xc0
 436.75 98 l 1
 415.918945312 0 l 1xa0
 34.9189453125 0 l 1xc0
EndSplineSet
Validated: 1572865
EndChar

StartChar: Lacute
Encoding: 313 313 55
Width: 535
GlyphClass: 2
Flags: HMW
HStem: 0 98<202 485 202 485> 707 100<108 258 164 202>
VStem: 104 98<98 650 98 650 98 650> 104 381<0 98 0 650>
AnchorPoint: "Anchor-7" 238.767 807 basechar 0
AnchorPoint: "Anchor-5" 197.233 0 basechar 0
LayerCount: 2
Fore
SplineSet
18.2333984375 0 m 1xe0
 156.395507812 650 l 1
 254.395507812 650 l 1
 137.064453125 98 l 1xe0
 420.064453125 98 l 1
 399.233398438 0 l 1xd0
 18.2333984375 0 l 1xe0
172.510742188 707 m 1
 249.766601562 807 l 1
 343.766601562 807 l 1
 266.510742188 707 l 1
 172.510742188 707 l 1
EndSplineSet
Validated: 1572865
EndChar

StartChar: Lcaron
Encoding: 317 317 56
Width: 535
GlyphClass: 2
Flags: HMW
HStem: 0 98<202 485 202 485> 715 91<28 162 28 144>
VStem: 104 98<98 650 98 650 98 650> 104 381<0 98 0 650>
AnchorPoint: "Anchor-7" 237.173 799 basechar 0
AnchorPoint: "Anchor-5" 197.34 0 basechar 0
LayerCount: 2
Fore
SplineSet
18.33984375 0 m 1xa0
 156.501953125 650 l 1
 254.501953125 650 l 1
 137.169921875 98 l 1xe0
 420.169921875 98 l 1
 399.33984375 0 l 1x90
 18.33984375 0 l 1xa0
113.66015625 806 m 1
 208.66015625 806 l 1
 233.133789062 780 l 1
 268.66015625 806 l 1
 363.66015625 806 l 1
 228.317382812 715 l 1
 210.317382812 715 l 1
 113.66015625 806 l 1
EndSplineSet
Validated: 1572865
EndChar

StartChar: uni013B
Encoding: 315 315 57
Width: 535
GlyphClass: 2
Flags: HMW
HStem: -208 154<173 314 173 314> 0 98<202 485 202 485>
VStem: 104 98<98 650 98 650 98 650> 104 381<0 98 0 650>
AnchorPoint: "Anchor-7" 243.975 649 basechar 0
AnchorPoint: "Anchor-5" 151.813 -208 basechar 0
LayerCount: 2
Fore
SplineSet
57.025390625 0 m 1x60
 195.186523438 650 l 1
 293.186523438 650 l 1
 175.85546875 98 l 1xe0
 458.85546875 98 l 1
 438.025390625 0 l 1x50
 57.025390625 0 l 1x60
81.8134765625 -208 m 1
 186.546875 -54 l 1
 255.546875 -54 l 1
 150.813476562 -208 l 1
 81.8134765625 -208 l 1
EndSplineSet
Validated: 1572865
EndChar

StartChar: Ldot
Encoding: 319 319 58
Width: 535
GlyphClass: 2
Flags: HMW
HStem: 0 98<202 485 202 485> 252 156<415.5 458.5>
VStem: 104 98<98 650 98 650 98 650> 104 381<0 98 0 650> 359 156<308.5 351.5>
AnchorPoint: "Anchor-7" 221.868 649 basechar 0
AnchorPoint: "Anchor-5" 213.919 0 basechar 0
LayerCount: 2
Fore
SplineSet
34.9189453125 0 m 1xa0
 173.081054688 650 l 1
 271.081054688 650 l 1
 153.75 98 l 1xe8
 436.75 98 l 1
 415.918945312 0 l 1x90
 34.9189453125 0 l 1xa0
360.0625 330 m 0
 369.203125 373 411.642578125 408 454.642578125 408 c 0
 492.079406832 408 517.813345976 381.470489439 517.813345976 346.229328814 c 0
 517.813345976 340.992437232 517.2450782 335.563171293 516.0625 330 c 0
 506.922851562 287 464.483398438 252 421.483398438 252 c 0
 384.046100956 252 358.311986121 278.530174957 358.311986121 313.771995033 c 0
 358.311986121 319.008477751 358.880147782 324.437297482 360.0625 330 c 0
EndSplineSet
Validated: 1572865
Ligature2: "Ligature Substitution lookup 15 subtable" L periodcentered
EndChar

StartChar: Lslash
Encoding: 321 321 59
Width: 535
GlyphClass: 2
Flags: HMW
HStem: 0 98<202 485 202 485>
VStem: 104 98<98 217 217 217 404 650> 104 221<0 497 217 497 385 497 385 650 385 650>
AnchorPoint: "Anchor-7" 221.868 649 basechar 0
AnchorPoint: "Anchor-5" 213.919 0 basechar 0
LayerCount: 2
Fore
SplineSet
18.3291015625 176 m 1xc0
 42.34765625 289 l 1
 105.0625 330 l 1
 173.081054688 650 l 1
 271.081054688 650 l 1
 218.791992188 404 l 1xc0
 361.559570312 497 l 1
 337.752929688 385 l 1xa0
 194.985351562 292 l 1
 153.75 98 l 1
 436.75 98 l 1
 415.918945312 0 l 1
 34.9189453125 0 l 1
 81.0439453125 217 l 1
 18.3291015625 176 l 1xc0
EndSplineSet
Validated: 1572865
EndChar

StartChar: M
Encoding: 77 77 60
Width: 836
GlyphClass: 2
Flags: HMW
HStem: 276 94<370 425 411 425 411 466>
VStem: 104 98<0 517 0 650> 634 98<0 517 517 517>
AnchorPoint: "Anchor-7" 487.081 650 basechar 0
AnchorPoint: "Anchor-6" 617.919 0 basechar 0
AnchorPoint: "Anchor-5" 348.919 0 basechar 0
LayerCount: 2
Fore
SplineSet
359.584960938 276 m 1
 242.810546875 517 l 1
 132.918945312 0 l 1
 34.9189453125 0 l 1
 173.081054688 650 l 1
 285.081054688 650 l 1
 420.565429688 370 l 1
 434.565429688 370 l 1
 689.081054688 650 l 1
 801.081054688 650 l 1
 662.918945312 0 l 1
 564.918945312 0 l 1
 674.810546875 517 l 1
 455.584960938 276 l 1
 359.584960938 276 l 1
EndSplineSet
Validated: 524289
EndChar

StartChar: N
Encoding: 78 78 61
Width: 635
GlyphClass: 2
Flags: HMW
HStem: 276 94<380 433 420 433 420 433> 276 374<104 380 104 433>
VStem: 104 98<0 519 0 650> 433 98<0 276 276 276 370 650 0 650>
AnchorPoint: "Anchor-7" 387.081 650 basechar 0
AnchorPoint: "Anchor-5" 248.919 0 basechar 0
LayerCount: 2
Fore
SplineSet
369.584960938 276 m 1xb0
 243.236328125 519 l 1
 132.918945312 0 l 1
 34.9189453125 0 l 1
 173.081054688 650 l 1
 285.081054688 650 l 1x70
 429.565429688 370 l 1
 442.565429688 370 l 1xb0
 502.081054688 650 l 1
 600.081054688 650 l 1x70
 461.918945312 0 l 1
 363.918945312 0 l 1
 422.584960938 276 l 1
 369.584960938 276 l 1xb0
EndSplineSet
Validated: 1572865
EndChar

StartChar: Nacute
Encoding: 323 323 62
Width: 635
GlyphClass: 2
Flags: HMW
HStem: 276 94<380 433 420 433 420 433> 276 374<104 380 104 433> 708 100<273 423 329 367>
VStem: 104 98<0 519 0 650> 433 98<0 276 276 276 370 650 0 650>
AnchorPoint: "Anchor-7" 403.873 808 basechar 0
AnchorPoint: "Anchor-5" 232.127 0 basechar 0
LayerCount: 2
Fore
SplineSet
352.79296875 276 m 1xb8
 226.444335938 519 l 1
 116.126953125 0 l 1
 18.126953125 0 l 1
 156.2890625 650 l 1
 268.2890625 650 l 1x78
 412.7734375 370 l 1
 425.7734375 370 l 1xb8
 485.2890625 650 l 1
 583.2890625 650 l 1x78
 445.126953125 0 l 1
 347.126953125 0 l 1
 405.79296875 276 l 1
 352.79296875 276 l 1xb8
337.6171875 708 m 1
 414.873046875 808 l 1
 508.873046875 808 l 1
 431.6171875 708 l 1
 337.6171875 708 l 1
EndSplineSet
Validated: 1572865
EndChar

StartChar: Ncaron
Encoding: 327 327 63
Width: 635
GlyphClass: 2
Flags: HMW
HStem: 276 94<380 433 420 433 420 433> 276 374<104 380 104 433> 716 91<193 327 193 309>
VStem: 104 98<0 519 0 650> 433 98<0 276 276 276 370 650 0 650>
AnchorPoint: "Anchor-7" 402.278 800 basechar 0
AnchorPoint: "Anchor-5" 232.233 0 basechar 0
LayerCount: 2
Fore
SplineSet
352.899414062 276 m 1xb8
 226.549804688 519 l 1
 116.233398438 0 l 1
 18.2333984375 0 l 1
 156.395507812 650 l 1
 268.395507812 650 l 1x78
 412.87890625 370 l 1
 425.87890625 370 l 1xb8
 485.395507812 650 l 1
 583.395507812 650 l 1x78
 445.233398438 0 l 1
 347.233398438 0 l 1
 405.899414062 276 l 1
 352.899414062 276 l 1xb8
278.766601562 807 m 1
 373.766601562 807 l 1
 398.240234375 781 l 1
 433.766601562 807 l 1
 528.766601562 807 l 1
 393.423828125 716 l 1
 375.423828125 716 l 1
 278.766601562 807 l 1
EndSplineSet
Validated: 1572865
EndChar

StartChar: uni0145
Encoding: 325 325 64
Width: 635
GlyphClass: 2
Flags: HMW
HStem: -208 154<208 349 208 349> 276 94<380 433 420 433 420 433> 276 374<104 380 104 433>
VStem: 104 98<0 519 0 650> 433 98<0 276 276 276 370 650 0 650>
AnchorPoint: "Anchor-7" 409.187 650 basechar 0
AnchorPoint: "Anchor-5" 186.813 -208 basechar 0
LayerCount: 2
Fore
SplineSet
391.690429688 276 m 1xd8
 265.341796875 519 l 1
 155.025390625 0 l 1
 57.025390625 0 l 1
 195.186523438 650 l 1
 307.186523438 650 l 1xb8
 451.670898438 370 l 1
 464.670898438 370 l 1xd8
 524.186523438 650 l 1
 622.186523438 650 l 1xb8
 484.025390625 0 l 1
 386.025390625 0 l 1
 444.690429688 276 l 1
 391.690429688 276 l 1xd8
116.813476562 -208 m 1
 221.546875 -54 l 1
 290.546875 -54 l 1
 185.813476562 -208 l 1
 116.813476562 -208 l 1
EndSplineSet
Validated: 1572865
EndChar

StartChar: Ntilde
Encoding: 209 209 65
Width: 635
GlyphClass: 2
Flags: HMW
HStem: 276 94<380 433 420 433 420 433> 276 374<104 380 104 433> 704 58<353.5 384 353.5 399> 755 58<256 282>
VStem: 104 98<0 519 0 650> 176 58<709 721.5 709 738.5> 407 58<794 808> 433 98<0 276 276 276 370 650 0 650>
AnchorPoint: "Anchor-7" 404.191 812 basechar 0
AnchorPoint: "Anchor-5" 231.596 0 basechar 0
LayerCount: 2
Fore
SplineSet
352.26171875 276 m 1xa9
 225.913085938 519 l 1
 115.595703125 0 l 1
 17.595703125 0 l 1
 155.7578125 650 l 1
 267.7578125 650 l 1x69
 412.241210938 370 l 1
 425.241210938 370 l 1xa9
 484.7578125 650 l 1
 582.7578125 650 l 1x69
 444.595703125 0 l 1
 346.595703125 0 l 1
 405.26171875 276 l 1
 352.26171875 276 l 1xa9
240.298828125 709 m 1x96
 252.838867188 768 301.404296875 813 352.404296875 813 c 0
 400.404296875 813 408.563476562 762 449.563476562 762 c 0
 469.563476562 762 486.389648438 780 492.341796875 808 c 1
 550.341796875 808 l 1xa6
 537.587890625 748 487.235351562 704 437.235351562 704 c 0
 386.235351562 704 372.076171875 755 340.076171875 755 c 0
 320.076171875 755 303.612304688 734 298.298828125 709 c 1
 240.298828125 709 l 1x96
EndSplineSet
Validated: 1572865
EndChar

StartChar: Eng
Encoding: 330 330 66
Width: 635
GlyphClass: 2
Flags: HMW
HStem: -200 90<327 433 327 531 327 433> 275 94<382 433 423 433 423 433> 275 374<202 382 202 433>
VStem: 104 98<0 518 649 650> 327 204<-200 -110 -110 -110> 433 98<-110 275 275 275 369 649 -200 649>
AnchorPoint: "Anchor-7" 243.124 649 basechar 0
AnchorPoint: "Anchor-6" 119.175 0 basechar 0
AnchorPoint: "Anchor-5" 105.175 0 basechar 0
LayerCount: 2
Fore
SplineSet
392.627929688 275 m 1xd4
 264.279296875 518 l 1
 154.174804688 0 l 1
 56.1748046875 0 l 1
 194.336914062 650 l 1
 292.336914062 650 l 1
 292.124023438 649 l 1
 306.124023438 649 l 1
 453.608398438 369 l 1
 463.608398438 369 l 1xd4
 523.124023438 649 l 1
 621.124023438 649 l 1
 440.663085938 -200 l 1xb4
 236.663085938 -200 l 1
 255.793945312 -110 l 1xd8
 361.793945312 -110 l 1
 443.627929688 275 l 1
 392.627929688 275 l 1xd4
EndSplineSet
Validated: 524289
EndChar

StartChar: O
Encoding: 79 79 67
Width: 840
GlyphClass: 2
Flags: HMW
HStem: -16 101<354 485.5 354 514> 563 101<354 486>
VStem: 80 101<258 390 258 418> 659 101<258 390.5>
AnchorPoint: "Anchor-7" 488.868 648 basechar 0
AnchorPoint: "Anchor-6" 679.257 10 basechar 0
AnchorPoint: "Anchor-5" 351.132 0 basechar 0
LayerCount: 2
Fore
SplineSet
347.73046875 -16 m 0
 184.167312166 -16 72.3089258594 99.053240752 72.3089258594 252.768951575 c 0
 72.3089258594 275.73455602 74.8057490827 299.563156584 80 324 c 0
 119.9609375 512 304.26953125 664 492.26953125 664 c 0
 655.832687834 664 767.691074141 548.946759248 767.691074141 395.231048425 c 0
 767.691074141 372.26544398 765.194250917 348.436843416 760 324 c 0
 720.0390625 136 535.73046875 -16 347.73046875 -16 c 0
181 324 m 0
 177.359648578 306.87358529 175.609988764 290.168018376 175.609988764 274.062397546 c 0
 175.609988764 166.035677451 254.32563346 85 369.19921875 85 c 0
 500.19921875 85 630.942382812 192 659 324 c 0
 662.683314047 341.328332815 664.452860428 358.198340107 664.452860428 374.435301919 c 0
 664.452860428 482.821749875 585.602736651 563 470.80078125 563 c 0
 338.80078125 563 209.057617188 456 181 324 c 0
EndSplineSet
Validated: 524289
Substitution2: "'ss05' Style Set 5 in Latin lookup 13 subtable" O.ss05
Substitution2: "'ss04' Style Set 4 in Latin lookup 12 subtable" O.ss04
AlternateSubs2: "'aalt' Access All Alternates in Latin lookup 1 subtable" O.ss04 O.ss05
EndChar

StartChar: Oacute
Encoding: 211 211 68
Width: 840
GlyphClass: 2
Flags: HMW
HStem: -16 101<354 485.5 354 514> 563 101<354 486> 706 100<375 525 431 469>
VStem: 80 101<258 390 258 418> 659 101<258 390.5>
AnchorPoint: "Anchor-7" 507.36 806 basechar 0
AnchorPoint: "Anchor-6" 664.166 10 basechar 0
AnchorPoint: "Anchor-5" 336.04 0 basechar 0
LayerCount: 2
Fore
SplineSet
332.639648438 -16 m 0
 169.076021665 -16 57.2174624376 99.0539022311 57.2174624376 252.770277218 c 0
 57.2174624376 275.735472992 59.7141790845 299.563626773 64.908203125 324 c 0
 104.869140625 512 289.177734375 664 477.177734375 664 c 0
 640.740890959 664 752.599277266 548.946759248 752.599277266 395.231048425 c 0
 752.599277266 372.26544398 750.102454042 348.436843416 744.908203125 324 c 0
 704.948242188 136 520.639648438 -16 332.639648438 -16 c 0
165.908203125 324 m 0
 162.267851703 306.87358529 160.518191889 290.168018377 160.518191889 274.062397547 c 0
 160.518191889 166.035677452 239.233836585 85 354.107421875 85 c 0
 485.107421875 85 615.850585938 192 643.908203125 324 c 0
 647.591547182 341.328473999 649.361108966 358.198615006 649.361108966 374.435698794 c 0
 649.361108966 482.821945599 570.511776217 563 455.709960938 563 c 0
 323.709960938 563 193.965820312 456 165.908203125 324 c 0
441.10546875 706 m 1
 518.360351562 806 l 1
 612.360351562 806 l 1
 535.10546875 706 l 1
 441.10546875 706 l 1
EndSplineSet
Validated: 524289
Substitution2: "'ss05' Style Set 5 in Latin lookup 13 subtable" Oacute.ss05
Substitution2: "'ss04' Style Set 4 in Latin lookup 12 subtable" Oacute.ss04
AlternateSubs2: "'aalt' Access All Alternates in Latin lookup 1 subtable" Oacute.ss04 Oacute.ss05
EndChar

StartChar: Ocircumflex
Encoding: 212 212 69
Width: 840
GlyphClass: 2
Flags: HMW
HStem: -16 101<354 485.5 354 514> 563 101<354 486> 707 91<295 429 411 450 411 545>
VStem: 80 101<258 390 258 418> 659 101<258 390.5>
AnchorPoint: "Anchor-7" 506.511 798 basechar 0
AnchorPoint: "Anchor-6" 665.016 10 basechar 0
AnchorPoint: "Anchor-5" 336.891 0 basechar 0
LayerCount: 2
Fore
SplineSet
333.489257812 -16 m 0
 169.926101228 -16 58.0677149219 99.0532407519 58.0677149219 252.768951575 c 0
 58.0677149219 275.73455602 60.5645381452 299.563156584 65.7587890625 324 c 0
 105.719726562 512 290.028320312 664 478.028320312 664 c 0
 641.591476896 664 753.449863203 548.946759248 753.449863203 395.231048425 c 0
 753.449863203 372.26544398 750.953039979 348.436843416 745.758789062 324 c 0
 705.797851562 136 521.489257812 -16 333.489257812 -16 c 0
166.758789062 324 m 0
 163.11843764 306.87358529 161.368777826 290.168018377 161.368777826 274.062397547 c 0
 161.368777826 166.035677452 240.084422522 85 354.958007812 85 c 0
 485.958007812 85 616.701171875 192 644.758789062 324 c 0
 648.441905724 341.328002776 650.211360772 358.197697487 650.211360772 374.434374161 c 0
 650.211360772 482.821292339 571.361853271 563 456.559570312 563 c 0
 324.559570312 563 194.81640625 456 166.758789062 324 c 0
362.16796875 707 m 1
 497.510742188 798 l 1
 515.510742188 798 l 1
 612.16796875 707 l 1
 517.16796875 707 l 1
 492.694335938 733 l 1
 457.16796875 707 l 1
 362.16796875 707 l 1
EndSplineSet
Validated: 524289
Substitution2: "'ss05' Style Set 5 in Latin lookup 13 subtable" Ocircumflex.ss05
Substitution2: "'ss04' Style Set 4 in Latin lookup 12 subtable" Ocircumflex.ss04
AlternateSubs2: "'aalt' Access All Alternates in Latin lookup 1 subtable" Ocircumflex.ss04 Ocircumflex.ss05
EndChar

StartChar: Odieresis
Encoding: 214 214 70
Width: 840
GlyphClass: 2
Flags: HMW
HStem: -16 101<354 485.5 354 514> 563 101<354 486> 715 104<325.5 354.5 485.5 514.5>
VStem: 80 101<258 390 258 418> 288 104<752.5 781.5> 448 104<752.5 781.5> 659 101<258 390.5>
AnchorPoint: "Anchor-7" 510.442 827 basechar 0
AnchorPoint: "Anchor-6" 662.784 10 basechar 0
AnchorPoint: "Anchor-5" 334.658 0 basechar 0
LayerCount: 2
Fore
SplineSet
331.2578125 -16 m 0
 167.694655916 -16 55.8362696094 99.053240752 55.8362696094 252.768951575 c 0
 55.8362696094 275.73455602 58.3330928327 299.563156584 63.52734375 324 c 0
 103.487304688 512 287.795898438 664 475.795898438 664 c 0
 639.35952521 664 751.218084438 548.946097769 751.218084438 395.229722783 c 0
 751.218084438 372.264527009 748.721367791 348.436373228 743.52734375 324 c 0
 703.56640625 136 519.2578125 -16 331.2578125 -16 c 0
164.52734375 324 m 0
 160.886962561 306.873445251 159.137287461 290.167745182 159.137287461 274.062002471 c 0
 159.137287461 166.035479876 237.852140687 85 352.725585938 85 c 0
 483.725585938 85 614.469726562 192 642.52734375 324 c 0
 646.210460412 341.328002776 647.97991546 358.197697487 647.97991546 374.434374161 c 0
 647.97991546 482.821292339 569.130407959 563 454.328125 563 c 0
 322.328125 563 192.583984375 456 164.52734375 324 c 0
365.689453125 767 m 0
 371.853515625 796 399.7421875 819 428.7421875 819 c 0
 453.921524731 819 470.892292004 801.661144426 470.892292004 778.110682391 c 0
 470.892292004 774.537181918 470.501549818 770.820662769 469.689453125 767 c 0
 463.525390625 738 435.63671875 715 406.63671875 715 c 0
 381.457381519 715 364.486614246 732.338855574 364.486614246 755.889317609 c 0
 364.486614246 759.462818082 364.877356432 763.179337231 365.689453125 767 c 0
525.689453125 767 m 0
 531.853515625 796 559.7421875 819 588.7421875 819 c 0
 613.921524731 819 630.892292004 801.661144426 630.892292004 778.110682391 c 0
 630.892292004 774.537181918 630.501549818 770.820662769 629.689453125 767 c 0
 623.525390625 738 595.63671875 715 566.63671875 715 c 0
 541.457381519 715 524.486614246 732.338855574 524.486614246 755.889317609 c 0
 524.486614246 759.462818082 524.877356432 763.179337231 525.689453125 767 c 0
EndSplineSet
Validated: 524289
Substitution2: "'ss05' Style Set 5 in Latin lookup 13 subtable" Odieresis.ss05
Substitution2: "'ss04' Style Set 4 in Latin lookup 12 subtable" Odieresis.ss04
AlternateSubs2: "'aalt' Access All Alternates in Latin lookup 1 subtable" Odieresis.ss04 Odieresis.ss05
EndChar

StartChar: Ograve
Encoding: 210 210 71
Width: 840
GlyphClass: 2
Flags: HMW
HStem: -16 101<354 485.5 354 514> 563 101<354 486> 706 100<371 409 315 465 371 371>
VStem: 80 101<258 390 258 418> 659 101<258 390.5>
AnchorPoint: "Anchor-7" 507.36 806 basechar 0
AnchorPoint: "Anchor-6" 664.166 10 basechar 0
AnchorPoint: "Anchor-5" 336.04 0 basechar 0
LayerCount: 2
Fore
SplineSet
332.639648438 -16 m 0
 169.076021665 -16 57.2174624376 99.0539022311 57.2174624376 252.770277218 c 0
 57.2174624376 275.735472992 59.7141790845 299.563626773 64.908203125 324 c 0
 104.869140625 512 289.177734375 664 477.177734375 664 c 0
 640.740890959 664 752.599277266 548.946759248 752.599277266 395.231048425 c 0
 752.599277266 372.26544398 750.102454042 348.436843416 744.908203125 324 c 0
 704.948242188 136 520.639648438 -16 332.639648438 -16 c 0
165.908203125 324 m 0
 162.267851703 306.87358529 160.518191889 290.168018377 160.518191889 274.062397547 c 0
 160.518191889 166.035677452 239.233836585 85 354.107421875 85 c 0
 485.107421875 85 615.850585938 192 643.908203125 324 c 0
 647.591547182 341.328473999 649.361108966 358.198615006 649.361108966 374.435698794 c 0
 649.361108966 482.821945599 570.511776217 563 455.709960938 563 c 0
 323.709960938 563 193.965820312 456 165.908203125 324 c 0
402.360351562 806 m 1
 496.360351562 806 l 1
 531.10546875 706 l 1
 437.10546875 706 l 1
 402.360351562 806 l 1
EndSplineSet
Validated: 524289
Substitution2: "'ss05' Style Set 5 in Latin lookup 13 subtable" Ograve.ss05
Substitution2: "'ss04' Style Set 4 in Latin lookup 12 subtable" Ograve.ss04
AlternateSubs2: "'aalt' Access All Alternates in Latin lookup 1 subtable" Ograve.ss04 Ograve.ss05
EndChar

StartChar: Ohungarumlaut
Encoding: 336 336 72
Width: 840
GlyphClass: 2
Flags: HMW
HStem: -16 101<354 485.5 354 514> 563 101<354 486> 706 180<293 426 349 370 530 551 349 474>
VStem: 80 101<258 390 258 418> 659 101<258 390.5>
AnchorPoint: "Anchor-7" 515.863 886 basechar 0
AnchorPoint: "Anchor-6" 655.663 10 basechar 0
AnchorPoint: "Anchor-5" 327.538 0 basechar 0
LayerCount: 2
Fore
SplineSet
324.13671875 -16 m 0
 160.573562166 -16 48.7151758594 99.053240752 48.7151758594 252.768951575 c 0
 48.7151758594 275.73455602 51.2119990827 299.563156584 56.40625 324 c 0
 96.3671875 512 280.67578125 664 468.67578125 664 c 0
 632.238937834 664 744.097324141 548.946759248 744.097324141 395.231048425 c 0
 744.097324141 372.26544398 741.600500917 348.436843416 736.40625 324 c 0
 696.4453125 136 512.13671875 -16 324.13671875 -16 c 0
157.40625 324 m 0
 153.765898578 306.87358529 152.016238764 290.168018376 152.016238764 274.062397546 c 0
 152.016238764 166.035677451 230.73188346 85 345.60546875 85 c 0
 476.60546875 85 607.348632812 192 635.40625 324 c 0
 639.089366662 341.328002776 640.85882171 358.197697487 640.85882171 374.434374161 c 0
 640.85882171 482.821292339 562.009314209 563 447.20703125 563 c 0
 315.20703125 563 185.463867188 456 157.40625 324 c 0
350.602539062 706 m 1
 444.86328125 886 l 1
 521.86328125 886 l 1
 427.602539062 706 l 1
 350.602539062 706 l 1
531.602539062 706 m 1
 625.86328125 886 l 1
 702.86328125 886 l 1
 608.602539062 706 l 1
 531.602539062 706 l 1
EndSplineSet
Validated: 524289
Substitution2: "'ss05' Style Set 5 in Latin lookup 13 subtable" Ohungarumlaut.ss05
Substitution2: "'ss04' Style Set 4 in Latin lookup 12 subtable" Ohungarumlaut.ss04
AlternateSubs2: "'aalt' Access All Alternates in Latin lookup 1 subtable" Ohungarumlaut.ss04 Ohungarumlaut.ss05
EndChar

StartChar: Omacron
Encoding: 332 332 73
Width: 840
GlyphClass: 2
Flags: HMW
HStem: -16 101<354 485.5 354 514> 563 101<354 486> 733 66<255 585 255 585>
VStem: 80 101<258 390 258 418> 255 330<733 799 733 799> 659 101<258 390.5>
AnchorPoint: "Anchor-7" 506.617 799 basechar 0
AnchorPoint: "Anchor-6" 664.91 10 basechar 0
AnchorPoint: "Anchor-5" 336.784 0 basechar 0
LayerCount: 2
Fore
SplineSet
333.3828125 -16 m 0
 169.819655916 -16 57.9612696094 99.053240752 57.9612696094 252.768951575 c 0
 57.9612696094 275.73455602 60.4580928327 299.563156584 65.65234375 324 c 0
 105.61328125 512 289.921875 664 477.921875 664 c 0
 641.485031584 664 753.343417891 548.946759248 753.343417891 395.231048425 c 0
 753.343417891 372.26544398 750.846594667 348.436843416 745.65234375 324 c 0
 705.69140625 136 521.3828125 -16 333.3828125 -16 c 0
166.65234375 324 m 0
 163.011992328 306.87358529 161.262332514 290.168018376 161.262332514 274.062397546 c 0
 161.262332514 166.035677451 239.97797721 85 354.8515625 85 c 0
 485.8515625 85 616.594726562 192 644.65234375 324 c 0
 648.335657797 341.328332815 650.105204178 358.198340107 650.105204178 374.435301919 c 0
 650.105204178 482.821749875 571.255080401 563 456.453125 563 c 0
 324.453125 563 194.709960938 456 166.65234375 324 c 0
327.587890625 733 m 1
 341.6171875 799 l 1
 671.6171875 799 l 1
 657.587890625 733 l 1
 327.587890625 733 l 1
EndSplineSet
Validated: 524289
Substitution2: "'ss05' Style Set 5 in Latin lookup 13 subtable" Omacron.ss05
Substitution2: "'ss04' Style Set 4 in Latin lookup 12 subtable" Omacron.ss04
AlternateSubs2: "'aalt' Access All Alternates in Latin lookup 1 subtable" Omacron.ss04 Omacron.ss05
EndChar

StartChar: Oslash
Encoding: 216 216 74
Width: 860
GlyphClass: 1
Flags: HMW
HStem: -16 98<407.5 497 407.5 524> 567 97<362.5 452.5>
VStem: 90 98<295.5 391.5 295.5 418> 673 97<256.5 353>
LayerCount: 2
Fore
SplineSet
21.1318359375 0 m 1
 127.174804688 99 l 1
 98.3340543946 141.995552326 82.2421656482 194.234192251 82.2421656482 252.40415597 c 0
 82.2421656482 275.409979847 84.7591760879 299.343550872 90 324 c 0
 129.9609375 512 314.26953125 664 502.26953125 664 c 0
 571.26953125 664 631.018554688 644 676.579101562 609 c 1
 720.081054688 649 l 1
 838.081054688 649 l 1
 732.038085938 550 l 1
 761.081251199 506.701638513 777.606261982 453.508773124 777.606261982 394.555240566 c 0
 777.606261982 371.814874511 775.147497182 348.217375843 770 324 c 0
 730.0390625 136 545.73046875 -16 357.73046875 -16 c 0
 288.73046875 -16 228.194335938 5 182.633789062 40 c 1
 139.131835938 0 l 1
 21.1318359375 0 l 1
188 324 m 0
 184.203568669 306.139912635 182.356138697 288.672540223 182.356138697 271.843985339 c 0
 182.356138697 234.964649058 191.228526806 201.153270492 207.904296875 173 c 1
 596.849609375 535 l 1
 565.100585938 555 526.651367188 567 481.651367188 567 c 0
 346.651367188 567 216.6953125 459 188 324 c 0
262.575195312 115 m 1
 294.112304688 94 333.561523438 82 378.561523438 82 c 0
 512.561523438 82 644.3046875 189 673 324 c 0
 676.757765287 341.679118813 678.558601163 358.893684651 678.558601163 375.445455407 c 0
 678.558601163 413.195186552 669.191333401 447.497308127 652.30859375 476 c 1
 262.575195312 115 l 1
EndSplineSet
Validated: 524289
Substitution2: "'ss05' Style Set 5 in Latin lookup 13 subtable" Oslash.ss05
Substitution2: "'ss04' Style Set 4 in Latin lookup 12 subtable" Oslash.ss04
AlternateSubs2: "'aalt' Access All Alternates in Latin lookup 1 subtable" Oslash.ss04 Oslash.ss05
EndChar

StartChar: Otilde
Encoding: 213 213 75
Width: 840
GlyphClass: 2
Flags: HMW
HStem: -16 101<354 485.5 354 514> 563 101<354 486> 702 58<455.5 486 455.5 501> 753 58<358 384>
VStem: 80 101<258 390 258 418> 278 58<707 719.5 707 736.5> 509 58<792 806> 659 101<258 390.5>
AnchorPoint: "Anchor-7" 507.68 810 basechar 0
AnchorPoint: "Anchor-6" 663.635 10 basechar 0
AnchorPoint: "Anchor-5" 335.509 0 basechar 0
LayerCount: 2
Fore
SplineSet
332.107421875 -16 m 0xe9
 168.544265291 -16 56.6858789844 99.053240752 56.6858789844 252.768951575 c 0
 56.6858789844 275.73455602 59.1827022077 299.563156584 64.376953125 324 c 0
 104.337890625 512 288.646484375 664 476.646484375 664 c 0
 640.209640959 664 752.068027266 548.946759248 752.068027266 395.231048425 c 0
 752.068027266 372.26544398 749.571204042 348.436843416 744.376953125 324 c 0
 704.416015625 136 520.107421875 -16 332.107421875 -16 c 0xe9
165.376953125 324 m 0
 161.736601703 306.87358529 159.986941889 290.168018377 159.986941889 274.062397547 c 0
 159.986941889 166.035677452 238.702586585 85 353.576171875 85 c 0
 484.576171875 85 615.319335938 192 643.376953125 324 c 0
 647.060267172 341.328332816 648.829813553 358.198340107 648.829813553 374.43530192 c 0
 648.829813553 482.821749875 569.979689776 563 455.177734375 563 c 0
 323.177734375 563 193.434570312 456 165.376953125 324 c 0
343.786132812 707 m 1xdf
 356.327148438 766 404.892578125 811 455.892578125 811 c 0
 503.892578125 811 512.051757812 760 553.051757812 760 c 0
 573.051757812 760 589.877929688 778 595.829101562 806 c 1
 653.829101562 806 l 1xef
 641.076171875 746 590.723632812 702 540.723632812 702 c 0
 489.723632812 702 475.563476562 753 443.563476562 753 c 0
 423.563476562 753 407.100585938 732 401.786132812 707 c 1
 343.786132812 707 l 1xdf
EndSplineSet
Validated: 524289
Substitution2: "'ss05' Style Set 5 in Latin lookup 13 subtable" Otilde.ss05
Substitution2: "'ss04' Style Set 4 in Latin lookup 12 subtable" Otilde.ss04
AlternateSubs2: "'aalt' Access All Alternates in Latin lookup 1 subtable" Otilde.ss04 Otilde.ss05
EndChar

StartChar: OE
Encoding: 338 338 76
Width: 825
GlyphClass: 1
Flags: HMW
HStem: 0 94<300.5 426 403 426 403 733> 0 98<524 733 524 733> 275 98<524 683 524 683> 552 97<524 733 524 733> 556 94<395 403 403 426>
VStem: 80 98<256.5 393 256.5 422> 426 98<98 275 373 552> 426 257<275 373 275 556 275 556> 426 307<94 98 552 556 556 556>
LayerCount: 2
Fore
SplineSet
475.100585938 556 m 1xae
 452.100585938 556 l 2
 317.100585938 556 206.907226562 461 178 325 c 0
 173.609243886 304.343023115 171.472414363 284.663645454 171.472414363 266.136694123 c 0
 171.472414363 161.790276977 239.254829241 94 353.899414062 94 c 2
 376.899414062 94 l 1
 475.100585938 556 l 1xae
80 325 m 0x7480
 121.236328125 519 275.081054688 650 464.081054688 650 c 2
 593.081054688 650 l 1
 592.868164062 649 l 1
 801.868164062 649 l 1
 781.25 552 l 1x7480
 572.25 552 l 1
 534.203125 373 l 1x76
 693.203125 373 l 1
 672.372070312 275 l 1x75
 513.372070312 275 l 1
 475.75 98 l 1x76
 684.75 98 l 1
 663.918945312 0 l 1
 325.918945312 0 l 2
 165.704550409 0 70.6177318377 93.4163322257 70.6177318377 240.654707943 c 0
 70.6177318377 267.108921006 73.6872342245 295.30056617 80 325 c 0x7480
EndSplineSet
Validated: 524289
EndChar

StartChar: P
Encoding: 80 80 77
Width: 605
GlyphClass: 2
Flags: HMW
HStem: 214 94<202 316 316 320 202 316> 556 94<202 316 202 202>
VStem: 104 98<0 214 308 556> 438 97<395.5 468.5>
AnchorPoint: "Anchor-7" 382.081 650 basechar 0
AnchorPoint: "Anchor-5" 243.919 0 basechar 0
LayerCount: 2
Fore
SplineSet
173.081054688 650 m 1
 389.081054688 650 l 2
 498.729962718 650 563.951650166 587.14375195 563.951650166 487.83784191 c 0
 563.951650166 470.31210606 561.920255242 451.6511089 557.743164062 432 c 0
 529.8984375 301 425.40625 214 296.40625 214 c 2
 178.40625 214 l 1
 132.918945312 0 l 1
 34.9189453125 0 l 1
 173.081054688 650 l 1
198.38671875 308 m 1
 312.38671875 308 l 2
 385.38671875 308 445.2265625 359 460.743164062 432 c 0
 463.045892347 442.83350398 464.166476179 453.18248445 464.166476179 462.952157142 c 0
 464.166476179 519.014011147 427.267081958 556 365.100585938 556 c 2
 251.100585938 556 l 1
 198.38671875 308 l 1
EndSplineSet
Validated: 1572865
EndChar

StartChar: Thorn
Encoding: 222 222 78
Width: 600
GlyphClass: 2
Flags: HMW
HStem: 113 98<202 315 315 320 202 315> 452 97<202 315 202 320>
VStem: 104 98<0 113 211 452 549 701> 438 97<295 367.5>
AnchorPoint: "Anchor-7" 376.448 649 basechar 0
AnchorPoint: "Anchor-5" 238.499 0 basechar 0
LayerCount: 2
Fore
SplineSet
29.4990234375 0 m 1
 178.500976562 701 l 1
 276.500976562 701 l 1
 244.192382812 549 l 1
 362.192382812 549 l 2
 471.841794958 549 537.063578008 486.14317398 537.063578008 386.836472217 c 0
 537.063578008 369.311133783 535.032304623 350.650596968 530.85546875 331 c 0
 503.009765625 200 398.517578125 113 269.517578125 113 c 2
 151.517578125 113 l 1
 127.499023438 0 l 1
 29.4990234375 0 l 1
172.348632812 211 m 1
 285.348632812 211 l 2
 358.348632812 211 418.55078125 259 433.85546875 331 c 0
 436.13055755 341.7034702 437.237979639 351.86948368 437.237979639 361.425541265 c 0
 437.237979639 417.043879525 399.724125671 452 336.57421875 452 c 2
 223.57421875 452 l 1
 172.348632812 211 l 1
EndSplineSet
Validated: 1572865
EndChar

StartChar: Q
Encoding: 81 81 79
Width: 875
GlyphClass: 2
Flags: HMW
HStem: -16 101<354 442.5 354 456> -16 249 0 233 563 101<354 486>
VStem: 80 101<258 390 258 418> 659 101<297 390.5>
AnchorPoint: "Anchor-7" 492.27 664 basechar 0
AnchorPoint: "Anchor-5" 347.73 -16 basechar 0
LayerCount: 2
Fore
SplineSet
589.131835938 0 m 1x3c
 554.696289062 45 l 1
 491.407226562 6 419.73046875 -16 347.73046875 -16 c 0x9c
 184.167312166 -16 72.3089258594 99.053240752 72.3089258594 252.768951575 c 0
 72.3089258594 275.73455602 74.8057490827 299.563156584 80 324 c 0
 119.9609375 512 304.26953125 664 492.26953125 664 c 0
 655.832687834 664 767.691074141 548.946759248 767.691074141 395.231048425 c 0
 767.691074141 372.26544398 765.194250917 348.436843416 760 324 c 0
 742.357421875 241 695.991210938 164 634.450195312 105 c 1
 712.131835938 0 l 1
 589.131835938 0 l 1x3c
181 324 m 0
 177.359648578 306.87358529 175.609988764 290.168018376 175.609988764 274.062397546 c 0
 175.609988764 166.035677451 254.32563346 85 369.19921875 85 c 0
 414.19921875 85 457.75 97 498.42578125 119 c 1x9c
 412.444335938 232 l 1
 538.870117188 234 l 1
 579.1796875 179 l 1x5c
 618.89453125 220 647.521484375 270 659 324 c 0
 662.683314047 341.328332815 664.452860428 358.198340107 664.452860428 374.435301919 c 0
 664.452860428 482.821749875 585.602736651 563 470.80078125 563 c 0
 338.80078125 563 209.057617188 456 181 324 c 0
EndSplineSet
Validated: 1572865
Substitution2: "'ss05' Style Set 5 in Latin lookup 13 subtable" Q.ss05
Substitution2: "'ss04' Style Set 4 in Latin lookup 12 subtable" Q.ss04
AlternateSubs2: "'aalt' Access All Alternates in Latin lookup 1 subtable" Q.ss04 Q.ss05
EndChar

StartChar: R
Encoding: 82 82 80
Width: 617
GlyphClass: 2
Flags: HMW
HStem: 214 94<202 314 314 316 202 314> 556 94<202 314 202 202>
VStem: 104 98<0 214 308 556> 436 97<395.5 468.5>
AnchorPoint: "Anchor-7" 357.868 649 basechar 0
AnchorPoint: "Anchor-5" 249.919 0 basechar 0
LayerCount: 2
Fore
SplineSet
351.918945312 0 m 1
 292.40625 214 l 1
 178.40625 214 l 1
 132.918945312 0 l 1
 34.9189453125 0 l 1
 173.081054688 650 l 1
 387.081054688 650 l 2
 496.729962718 650 561.951650166 587.14375195 561.951650166 487.83784191 c 0
 561.951650166 470.31210606 559.920255242 451.6511089 555.743164062 432 c 0
 535.125976562 335 472.609375 262 389.01953125 231 c 1
 453.918945312 0 l 1
 351.918945312 0 l 1
198.38671875 308 m 1
 310.38671875 308 l 2
 384.38671875 308 443.2265625 359 458.743164062 432 c 0
 461.081475933 443.000911885 462.223535912 453.502210077 462.223535912 463.404648012 c 0
 462.223535912 519.212941775 425.94897663 556 363.100585938 556 c 2
 251.100585938 556 l 1
 198.38671875 308 l 1
EndSplineSet
Validated: 1572865
EndChar

StartChar: Racute
Encoding: 340 340 81
Width: 617
GlyphClass: 2
Flags: HMW
HStem: 214 94<202 314 314 316 202 314> 556 94<202 314 202 202> 707 100<244 394 300 338>
VStem: 104 98<0 214 308 556> 436 97<395.5 468.5>
AnchorPoint: "Anchor-7" 374.767 807 basechar 0
AnchorPoint: "Anchor-5" 233.233 0 basechar 0
LayerCount: 2
Fore
SplineSet
335.233398438 0 m 1
 275.720703125 214 l 1
 161.720703125 214 l 1
 116.233398438 0 l 1
 18.2333984375 0 l 1
 156.395507812 650 l 1
 370.395507812 650 l 2
 480.044742026 650 545.265785776 587.14337798 545.265785776 487.836955663 c 0
 545.265785776 470.311476957 543.234491468 451.650777659 539.057617188 432 c 0
 518.439453125 335 455.922851562 262 372.333984375 231 c 1
 437.233398438 0 l 1
 335.233398438 0 l 1
181.701171875 308 m 1
 293.701171875 308 l 2
 367.701171875 308 426.541015625 359 442.057617188 432 c 0
 444.395929058 443.000911884 445.537989037 453.502210075 445.537989037 463.404648011 c 0
 445.537989037 519.212941774 409.263429755 556 346.415039062 556 c 2
 234.415039062 556 l 1
 181.701171875 308 l 1
308.510742188 707 m 1
 385.766601562 807 l 1
 479.766601562 807 l 1
 402.510742188 707 l 1
 308.510742188 707 l 1
EndSplineSet
Validated: 1572865
EndChar

StartChar: Rcaron
Encoding: 344 344 82
Width: 617
GlyphClass: 2
Flags: HMW
HStem: 214 94<202 314 314 316 202 314> 556 94<202 314 202 202> 715 91<164 298 164 280>
VStem: 104 98<0 214 308 556> 436 97<395.5 468.5>
AnchorPoint: "Anchor-7" 373.173 799 basechar 0
AnchorPoint: "Anchor-5" 233.34 0 basechar 0
LayerCount: 2
Fore
SplineSet
335.33984375 0 m 1
 275.827148438 214 l 1
 161.827148438 214 l 1
 116.33984375 0 l 1
 18.33984375 0 l 1
 156.501953125 650 l 1
 370.501953125 650 l 2
 480.151187338 650 545.372231088 587.14337798 545.372231088 487.836955664 c 0
 545.372231088 470.311476957 543.34093678 451.650777659 539.1640625 432 c 0
 518.545898438 335 456.029296875 262 372.440429688 231 c 1
 437.33984375 0 l 1
 335.33984375 0 l 1
249.66015625 806 m 1
 344.66015625 806 l 1
 369.133789062 780 l 1
 404.66015625 806 l 1
 499.66015625 806 l 1
 364.317382812 715 l 1
 346.317382812 715 l 1
 249.66015625 806 l 1
181.806640625 308 m 1
 293.806640625 308 l 2
 367.806640625 308 426.647460938 359 442.1640625 432 c 0
 444.50237437 443.000911884 445.644434349 453.502210076 445.644434349 463.404648011 c 0
 445.644434349 519.212941774 409.369875067 556 346.521484375 556 c 2
 234.521484375 556 l 1
 181.806640625 308 l 1
EndSplineSet
Validated: 1572865
EndChar

StartChar: uni0156
Encoding: 342 342 83
Width: 617
GlyphClass: 2
Flags: HMW
HStem: -208 154<209 350 209 350> 214 94<202 314 314 316 202 314> 556 94<202 314 202 202>
VStem: 104 98<0 214 308 556> 436 97<395.5 468.5>
AnchorPoint: "Anchor-7" 379.975 649 basechar 0
AnchorPoint: "Anchor-5" 187.813 -208 basechar 0
LayerCount: 2
Fore
SplineSet
374.025390625 0 m 1
 314.51171875 214 l 1
 200.51171875 214 l 1
 155.025390625 0 l 1
 57.025390625 0 l 1
 195.186523438 650 l 1
 409.186523438 650 l 2
 518.835935583 650 584.057718634 587.14317398 584.057718634 487.836472219 c 0
 584.057718634 470.311133784 582.026445248 451.650596969 577.849609375 432 c 0
 557.231445312 335 494.71484375 262 411.125976562 231 c 1
 476.025390625 0 l 1
 374.025390625 0 l 1
220.4921875 308 m 1
 332.4921875 308 l 2
 406.4921875 308 465.333007812 359 480.849609375 432 c 0
 483.187882682 443.000730455 484.329921377 453.501863697 484.329921377 463.404158072 c 0
 484.329921377 519.212726473 448.054629295 556 385.206054688 556 c 2
 273.206054688 556 l 1
 220.4921875 308 l 1
117.813476562 -208 m 1
 222.546875 -54 l 1
 291.546875 -54 l 1
 186.813476562 -208 l 1
 117.813476562 -208 l 1
EndSplineSet
Validated: 1572865
EndChar

StartChar: S
Encoding: 83 83 84
Width: 560
GlyphClass: 2
Flags: HMW
HStem: 0 94<121 273 121 273 273 280> 232 94<273 273 273 280 273 287> 323 94<287 287> 556 94<280 287 287 393>
VStem: 64 98<407.5 471.5 407.5 489.5> 273 14<232 417> 398 98<177.5 241.5>
AnchorPoint: "Anchor-7" 349.081 650 basechar 0
AnchorPoint: "Anchor-5" 210.919 0 basechar 0
LayerCount: 2
Fore
SplineSet
51.9189453125 0 m 1xbe
 71.8994140625 94 l 1
 223.899414062 94 l 2
 302.899414062 94 359.52734375 144 373.768554688 211 c 0
 375.691672812 220.04765011 376.642668529 228.765308392 376.642668529 237.068136689 c 0
 376.642668529 284.743658571 345.286906556 318.741610665 286.575195312 323 c 1xbe
 267.232421875 232 l 1
 260.232421875 232 l 2
 137.823487026 232 82.4940757758 302.815337501 82.4940757758 389.162657692 c 0
 82.4940757758 404.3930052 84.2154605091 420.106577042 87.59375 436 c 0
 110.336914062 543 205.081054688 650 349.081054688 650 c 2
 462.081054688 650 l 1
 442.100585938 556 l 1
 336.100585938 556 l 2
 257.100585938 556 200.259765625 505 186.018554688 438 c 0
 184.129581296 429.112989838 183.19974212 420.544357596 183.19974212 412.374502318 c 0
 183.19974212 364.466873395 215.173116082 330.271556544 273.212890625 326 c 1xde
 292.555664062 417 l 1
 299.555664062 417 l 2
 421.964364826 417 477.29309288 346.184933342 477.29309288 259.837837679 c 0
 477.29309288 244.607335525 475.571685492 228.893595271 472.193359375 213 c 0
 449.663085938 107 354.918945312 0 210.918945312 0 c 2
 51.9189453125 0 l 1xbe
EndSplineSet
Validated: 1572865
EndChar

StartChar: Sacute
Encoding: 346 346 85
Width: 560
GlyphClass: 2
Flags: HMW
HStem: 0 94<121 273 121 273 273 280> 232 94<273 273 273 280 273 287> 323 94<287 287> 556 94<280 287 287 393> 708 100<235 385 291 329>
VStem: 64 98<407.5 471.5 407.5 489.5> 273 14<232 417> 398 98<177.5 241.5>
AnchorPoint: "Anchor-7" 365.873 808 basechar 0
AnchorPoint: "Anchor-5" 194.127 0 basechar 0
LayerCount: 2
Fore
SplineSet
35.126953125 0 m 1xbf
 55.107421875 94 l 1
 207.107421875 94 l 2
 286.107421875 94 342.735351562 144 356.9765625 211 c 0
 358.899680624 220.04765011 359.850676341 228.765308392 359.850676341 237.068136689 c 0
 359.850676341 284.743658571 328.494914368 318.741610665 269.783203125 323 c 1xbf
 250.440429688 232 l 1
 243.440429688 232 l 2
 121.031494839 232 65.7020835883 302.815337501 65.7020835883 389.162657692 c 0
 65.7020835883 404.3930052 67.4234683216 420.106577042 70.8017578125 436 c 0
 93.544921875 543 188.2890625 650 332.2890625 650 c 2
 445.2890625 650 l 1
 425.30859375 556 l 1
 319.30859375 556 l 2
 240.30859375 556 183.467773438 505 169.2265625 438 c 0
 167.337589109 429.112989838 166.407749932 420.544357597 166.407749932 412.374502319 c 0
 166.407749932 364.466873396 198.381123895 330.271556544 256.420898438 326 c 1xdf
 275.763671875 417 l 1
 282.763671875 417 l 2
 405.172372639 417 460.501100693 346.184933342 460.501100693 259.837837679 c 0
 460.501100693 244.607335525 458.779693305 228.893595271 455.401367188 213 c 0
 432.87109375 107 338.126953125 0 194.126953125 0 c 2
 35.126953125 0 l 1xbf
299.6171875 708 m 1
 376.873046875 808 l 1
 470.873046875 808 l 1
 393.6171875 708 l 1
 299.6171875 708 l 1
EndSplineSet
Validated: 1572865
EndChar

StartChar: Scaron
Encoding: 352 352 86
Width: 560
GlyphClass: 2
Flags: HMW
HStem: 0 94<121 273 121 273 273 280> 232 94<273 273 273 280 273 287> 323 94<287 287> 556 94<280 287 287 393> 716 91<155 289 155 271>
VStem: 64 98<407.5 471.5 407.5 489.5> 273 14<232 417> 398 98<177.5 241.5>
AnchorPoint: "Anchor-7" 364.278 800 basechar 0
AnchorPoint: "Anchor-5" 194.233 0 basechar 0
LayerCount: 2
Fore
SplineSet
35.2333984375 0 m 1xb7
 55.2138671875 94 l 1
 207.213867188 94 l 2
 286.213867188 94 342.841796875 144 357.083007812 211 c 0
 359.006125936 220.04765011 359.957121653 228.765308393 359.957121653 237.068136691 c 0
 359.957121653 284.743658571 328.601359681 318.741610665 269.889648438 323 c 1xbf
 250.546875 232 l 1
 243.546875 232 l 2
 121.137940151 232 65.8085289008 302.815337501 65.8085289008 389.162657692 c 0
 65.8085289008 404.3930052 67.5299136341 420.106577042 70.908203125 436 c 0
 93.6513671875 543 188.395507812 650 332.395507812 650 c 2
 445.395507812 650 l 1
 425.415039062 556 l 1
 319.415039062 556 l 2
 240.415039062 556 183.57421875 505 169.333007812 438 c 0
 167.444034421 429.112989838 166.514195244 420.544357597 166.514195244 412.374502319 c 0
 166.514195244 364.466873396 198.487569207 330.271556544 256.52734375 326 c 1xd7
 275.869140625 417 l 1
 282.869140625 417 l 2
 405.278075474 417 460.607486724 346.184662499 460.607486724 259.837342308 c 0
 460.607486724 244.6069948 458.886101991 228.893422958 455.5078125 213 c 0
 432.9765625 107 338.233398438 0 194.233398438 0 c 2
 35.2333984375 0 l 1xb7
240.766601562 807 m 1
 335.766601562 807 l 1
 360.240234375 781 l 1
 395.766601562 807 l 1
 490.766601562 807 l 1
 355.423828125 716 l 1
 337.423828125 716 l 1
 240.766601562 807 l 1
EndSplineSet
Validated: 1572865
EndChar

StartChar: Scedilla
Encoding: 350 350 87
Width: 560
GlyphClass: 2
Flags: HMW
HStem: -241 65<259 269 259 289.5> -108 65<259 269> 0 94<121 273 121 273 273 280> 232 94<273 273 273 280 273 287> 323 94<287 287> 556 94<280 287 287 393>
VStem: 64 98<407.5 471.5 407.5 489.5> 259 101<-241 -112.5 -176 -112.5 -171.5 -43 -171.5 -43> 273 14<232 417> 294 66<-152 -132> 398 98<177.5 241.5>
AnchorPoint: "Anchor-7" 374.694 650 basechar 0
AnchorPoint: "Anchor-5" 164.306 -241 basechar 0
LayerCount: 2
Fore
SplineSet
77.5322265625 0 m 1x2ea0
 97.5126953125 94 l 1
 249.512695312 94 l 2
 328.512695312 94 385.140625 144 399.381835938 211 c 0
 401.30495084 220.047634951 402.255946593 228.765279182 402.255946593 237.068094959 c 0
 402.255946593 284.743638732 370.900060091 318.741609422 312.1875 323 c 1x2ea0
 292.845703125 232 l 1
 285.845703125 232 l 2
 163.436768276 232 108.107357026 302.815337501 108.107357026 389.162657692 c 0
 108.107357026 404.3930052 109.828741759 420.106577042 113.20703125 436 c 0
 135.950195312 543 230.694335938 650 374.694335938 650 c 2
 487.694335938 650 l 1
 467.713867188 556 l 1
 361.713867188 556 l 2
 282.713867188 556 225.873046875 505 211.631835938 438 c 0
 209.742859479 429.112975407 208.81302035 420.544329768 208.81302035 412.374462519 c 0
 208.81302035 364.466854457 240.78627113 330.271555361 298.825195312 326 c 1x36a0
 318.16796875 417 l 1
 325.16796875 417 l 2
 447.576903599 417 502.906314849 346.184662499 502.906314849 259.837342308 c 0
 502.906314849 244.6069948 501.184930116 228.893422958 497.806640625 213 c 0
 475.275390625 107 380.532226562 0 236.532226562 0 c 2
 77.5322265625 0 l 1x2ea0
164.305664062 -241 m 1xef20
 178.122070312 -176 l 1xaf20
 198.122070312 -176 216.09765625 -162 220.349609375 -142 c 0x6e60
 220.924597172 -139.294796675 221.20182161 -136.699365225 221.20182161 -134.233502667 c 0
 221.20182161 -118.468849721 209.87096855 -108 192.576171875 -108 c 1
 206.392578125 -43 l 1
 258.493116984 -43 289.071295203 -72.1799639822 289.071295203 -117.455412932 c 0
 289.071295203 -125.189058445 288.179110856 -133.392324471 286.349609375 -142 c 0
 273.80859375 -201 225.305664062 -241 164.305664062 -241 c 1xef20
EndSplineSet
Validated: 1572865
Substitution2: "'locl' Localized Forms in Latin lookup 4 subtable" uni0218
Substitution2: "'aalt' Access All Alternates in Latin lookup 0 subtable" uni0218
EndChar

StartChar: uni0218
Encoding: 536 536 88
Width: 560
GlyphClass: 2
Flags: HMW
HStem: -208 154<170 311 170 311> 0 94<121 273 121 273 273 280> 232 94<273 273 273 280 273 287> 323 94<287 287> 556 94<280 287 287 393>
VStem: 64 98<407.5 471.5 407.5 489.5> 273 14<232 417> 398 98<177.5 241.5>
AnchorPoint: "Anchor-7" 371.187 650 basechar 0
AnchorPoint: "Anchor-5" 148.813 -208 basechar 0
LayerCount: 2
Fore
SplineSet
74.025390625 0 m 1x5f
 94.0048828125 94 l 1
 246.004882812 94 l 2
 325.004882812 94 381.6328125 144 395.874023438 211 c 0
 397.797389423 220.048134726 398.748507373 228.766242274 398.748507373 237.069470852 c 0
 398.748507373 284.744292841 367.392659346 318.741650387 308.680664062 323 c 1xdf
 289.337890625 232 l 1
 282.337890625 232 l 2
 159.928526292 232 104.599861944 302.815834427 104.599861944 389.163566567 c 0
 104.599861944 404.39363034 106.32114288 420.106893189 109.69921875 436 c 0
 132.443359375 543 227.186523438 650 371.186523438 650 c 2
 484.186523438 650 l 1
 464.206054688 556 l 1
 358.206054688 556 l 2
 279.206054688 556 222.366210938 505 208.125 438 c 0
 206.235990634 429.11282059 205.306131288 420.544031229 205.306131288 412.37403555 c 0
 205.306131288 364.466651283 237.278773328 330.271542671 295.318359375 326 c 1x6f
 314.661132812 417 l 1
 321.661132812 417 l 2
 444.070497145 417 499.399161494 346.184165572 499.399161494 259.836433432 c 0
 499.399161494 244.606369659 497.677880558 228.89310681 494.299804688 213 c 0
 471.768554688 107 377.025390625 0 233.025390625 0 c 2
 74.025390625 0 l 1x5f
78.8134765625 -208 m 1
 183.546875 -54 l 1
 252.546875 -54 l 1
 147.813476562 -208 l 1
 78.8134765625 -208 l 1
EndSplineSet
Validated: 1572865
EndChar

StartChar: uni1E9E
Encoding: 7838 7838 89
Width: 615
GlyphClass: 1
Flags: HMW
HStem: 0 94<104 345 290 345 290 345 345 349> 556 94<274 535 274 398>
VStem: 104 98<0 475 0 527.5> 468 97<186 249.5>
LayerCount: 2
Fore
SplineSet
323.100585938 556 m 2
 321.939637868 556.054536359 320.783252051 556.081561234 319.631836053 556.081561234 c 0
 278.557624367 556.081561234 243.807743485 521.691127382 233.883789062 475 c 2
 132.918945312 0 l 1
 34.9189453125 0 l 1
 135.883789062 475 l 2
 158.202148438 580 241.081054688 650 343.081054688 650 c 2
 604.081054688 650 l 1
 454.91796875 414 l 1
 512.535670553 386.831683816 547.157365717 331.196029725 547.157365717 263.275490454 c 0
 547.157365717 248.696334832 545.562181586 233.551156842 542.256835938 218 c 0
 516.32421875 96 400.918945312 0 279.918945312 0 c 2
 220.918945312 0 l 1
 240.899414062 94 l 1
 295.899414062 94 l 2
 372.899414062 94 431.65234375 154 445.256835938 218 c 0
 447.20770795 227.178431683 448.176387065 236.229510972 448.176387065 244.998622096 c 0
 448.176387065 296.419968327 414.867841122 338.145689392 350.975585938 339 c 2
 309.975585938 339 l 1
 447.100585938 556 l 1
 323.100585938 556 l 2
EndSplineSet
Validated: 524289
EndChar

StartChar: T
Encoding: 84 84 90
Width: 535
GlyphClass: 2
Flags: HMW
HStem: 556 94<50 485 50 219 317 317 317 485>
VStem: 50 267<0 650 0 650> 219 98<0 556 0 556> 219 266<0 650 556 650>
AnchorPoint: "Anchor-7" 337.081 650 basechar 0
AnchorPoint: "Anchor-5" 198.919 0 basechar 0
LayerCount: 2
Fore
SplineSet
99.1005859375 556 m 1xc0
 119.081054688 650 l 1xc0
 554.081054688 650 l 1
 534.100585938 556 l 1x90
 366.100585938 556 l 1
 247.918945312 0 l 1
 149.918945312 0 l 1
 268.100585938 556 l 1xa0
 99.1005859375 556 l 1xc0
EndSplineSet
Validated: 1572865
EndChar

StartChar: Tbar
Encoding: 358 358 91
Width: 535
GlyphClass: 2
Flags: HMW
HStem: 235 82<113 219 113 219 317 423> 556 94<50 219 50 485 317 317 317 485>
VStem: 113 204<0 317 0 317> 219 98<0 235 0 235 317 556> 219 204<0 317 235 317 235 556>
AnchorPoint: "Anchor-7" 337.081 650 basechar 0
AnchorPoint: "Anchor-5" 198.919 0 basechar 0
LayerCount: 2
Fore
SplineSet
111.299804688 317 m 1xe0
 217.299804688 317 l 1
 268.100585938 556 l 1
 99.1005859375 556 l 1
 119.081054688 650 l 1
 554.081054688 650 l 1
 534.100585938 556 l 1
 366.100585938 556 l 1
 315.299804688 317 l 1xd0
 421.299804688 317 l 1
 403.870117188 235 l 1xc8
 297.870117188 235 l 1
 247.918945312 0 l 1
 149.918945312 0 l 1
 199.870117188 235 l 1xd0
 93.8701171875 235 l 1
 111.299804688 317 l 1xe0
EndSplineSet
Validated: 1572865
EndChar

StartChar: Tcaron
Encoding: 356 356 92
Width: 535
GlyphClass: 2
Flags: HMW
HStem: 556 94<50 485 50 219 317 317 317 485> 556 251<50 238 143 219 317 317 317 393 143 485> 716 91<143 277 143 259>
VStem: 50 267<0 650 0 650> 219 98<0 556 0 556> 219 266<0 650 556 650>
AnchorPoint: "Anchor-7" 352.278 800 basechar 0
AnchorPoint: "Anchor-5" 182.233 0 basechar 0
LayerCount: 2
Fore
SplineSet
82.4150390625 556 m 1x90
 102.395507812 650 l 1x90
 537.395507812 650 l 1
 517.415039062 556 l 1x84
 349.415039062 556 l 1
 231.233398438 0 l 1
 133.233398438 0 l 1
 251.415039062 556 l 1x88
 82.4150390625 556 l 1x90
228.766601562 807 m 1x50
 323.766601562 807 l 1
 348.240234375 781 l 1
 383.766601562 807 l 1
 478.766601562 807 l 1x48
 343.423828125 716 l 1
 325.423828125 716 l 1xb0
 228.766601562 807 l 1x50
EndSplineSet
Validated: 1572865
EndChar

StartChar: uni0162
Encoding: 354 354 93
Width: 535
GlyphClass: 2
Flags: HMW
HStem: -241 65<247 257 247 277.5> -108 65<247 257> 556 94<50 485 50 219 317 317 317 485>
VStem: 50 267<0 650 0 650> 219 98<0 556 0 556> 219 266<0 650 556 650> 247 70<-108 556 -43 556> 247 101<-241 -112.5 -176 -112.5 -171.5 -43 -171.5 -43> 282 66<-152 -132>
AnchorPoint: "Anchor-7" 362.694 650 basechar 0
AnchorPoint: "Anchor-5" 152.306 -241 basechar 0
LayerCount: 2
Fore
SplineSet
124.713867188 556 m 1x30
 144.694335938 650 l 1x30
 579.694335938 650 l 1
 559.713867188 556 l 1x24
 391.713867188 556 l 1
 273.532226562 0 l 1
 175.532226562 0 l 1
 293.713867188 556 l 1x28
 124.713867188 556 l 1x30
152.305664062 -241 m 1xa1
 166.122070312 -176 l 1xa1
 186.122070312 -176 204.09765625 -162 208.349609375 -142 c 0x6080
 208.924597172 -139.294796675 209.20182161 -136.699365225 209.20182161 -134.233502667 c 0
 209.20182161 -118.468849721 197.87096855 -108 180.576171875 -108 c 1
 194.392578125 -43 l 1x62
 246.493116984 -43 277.071295203 -72.1799639822 277.071295203 -117.455412932 c 0
 277.071295203 -125.189058445 276.179110856 -133.392324471 274.349609375 -142 c 0
 261.80859375 -201 213.305664062 -241 152.305664062 -241 c 1xa1
EndSplineSet
Validated: 1572865
Substitution2: "'locl' Localized Forms in Latin lookup 4 subtable" uni021A
Substitution2: "'aalt' Access All Alternates in Latin lookup 0 subtable" uni021A
EndChar

StartChar: uni021A
Encoding: 538 538 94
Width: 535
GlyphClass: 2
Flags: HMW
HStem: -208 154<158 299 158 299> 556 94<50 485 50 219 317 317 317 485>
VStem: 50 267<0 650 0 650> 219 98<0 556 0 556> 219 266<0 650 556 650>
AnchorPoint: "Anchor-7" 359.187 650 basechar 0
AnchorPoint: "Anchor-5" 136.813 -208 basechar 0
LayerCount: 2
Fore
SplineSet
121.206054688 556 m 1x60
 141.186523438 650 l 1xe0
 576.186523438 650 l 1
 556.206054688 556 l 1x48
 388.206054688 556 l 1
 270.025390625 0 l 1
 172.025390625 0 l 1
 290.206054688 556 l 1x50
 121.206054688 556 l 1x60
66.8134765625 -208 m 1
 171.546875 -54 l 1
 240.546875 -54 l 1
 135.813476562 -208 l 1
 66.8134765625 -208 l 1
EndSplineSet
Validated: 1572865
EndChar

StartChar: U
Encoding: 85 85 95
Width: 690
GlyphClass: 2
Flags: HMW
HStem: -14 95<301.5 388.5 301.5 416.5>
VStem: 104 98<217 225 225 650> 488 98<225 650>
AnchorPoint: "Anchor-7" 415.568 650 basechar 0
AnchorPoint: "Anchor-6" 329.407 0 basechar 0
AnchorPoint: "Anchor-5" 277.407 0 basechar 0
LayerCount: 2
Fore
SplineSet
294.624023438 81 m 0
 381.624023438 81 449.740234375 138 468.232421875 225 c 2
 558.568359375 650 l 1
 656.568359375 650 l 1
 564.532226562 217 l 2
 534.561523438 76 417.431640625 -14 274.431640625 -14 c 0
 151.710756641 -14 76.2206747748 52.2837978841 76.2206747748 160.201677682 c 0
 76.2206747748 178.034658781 78.2820212077 197.004507985 82.5322265625 217 c 2
 174.568359375 650 l 1
 272.568359375 650 l 1
 182.232421875 225 l 2
 179.425518012 211.794388922 178.055743495 199.279971518 178.055743495 187.551171597 c 0
 178.055743495 122.00936381 220.829634516 81 294.624023438 81 c 0
EndSplineSet
Validated: 524289
EndChar

StartChar: Uacute
Encoding: 218 218 96
Width: 690
GlyphClass: 2
Flags: HMW
HStem: -14 95<301.5 388.5 301.5 416.5> 708 100<300 450 356 394>
VStem: 104 98<217 225 225 650> 488 98<225 650>
AnchorPoint: "Anchor-7" 432.36 808 basechar 0
AnchorPoint: "Anchor-6" 312.615 0 basechar 0
AnchorPoint: "Anchor-5" 260.615 0 basechar 0
LayerCount: 2
Fore
SplineSet
277.83203125 81 m 0
 364.83203125 81 432.948242188 138 451.440429688 225 c 2
 541.776367188 650 l 1
 639.776367188 650 l 1
 547.740234375 217 l 2
 517.76953125 76 400.639648438 -14 257.639648438 -14 c 0
 134.918764453 -14 59.4286825873 52.2837978842 59.4286825873 160.201677682 c 0
 59.4286825873 178.034658782 61.4900290202 197.004507985 65.740234375 217 c 2
 157.776367188 650 l 1
 255.776367188 650 l 1
 165.440429688 225 l 2
 162.633525825 211.794388922 161.263751308 199.279971518 161.263751308 187.551171597 c 0
 161.263751308 122.009363809 204.037642328 81 277.83203125 81 c 0
366.10546875 708 m 1
 443.360351562 808 l 1
 537.360351562 808 l 1
 460.10546875 708 l 1
 366.10546875 708 l 1
EndSplineSet
Validated: 524289
EndChar

StartChar: Ucircumflex
Encoding: 219 219 97
Width: 690
GlyphClass: 2
Flags: HMW
HStem: -14 95<301.5 388.5 301.5 416.5> 709 91<220 354 336 375 336 470>
VStem: 104 98<217 225 225 650> 488 98<225 650>
AnchorPoint: "Anchor-7" 431.511 800 basechar 0
AnchorPoint: "Anchor-6" 313.465 0 basechar 0
AnchorPoint: "Anchor-5" 261.465 0 basechar 0
LayerCount: 2
Fore
SplineSet
278.682617188 81 m 0
 365.682617188 81 433.797851562 138 452.290039062 225 c 2
 542.626953125 650 l 1
 640.626953125 650 l 1
 548.58984375 217 l 2
 518.619140625 76 401.489257812 -14 258.489257812 -14 c 0
 135.768373828 -14 60.2782919623 52.283797884 60.2782919623 160.201677682 c 0
 60.2782919623 178.034658781 62.3396383952 197.004507985 66.58984375 217 c 2
 158.626953125 650 l 1
 256.626953125 650 l 1
 166.290039062 225 l 2
 163.483174306 211.794572909 162.113421351 199.280320233 162.113421351 187.551661832 c 0
 162.113421351 122.009568302 204.888044279 81 278.682617188 81 c 0
287.16796875 709 m 1
 422.510742188 800 l 1
 440.510742188 800 l 1
 537.16796875 709 l 1
 442.16796875 709 l 1
 417.694335938 735 l 1
 382.16796875 709 l 1
 287.16796875 709 l 1
EndSplineSet
Validated: 524289
EndChar

StartChar: Udieresis
Encoding: 220 220 98
Width: 690
GlyphClass: 2
Flags: HMW
HStem: -14 95<301.5 388.5 301.5 416.5> 717 104<250.5 279.5 410.5 439.5>
VStem: 104 98<217 225 225 650> 213 104<754.5 783.5> 373 104<754.5 783.5> 488 98<225 650>
AnchorPoint: "Anchor-7" 435.442 829 basechar 0
AnchorPoint: "Anchor-6" 311.233 0 basechar 0
AnchorPoint: "Anchor-5" 259.233 0 basechar 0
LayerCount: 2
Fore
SplineSet
276.450195312 81 m 0
 363.450195312 81 431.56640625 138 450.05859375 225 c 2
 540.395507812 650 l 1
 638.395507812 650 l 1
 546.358398438 217 l 2
 516.387695312 76 399.2578125 -14 256.2578125 -14 c 0
 133.536928516 -14 58.0468466498 52.2837978841 58.0468466498 160.201677682 c 0
 58.0468466498 178.034658781 60.1081930827 197.004507985 64.3583984375 217 c 2
 156.395507812 650 l 1
 254.395507812 650 l 1
 164.05859375 225 l 2
 161.251689887 211.794388922 159.88191537 199.279971518 159.88191537 187.551171597 c 0
 159.88191537 122.009363809 202.65580639 81 276.450195312 81 c 0
290.689453125 769 m 0xfc
 296.853515625 798 324.7421875 821 353.7421875 821 c 0
 378.921524731 821 395.892292004 803.661144426 395.892292004 780.110682391 c 0
 395.892292004 776.537181918 395.501549818 772.820662769 394.689453125 769 c 0
 388.525390625 740 360.63671875 717 331.63671875 717 c 0
 306.457381519 717 289.486614246 734.338855574 289.486614246 757.889317609 c 0
 289.486614246 761.462818082 289.877356432 765.179337231 290.689453125 769 c 0xfc
450.689453125 769 m 0
 456.853515625 798 484.7421875 821 513.7421875 821 c 0
 538.921524731 821 555.892292004 803.661144426 555.892292004 780.110682391 c 0
 555.892292004 776.537181918 555.501549818 772.820662769 554.689453125 769 c 0
 548.525390625 740 520.63671875 717 491.63671875 717 c 0
 466.457381519 717 449.486614246 734.338855574 449.486614246 757.889317609 c 0
 449.486614246 761.462818082 449.877356432 765.179337231 450.689453125 769 c 0
EndSplineSet
Validated: 524289
EndChar

StartChar: Ugrave
Encoding: 217 217 99
Width: 690
GlyphClass: 2
Flags: HMW
HStem: -14 95<301.5 388.5 301.5 416.5> 708 100<296 334 240 390 296 296>
VStem: 104 98<217 225 225 650> 488 98<225 650>
AnchorPoint: "Anchor-7" 432.36 808 basechar 0
AnchorPoint: "Anchor-6" 312.615 0 basechar 0
AnchorPoint: "Anchor-5" 260.615 0 basechar 0
LayerCount: 2
Fore
SplineSet
277.83203125 81 m 0
 364.83203125 81 432.948242188 138 451.440429688 225 c 2
 541.776367188 650 l 1
 639.776367188 650 l 1
 547.740234375 217 l 2
 517.76953125 76 400.639648438 -14 257.639648438 -14 c 0
 134.918764453 -14 59.4286825873 52.2837978842 59.4286825873 160.201677682 c 0
 59.4286825873 178.034658782 61.4900290202 197.004507985 65.740234375 217 c 2
 157.776367188 650 l 1
 255.776367188 650 l 1
 165.440429688 225 l 2
 162.633525825 211.794388922 161.263751308 199.279971518 161.263751308 187.551171597 c 0
 161.263751308 122.009363809 204.037642328 81 277.83203125 81 c 0
327.360351562 808 m 1
 421.360351562 808 l 1
 456.10546875 708 l 1
 362.10546875 708 l 1
 327.360351562 808 l 1
EndSplineSet
Validated: 524289
EndChar

StartChar: Uhungarumlaut
Encoding: 368 368 100
Width: 690
GlyphClass: 2
Flags: HMW
HStem: -14 95<301.5 388.5 301.5 416.5> 708 180<218 351 274 295 455 476 274 399>
VStem: 104 98<217 225 225 650> 488 98<225 650>
AnchorPoint: "Anchor-7" 440.863 888 basechar 0
AnchorPoint: "Anchor-6" 304.112 0 basechar 0
AnchorPoint: "Anchor-5" 252.112 0 basechar 0
LayerCount: 2
Fore
SplineSet
269.330078125 81 m 0
 356.330078125 81 424.4453125 138 442.938476562 225 c 2
 533.274414062 650 l 1
 631.274414062 650 l 1
 539.237304688 217 l 2
 509.266601562 76 392.13671875 -14 249.13671875 -14 c 0
 126.415834766 -14 50.9257528998 52.2837978841 50.9257528998 160.201677682 c 0
 50.9257528998 178.034658781 52.9870993327 197.004507985 57.2373046875 217 c 2
 149.274414062 650 l 1
 247.274414062 650 l 1
 156.938476562 225 l 2
 154.131354305 211.794058844 152.76147824 199.279345916 152.76147824 187.550292105 c 0
 152.76147824 122.008996945 195.536019281 81 269.330078125 81 c 0
275.602539062 708 m 1
 369.86328125 888 l 1
 446.86328125 888 l 1
 352.602539062 708 l 1
 275.602539062 708 l 1
456.602539062 708 m 1
 550.86328125 888 l 1
 627.86328125 888 l 1
 533.602539062 708 l 1
 456.602539062 708 l 1
EndSplineSet
Validated: 524289
EndChar

StartChar: Umacron
Encoding: 362 362 101
Width: 690
GlyphClass: 2
Flags: HMW
HStem: -14 95<301.5 388.5 301.5 416.5> 735 66<180 510 180 510>
VStem: 104 98<217 225 225 650> 180 22 488 22 488 98<225 650>
AnchorPoint: "Anchor-7" 431.617 801 basechar 0
AnchorPoint: "Anchor-6" 313.359 0 basechar 0
AnchorPoint: "Anchor-5" 261.359 0 basechar 0
LayerCount: 2
Fore
SplineSet
278.576171875 81 m 0xe4
 365.576171875 81 433.69140625 138 452.184570312 225 c 2
 542.520507812 650 l 1
 640.520507812 650 l 1
 548.483398438 217 l 2
 518.513671875 76 401.3828125 -14 258.3828125 -14 c 0
 135.661592617 -14 60.1721526324 52.2841607346 60.1721526324 160.202563827 c 0
 60.1721526324 178.035287206 62.2334019681 197.004839185 66.4833984375 217 c 2
 158.520507812 650 l 1
 256.520507812 650 l 1
 166.184570312 225 l 2
 163.377448055 211.794058844 162.00757199 199.279345916 162.00757199 187.550292105 c 0
 162.00757199 122.008996945 204.782113031 81 278.576171875 81 c 0xe4
252.587890625 735 m 1xd8
 266.6171875 801 l 1
 596.6171875 801 l 1
 582.587890625 735 l 1
 252.587890625 735 l 1xd8
EndSplineSet
Validated: 524289
EndChar

StartChar: Uogonek
Encoding: 370 370 102
Width: 690
GlyphClass: 2
Flags: HMW
HStem: -200 66<369 501 369 501> -14 95<301.5 345 345 357>
VStem: 104 98<217 225 225 650> 488 98<225 650>
AnchorPoint: "Anchor-7" 435.337 650 basechar 0
AnchorPoint: "Anchor-6" 349.175 0 basechar 0
AnchorPoint: "Anchor-5" 297.175 0 basechar 0
LayerCount: 2
Fore
SplineSet
314.391601562 81 m 0
 401.391601562 81 469.5078125 138 488 225 c 2
 578.336914062 650 l 1
 676.336914062 650 l 1
 584.299804688 217 l 2
 560.91796875 107 483.9140625 27 382.75 -2 c 1
 292.692382812 -134 l 1
 424.692382812 -134 l 1
 410.663085938 -200 l 1
 178.663085938 -200 l 1
 306.19921875 -14 l 1
 294.19921875 -14 l 2
 171.478334766 -14 95.9882529001 52.2837978839 95.9882529001 160.201677681 c 0
 95.9882529001 178.034658781 98.049599333 197.004507984 102.299804688 217 c 2
 194.336914062 650 l 1
 292.336914062 650 l 1
 202 225 l 2
 199.193096137 211.794388922 197.82332162 199.279971518 197.82332162 187.551171597 c 0
 197.82332162 122.009363809 240.59721264 81 314.391601562 81 c 0
EndSplineSet
Validated: 524289
EndChar

StartChar: Uring
Encoding: 366 366 103
Width: 690
GlyphClass: 2
Flags: HMW
HStem: -14 95<301.5 388.5 301.5 416.5> 698 43<333.5 356 333.5 368> 823 43<333.5 356>
VStem: 104 98<217 225 225 650> 261 43<770.5 793 770.5 805.5> 386 43<770.5 793> 488 98<225 650>
AnchorPoint: "Anchor-7" 438.312 865 basechar 0
AnchorPoint: "Anchor-6" 306.451 0 basechar 0
AnchorPoint: "Anchor-5" 254.451 0 basechar 0
LayerCount: 2
Fore
SplineSet
271.66796875 81 m 0
 358.66796875 81 426.784179688 138 445.276367188 225 c 2
 535.612304688 650 l 1
 633.612304688 650 l 1
 541.575195312 217 l 2
 511.60546875 76 394.475585938 -14 251.475585938 -14 c 0
 128.754200248 -14 53.2640028531 52.2843398464 53.2640028531 160.20300125 c 0
 53.2640028531 178.035597411 55.3252335927 197.005002674 59.5751953125 217 c 2
 151.612304688 650 l 1
 249.612304688 650 l 1
 159.276367188 225 l 2
 156.469463325 211.794388922 155.099688808 199.279971518 155.099688808 187.551171597 c 0
 155.099688808 122.009363809 197.873579828 81 271.66796875 81 c 0
336.669921875 782 m 0
 346.66015625 829 391.524414062 866 438.524414062 866 c 0
 478.564626989 866 506.585050686 837.966403546 506.585050686 799.70574508 c 0
 506.585050686 794.010835862 505.96426252 788.089347661 504.669921875 782 c 0
 494.6796875 735 448.815429688 698 402.815429688 698 c 0
 362.039775582 698 334.710060422 725.848889456 334.710060422 763.915828541 c 0
 334.710060422 769.72669292 335.346886251 775.775654106 336.669921875 782 c 0
379.669921875 782 m 0
 379.019850409 778.941573478 378.706849087 775.971558797 378.706849087 773.12052304 c 0
 378.706849087 754.531180246 392.013504647 741 411.955078125 741 c 0
 433.955078125 741 456.78125 759 461.669921875 782 c 0
 462.249854565 784.72806925 462.527807705 787.410008157 462.527807705 790.015308416 c 0
 462.527807705 808.419960781 448.656696375 823 429.384765625 823 c 0
 406.384765625 823 384.346679688 804 379.669921875 782 c 0
EndSplineSet
Validated: 524289
EndChar

StartChar: Utilde
Encoding: 360 360 104
Width: 690
GlyphClass: 2
Flags: HMW
HStem: -14 95<301.5 388.5 301.5 416.5> 704 58<380.5 411 380.5 426> 755 58<283 309>
VStem: 104 98<217 225 225 650> 203 58<709 721.5 709 738.5> 434 58<794 808> 488 98<225 650>
AnchorPoint: "Anchor-7" 432.68 812 basechar 0
AnchorPoint: "Anchor-6" 312.084 0 basechar 0
AnchorPoint: "Anchor-5" 260.084 0 basechar 0
LayerCount: 2
Fore
SplineSet
277.30078125 81 m 0xd2
 364.30078125 81 432.416015625 138 450.909179688 225 c 2
 541.245117188 650 l 1
 639.245117188 650 l 1
 547.208007812 217 l 2
 517.23828125 76 400.107421875 -14 257.107421875 -14 c 0
 134.386201992 -14 58.8967620074 52.2841607346 58.8967620074 160.202563827 c 0
 58.8967620074 178.035287206 60.9580113431 197.004839185 65.2080078125 217 c 2
 157.245117188 650 l 1
 255.245117188 650 l 1
 164.909179688 225 l 2
 162.10205743 211.794058844 160.732181365 199.279345915 160.732181365 187.550292103 c 0
 160.732181365 122.008996945 203.506722406 81 277.30078125 81 c 0xd2
268.786132812 709 m 1xac
 281.327148438 768 329.892578125 813 380.892578125 813 c 0
 428.892578125 813 437.051757812 762 478.051757812 762 c 0
 498.051757812 762 514.877929688 780 520.829101562 808 c 1
 578.829101562 808 l 1xcc
 566.076171875 748 515.723632812 704 465.723632812 704 c 0
 414.723632812 704 400.563476562 755 368.563476562 755 c 0
 348.563476562 755 332.100585938 734 326.786132812 709 c 1
 268.786132812 709 l 1xac
EndSplineSet
Validated: 524289
EndChar

StartChar: V
Encoding: 86 86 105
Width: 640
GlyphClass: 2
Flags: HMW
HStem: 0 85<320 330 320 396 252 330>
VStem: 50 540<650 650>
AnchorPoint: "Anchor-7" 388.868 649 basechar 0
AnchorPoint: "Anchor-5" 250.919 0 basechar 0
LayerCount: 2
Fore
SplineSet
659.081054688 650 m 1
 326.918945312 0 l 1
 182.918945312 0 l 1
 119.081054688 650 l 1
 218.081054688 650 l 1
 268.986328125 85 l 1
 278.986328125 85 l 1
 565.081054688 650 l 1
 659.081054688 650 l 1
EndSplineSet
Validated: 1572865
EndChar

StartChar: W
Encoding: 87 87 106
Width: 880
GlyphClass: 2
Flags: HMW
HStem: 0 85<259 332 323 332 323 388 557 566>
VStem: 50 780<650 650>
AnchorPoint: "Anchor-7" 509.081 650 basechar 0
AnchorPoint: "Anchor-5" 370.919 0 basechar 0
LayerCount: 2
Fore
SplineSet
189.918945312 0 m 1
 119.081054688 650 l 1
 217.081054688 650 l 1
 271.986328125 85 l 1
 280.986328125 85 l 1
 394.9609375 306 l 1
 355.081054688 650 l 1
 450.081054688 650 l 1
 469.782226562 451 l 1
 572.081054688 650 l 1
 663.081054688 650 l 1
 484.024414062 311 l 1
 505.986328125 85 l 1
 514.986328125 85 l 1
 805.081054688 650 l 1
 899.081054688 650 l 1
 558.918945312 0 l 1
 429.918945312 0 l 1
 410.478515625 172 l 1
 318.918945312 0 l 1
 189.918945312 0 l 1
EndSplineSet
Validated: 1572865
Substitution2: "'ss03' Style Set 3 in Latin lookup 11 subtable" W.ss03
Substitution2: "'aalt' Access All Alternates in Latin lookup 0 subtable" W.ss03
EndChar

StartChar: Wacute
Encoding: 7810 7810 107
Width: 880
GlyphClass: 2
Flags: HMW
HStem: 0 85<259 332 323 332 323 388 557 566> 708 100<395 545 451 489>
VStem: 50 780<650 650>
AnchorPoint: "Anchor-7" 525.873 808 basechar 0
AnchorPoint: "Anchor-5" 354.127 0 basechar 0
LayerCount: 2
Fore
SplineSet
173.126953125 0 m 1
 102.2890625 650 l 1
 200.2890625 650 l 1
 255.194335938 85 l 1
 264.194335938 85 l 1
 378.169921875 306 l 1
 338.2890625 650 l 1
 433.2890625 650 l 1
 452.990234375 451 l 1
 555.2890625 650 l 1
 646.2890625 650 l 1
 467.232421875 311 l 1
 489.194335938 85 l 1
 498.194335938 85 l 1
 788.2890625 650 l 1
 882.2890625 650 l 1
 542.126953125 0 l 1
 413.126953125 0 l 1
 393.686523438 172 l 1
 302.126953125 0 l 1
 173.126953125 0 l 1
459.6171875 708 m 1
 536.873046875 808 l 1
 630.873046875 808 l 1
 553.6171875 708 l 1
 459.6171875 708 l 1
EndSplineSet
Validated: 1572865
Substitution2: "'ss03' Style Set 3 in Latin lookup 11 subtable" Wacute.ss03
Substitution2: "'aalt' Access All Alternates in Latin lookup 0 subtable" Wacute.ss03
EndChar

StartChar: Wcircumflex
Encoding: 372 372 108
Width: 880
GlyphClass: 2
Flags: HMW
HStem: 0 85<259 332 323 332 323 388 557 566> 709 91<315 449 431 470 431 565>
VStem: 50 780<650 650>
AnchorPoint: "Anchor-7" 525.022 800 basechar 0
AnchorPoint: "Anchor-5" 354.978 0 basechar 0
LayerCount: 2
Fore
SplineSet
173.977539062 0 m 1
 103.138671875 650 l 1
 201.138671875 650 l 1
 256.044921875 85 l 1
 265.044921875 85 l 1
 379.01953125 306 l 1
 339.138671875 650 l 1
 434.138671875 650 l 1
 453.840820312 451 l 1
 556.138671875 650 l 1
 647.138671875 650 l 1
 468.08203125 311 l 1
 490.044921875 85 l 1
 499.044921875 85 l 1
 789.138671875 650 l 1
 883.138671875 650 l 1
 542.977539062 0 l 1
 413.977539062 0 l 1
 394.537109375 172 l 1
 302.977539062 0 l 1
 173.977539062 0 l 1
380.6796875 709 m 1
 516.022460938 800 l 1
 534.022460938 800 l 1
 630.6796875 709 l 1
 535.6796875 709 l 1
 511.206054688 735 l 1
 475.6796875 709 l 1
 380.6796875 709 l 1
EndSplineSet
Validated: 1572865
Substitution2: "'ss03' Style Set 3 in Latin lookup 11 subtable" Wcircumflex.ss03
Substitution2: "'aalt' Access All Alternates in Latin lookup 0 subtable" Wcircumflex.ss03
EndChar

StartChar: Wdieresis
Encoding: 7812 7812 109
Width: 880
GlyphClass: 2
Flags: HMW
HStem: 0 85<259 332 323 332 323 388 557 566> 717 104<345.5 374.5 505.5 534.5>
VStem: 308 104<754.5 783.5> 468 104<754.5 783.5>
AnchorPoint: "Anchor-7" 528.955 829 basechar 0
AnchorPoint: "Anchor-5" 352.745 0 basechar 0
LayerCount: 2
Fore
SplineSet
171.745117188 0 m 1
 100.907226562 650 l 1
 198.907226562 650 l 1
 253.8125 85 l 1
 262.8125 85 l 1
 376.788085938 306 l 1
 336.907226562 650 l 1
 431.907226562 650 l 1
 451.608398438 451 l 1
 553.907226562 650 l 1
 644.907226562 650 l 1
 465.850585938 311 l 1
 487.8125 85 l 1
 496.8125 85 l 1
 786.907226562 650 l 1
 880.907226562 650 l 1
 540.745117188 0 l 1
 411.745117188 0 l 1
 392.305664062 172 l 1
 300.745117188 0 l 1
 171.745117188 0 l 1
384.201171875 769 m 0
 390.365234375 798 418.254882812 821 447.254882812 821 c 0
 472.434076133 821 489.404057141 803.661342622 489.404057141 780.111086191 c 0
 489.404057141 776.537461893 489.013299157 772.820806679 488.201171875 769 c 0
 482.037109375 740 454.1484375 717 425.1484375 717 c 0
 399.969100269 717 382.998332996 734.338855574 382.998332996 757.889317609 c 0
 382.998332996 761.462818082 383.389075182 765.179337231 384.201171875 769 c 0
544.201171875 769 m 0
 550.365234375 798 578.254882812 821 607.254882812 821 c 0
 632.434076133 821 649.404057141 803.661342622 649.404057141 780.111086191 c 0
 649.404057141 776.537461893 649.013299157 772.820806679 648.201171875 769 c 0
 642.037109375 740 614.1484375 717 585.1484375 717 c 0
 559.969100269 717 542.998332996 734.338855574 542.998332996 757.889317609 c 0
 542.998332996 761.462818082 543.389075182 765.179337231 544.201171875 769 c 0
EndSplineSet
Validated: 1572865
Substitution2: "'ss03' Style Set 3 in Latin lookup 11 subtable" Wdieresis.ss03
Substitution2: "'aalt' Access All Alternates in Latin lookup 0 subtable" Wdieresis.ss03
EndChar

StartChar: Wgrave
Encoding: 7808 7808 110
Width: 880
GlyphClass: 2
Flags: HMW
HStem: 0 85<259 332 323 332 323 388 557 566> 708 100<391 429 335 485 391 391>
VStem: 50 780<650 650>
AnchorPoint: "Anchor-7" 525.873 808 basechar 0
AnchorPoint: "Anchor-5" 354.127 0 basechar 0
LayerCount: 2
Fore
SplineSet
173.126953125 0 m 1
 102.2890625 650 l 1
 200.2890625 650 l 1
 255.194335938 85 l 1
 264.194335938 85 l 1
 378.169921875 306 l 1
 338.2890625 650 l 1
 433.2890625 650 l 1
 452.990234375 451 l 1
 555.2890625 650 l 1
 646.2890625 650 l 1
 467.232421875 311 l 1
 489.194335938 85 l 1
 498.194335938 85 l 1
 788.2890625 650 l 1
 882.2890625 650 l 1
 542.126953125 0 l 1
 413.126953125 0 l 1
 393.686523438 172 l 1
 302.126953125 0 l 1
 173.126953125 0 l 1
420.873046875 808 m 1
 514.873046875 808 l 1
 549.6171875 708 l 1
 455.6171875 708 l 1
 420.873046875 808 l 1
EndSplineSet
Validated: 1572865
Substitution2: "'ss03' Style Set 3 in Latin lookup 11 subtable" Wgrave.ss03
Substitution2: "'aalt' Access All Alternates in Latin lookup 0 subtable" Wgrave.ss03
EndChar

StartChar: X
Encoding: 88 88 111
Width: 538
GlyphClass: 2
Flags: HMW
HStem: 0 650<50 150 50 150 50 389 389 488>
VStem: 50 438<0 0>
AnchorPoint: "Anchor-7" 338.081 650 basechar 0
AnchorPoint: "Anchor-5" 199.919 0 basechar 0
LayerCount: 2
Fore
SplineSet
-19.0810546875 0 m 1
 215 325 l 1
 119.081054688 650 l 1
 219.081054688 650 l 1
 287.767578125 418 l 1
 458.081054688 650 l 1
 557.081054688 650 l 1
 321.850585938 329 l 1
 418.918945312 0 l 1
 319.918945312 0 l 1
 249.870117188 235 l 1
 80.9189453125 0 l 1
 -19.0810546875 0 l 1
EndSplineSet
Validated: 1572865
EndChar

StartChar: Y
Encoding: 89 89 112
Width: 517
GlyphClass: 2
Flags: HMW
HStem: 0 650<40 210 40 308>
VStem: 210 98<0 315 0 315>
AnchorPoint: "Anchor-7" 328.081 650 basechar 0
AnchorPoint: "Anchor-5" 189.919 0 basechar 0
LayerCount: 2
Fore
SplineSet
140.918945312 0 m 1
 207.874023438 315 l 1
 201.874023438 315 l 1
 109.081054688 650 l 1
 208.081054688 650 l 1
 273.555664062 417 l 1
 283.555664062 417 l 1
 447.081054688 650 l 1
 546.081054688 650 l 1
 311.874023438 315 l 1
 305.874023438 315 l 1
 238.918945312 0 l 1
 140.918945312 0 l 1
EndSplineSet
Validated: 1572865
EndChar

StartChar: Yacute
Encoding: 221 221 113
Width: 517
GlyphClass: 2
Flags: HMW
HStem: 708 100<214 364 270 308>
VStem: 210 98<0 315 0 315>
AnchorPoint: "Anchor-7" 344.873 808 basechar 0
AnchorPoint: "Anchor-5" 173.127 0 basechar 0
LayerCount: 2
Fore
SplineSet
124.126953125 0 m 1
 191.08203125 315 l 1
 185.08203125 315 l 1
 92.2890625 650 l 1
 191.2890625 650 l 1
 256.763671875 417 l 1
 266.763671875 417 l 1
 430.2890625 650 l 1
 529.2890625 650 l 1
 295.08203125 315 l 1
 289.08203125 315 l 1
 222.126953125 0 l 1
 124.126953125 0 l 1
278.6171875 708 m 1
 355.873046875 808 l 1
 449.873046875 808 l 1
 372.6171875 708 l 1
 278.6171875 708 l 1
EndSplineSet
Validated: 1572865
EndChar

StartChar: Ycircumflex
Encoding: 374 374 114
Width: 517
GlyphClass: 2
Flags: HMW
HStem: 709 91<134 268 250 289 250 384>
VStem: 210 98<0 315 0 315>
AnchorPoint: "Anchor-7" 344.022 800 basechar 0
AnchorPoint: "Anchor-5" 173.978 0 basechar 0
LayerCount: 2
Fore
SplineSet
124.977539062 0 m 1
 191.932617188 315 l 1
 185.932617188 315 l 1
 93.138671875 650 l 1
 192.138671875 650 l 1
 257.61328125 417 l 1
 267.61328125 417 l 1
 431.138671875 650 l 1
 530.138671875 650 l 1
 295.932617188 315 l 1
 289.932617188 315 l 1
 222.977539062 0 l 1
 124.977539062 0 l 1
199.6796875 709 m 1
 335.022460938 800 l 1
 353.022460938 800 l 1
 449.6796875 709 l 1
 354.6796875 709 l 1
 330.206054688 735 l 1
 294.6796875 709 l 1
 199.6796875 709 l 1
EndSplineSet
Validated: 1572865
EndChar

StartChar: Ydieresis
Encoding: 376 376 115
Width: 517
GlyphClass: 2
Flags: HMW
HStem: 717 104<164.5 193.5 324.5 353.5>
VStem: 127 104<754.5 783.5> 210 98<0 315 0 315> 287 104<754.5 783.5>
AnchorPoint: "Anchor-7" 347.955 829 basechar 0
AnchorPoint: "Anchor-5" 171.745 0 basechar 0
LayerCount: 2
Fore
SplineSet
122.745117188 0 m 1xa0
 189.701171875 315 l 1
 183.701171875 315 l 1
 90.9072265625 650 l 1
 189.907226562 650 l 1
 255.381835938 417 l 1
 265.381835938 417 l 1
 428.907226562 650 l 1
 527.907226562 650 l 1
 293.701171875 315 l 1
 287.701171875 315 l 1
 220.745117188 0 l 1
 122.745117188 0 l 1xa0
203.201171875 769 m 0xd0
 209.365234375 798 237.254882812 821 266.254882812 821 c 0
 291.434076133 821 308.404057141 803.661342622 308.404057141 780.111086191 c 0
 308.404057141 776.537461893 308.013299157 772.820806679 307.201171875 769 c 0
 301.037109375 740 273.1484375 717 244.1484375 717 c 0
 218.969100269 717 201.998332996 734.338855574 201.998332996 757.889317609 c 0
 201.998332996 761.462818082 202.389075182 765.179337231 203.201171875 769 c 0xd0
363.201171875 769 m 0
 369.365234375 798 397.254882812 821 426.254882812 821 c 0
 451.434076133 821 468.404057141 803.661342622 468.404057141 780.111086191 c 0
 468.404057141 776.537461893 468.013299157 772.820806679 467.201171875 769 c 0
 461.037109375 740 433.1484375 717 404.1484375 717 c 0
 378.969100269 717 361.998332996 734.338855574 361.998332996 757.889317609 c 0
 361.998332996 761.462818082 362.389075182 765.179337231 363.201171875 769 c 0
EndSplineSet
Validated: 1572865
EndChar

StartChar: Ygrave
Encoding: 7922 7922 116
Width: 517
GlyphClass: 2
Flags: HMW
HStem: 708 100<210 248 154 304 210 210>
VStem: 210 98<0 315 0 315>
AnchorPoint: "Anchor-7" 344.873 808 basechar 0
AnchorPoint: "Anchor-5" 173.127 0 basechar 0
LayerCount: 2
Fore
SplineSet
124.126953125 0 m 1
 191.08203125 315 l 1
 185.08203125 315 l 1
 92.2890625 650 l 1
 191.2890625 650 l 1
 256.763671875 417 l 1
 266.763671875 417 l 1
 430.2890625 650 l 1
 529.2890625 650 l 1
 295.08203125 315 l 1
 289.08203125 315 l 1
 222.126953125 0 l 1
 124.126953125 0 l 1
239.873046875 808 m 1
 333.873046875 808 l 1
 368.6171875 708 l 1
 274.6171875 708 l 1
 239.873046875 808 l 1
EndSplineSet
Validated: 1572865
EndChar

StartChar: uni1EF8
Encoding: 7928 7928 117
Width: 517
GlyphClass: 2
Flags: HMW
HStem: 704 58<294.5 325 294.5 340> 755 58<197 223>
VStem: 117 58<709 721.5 709 738.5> 210 98<0 315 0 315> 348 58<794 808>
AnchorPoint: "Anchor-7" 345.191 812 basechar 0
AnchorPoint: "Anchor-5" 172.596 0 basechar 0
LayerCount: 2
Fore
SplineSet
123.595703125 0 m 1x90
 190.55078125 315 l 1
 184.55078125 315 l 1
 91.7578125 650 l 1
 190.7578125 650 l 1
 256.231445312 417 l 1
 266.231445312 417 l 1
 429.7578125 650 l 1
 528.7578125 650 l 1
 294.55078125 315 l 1
 288.55078125 315 l 1
 221.595703125 0 l 1
 123.595703125 0 l 1x90
181.298828125 709 m 1x78
 193.838867188 768 242.404296875 813 293.404296875 813 c 0
 341.404296875 813 349.563476562 762 390.563476562 762 c 0
 410.563476562 762 427.389648438 780 433.341796875 808 c 1
 491.341796875 808 l 1xb8
 478.587890625 748 428.235351562 704 378.235351562 704 c 0
 327.235351562 704 313.076171875 755 281.076171875 755 c 0
 261.076171875 755 244.612304688 734 239.298828125 709 c 1
 181.298828125 709 l 1x78
EndSplineSet
Validated: 1572865
EndChar

StartChar: Z
Encoding: 90 90 118
Width: 544
GlyphClass: 2
Flags: HMW
HStem: 0 98<206 492 206 492> 553 97<62 336 62 490>
VStem: 52 440<0 98>
AnchorPoint: "Anchor-7" 341.081 650 basechar 0
AnchorPoint: "Anchor-5" 202.919 0 basechar 0
LayerCount: 2
Fore
SplineSet
-17.0810546875 0 m 1
 384.462890625 553 l 1
 110.462890625 553 l 1
 131.081054688 650 l 1
 559.081054688 650 l 1
 157.75 98 l 1
 443.75 98 l 1
 422.918945312 0 l 1
 -17.0810546875 0 l 1
EndSplineSet
Validated: 1572865
EndChar

StartChar: Zacute
Encoding: 377 377 119
Width: 544
GlyphClass: 2
Flags: HMW
HStem: 0 98<206 492 206 492> 553 97<62 336 62 490> 708 100<227 377 283 321>
VStem: 52 440<0 98>
AnchorPoint: "Anchor-7" 357.873 808 basechar 0
AnchorPoint: "Anchor-5" 186.127 0 basechar 0
LayerCount: 2
Fore
SplineSet
-33.873046875 0 m 1
 367.670898438 553 l 1
 93.6708984375 553 l 1
 114.2890625 650 l 1
 542.2890625 650 l 1
 140.958007812 98 l 1
 426.958007812 98 l 1
 406.126953125 0 l 1
 -33.873046875 0 l 1
291.6171875 708 m 1
 368.873046875 808 l 1
 462.873046875 808 l 1
 385.6171875 708 l 1
 291.6171875 708 l 1
EndSplineSet
Validated: 1572865
EndChar

StartChar: Zcaron
Encoding: 381 381 120
Width: 544
GlyphClass: 2
Flags: HMW
HStem: 0 98<206 492 206 492> 553 97<62 336 62 490> 553 254<147 242 302 336 62 242> 716 91<147 281 147 263>
VStem: 52 440<0 98>
AnchorPoint: "Anchor-7" 356.278 800 basechar 0
AnchorPoint: "Anchor-5" 186.233 0 basechar 0
LayerCount: 2
Fore
SplineSet
-33.7666015625 0 m 1xc8
 367.77734375 553 l 1
 93.77734375 553 l 1
 114.395507812 650 l 1
 542.395507812 650 l 1
 141.064453125 98 l 1
 427.064453125 98 l 1
 406.233398438 0 l 1
 -33.7666015625 0 l 1xc8
232.766601562 807 m 1xa8
 327.766601562 807 l 1
 352.240234375 781 l 1
 387.766601562 807 l 1
 482.766601562 807 l 1xa8
 347.423828125 716 l 1
 329.423828125 716 l 1xd8
 232.766601562 807 l 1xa8
EndSplineSet
Validated: 1572865
EndChar

StartChar: Zdotaccent
Encoding: 379 379 121
Width: 544
GlyphClass: 2
Flags: HMW
HStem: 0 98<206 492 206 492> 553 97<62 336 62 490> 717 104<257.5 286.5>
VStem: 220 104<754.5 783.5>
AnchorPoint: "Anchor-7" 322.907 650 basechar 0
AnchorPoint: "Anchor-5" 184.745 0 basechar 0
LayerCount: 2
Fore
SplineSet
-35.2548828125 0 m 1
 366.2890625 553 l 1
 92.2890625 553 l 1
 112.907226562 650 l 1
 540.907226562 650 l 1
 139.576171875 98 l 1
 425.576171875 98 l 1
 404.745117188 0 l 1
 -35.2548828125 0 l 1
296.201171875 769 m 0
 302.365234375 798 330.254882812 821 359.254882812 821 c 0
 384.434076133 821 401.404057141 803.661342622 401.404057141 780.111086191 c 0
 401.404057141 776.537461893 401.013299157 772.820806679 400.201171875 769 c 0
 394.037109375 740 366.1484375 717 337.1484375 717 c 0
 311.969100269 717 294.998332996 734.338855574 294.998332996 757.889317609 c 0
 294.998332996 761.462818082 295.389075182 765.179337231 296.201171875 769 c 0
EndSplineSet
Validated: 1572865
EndChar

StartChar: K.ss02
Encoding: 65538 -1 122
Width: 590
GlyphClass: 2
Flags: HMW
HStem: 224 94<202 264 202 349 202 264> 555 94<430 531 430 430>
VStem: 104 98<0 224 318 650>
AnchorPoint: "Anchor-7" 376.868 649 basechar 0
AnchorPoint: "Anchor-5" 238.919 0 basechar 0
LayerCount: 2
Fore
SplineSet
173.081054688 650 m 1
 271.081054688 650 l 1
 200.51171875 318 l 1
 262.51171875 318 l 1
 428.868164062 649 l 1
 599.868164062 649 l 1
 579.887695312 555 l 1
 478.887695312 555 l 1
 360.51171875 318 l 1
 412.51171875 318 l 1
 470.918945312 0 l 1
 370.918945312 0 l 1
 327.532226562 224 l 1
 180.532226562 224 l 1
 132.918945312 0 l 1
 34.9189453125 0 l 1
 173.081054688 650 l 1
EndSplineSet
Validated: 1572865
EndChar

StartChar: W.ss03
Encoding: 65539 -1 123
Width: 880
GlyphClass: 2
Flags: HMW
HStem: 0 92<584 590 584 664 520 590> 0 488<216 498 216 498 374 664 374 520>
VStem: 50 780<650 650>
AnchorPoint: "Anchor-7" 499.091 603 basechar 0
AnchorPoint: "Anchor-5" 370.919 0 basechar 0
LayerCount: 2
Fore
SplineSet
119.081054688 650 m 1xa0
 218.081054688 650 l 1
 240.32421875 96 l 1
 408.646484375 488 l 1
 532.646484375 488 l 1x60
 534.474609375 92 l 1
 540.474609375 92 l 1
 801.081054688 650 l 1
 899.081054688 650 l 1
 594.918945312 0 l 1
 450.918945312 0 l 1xa0
 446.203125 373 l 1
 283.918945312 0 l 1
 146.918945312 0 l 1x60
 119.081054688 650 l 1xa0
EndSplineSet
Validated: 1572865
EndChar

StartChar: Wacute.ss03
Encoding: 65540 -1 124
Width: 880
GlyphClass: 2
Flags: HMW
HStem: 0 92<584 590 584 664 520 590> 0 488<216 498 216 498 374 664 374 520> 661 100<395 545 451 489>
VStem: 50 780<650 650>
AnchorPoint: "Anchor-7" 520.878 761 basechar 0
AnchorPoint: "Anchor-5" 359.122 0 basechar 0
LayerCount: 2
Fore
SplineSet
107.284179688 650 m 1xb0
 206.284179688 650 l 1
 228.52734375 96 l 1
 396.849609375 488 l 1
 520.849609375 488 l 1x70
 522.677734375 92 l 1
 528.677734375 92 l 1
 789.284179688 650 l 1
 887.284179688 650 l 1
 583.122070312 0 l 1
 439.122070312 0 l 1xb0
 434.40625 373 l 1
 272.122070312 0 l 1
 135.122070312 0 l 1x70
 107.284179688 650 l 1xb0
454.622070312 661 m 1
 531.877929688 761 l 1
 625.877929688 761 l 1
 548.622070312 661 l 1
 454.622070312 661 l 1
EndSplineSet
Validated: 1572865
EndChar

StartChar: Wcircumflex.ss03
Encoding: 65541 -1 125
Width: 880
GlyphClass: 2
Flags: HMW
HStem: 0 92<584 590 584 664 520 590> 0 488<216 498 216 498 374 664 374 520> 662 91<315 449 431 470 431 565>
VStem: 50 780<650 650>
AnchorPoint: "Anchor-7" 520.027 753 basechar 0
AnchorPoint: "Anchor-5" 359.973 0 basechar 0
LayerCount: 2
Fore
SplineSet
108.133789062 650 m 1xb0
 207.133789062 650 l 1
 229.377929688 96 l 1
 397.700195312 488 l 1
 521.700195312 488 l 1x70
 523.52734375 92 l 1
 529.52734375 92 l 1
 790.133789062 650 l 1
 888.133789062 650 l 1
 583.97265625 0 l 1
 439.97265625 0 l 1xb0
 435.255859375 373 l 1
 272.97265625 0 l 1
 135.97265625 0 l 1x70
 108.133789062 650 l 1xb0
375.684570312 662 m 1
 511.02734375 753 l 1
 529.02734375 753 l 1
 625.684570312 662 l 1
 530.684570312 662 l 1
 506.2109375 688 l 1
 470.684570312 662 l 1
 375.684570312 662 l 1
EndSplineSet
Validated: 1572865
EndChar

StartChar: Wdieresis.ss03
Encoding: 65542 -1 126
Width: 880
GlyphClass: 2
Flags: HMW
HStem: 0 92<584 590 584 664 520 590> 0 488<216 498 216 498 374 664 374 520> 670 104<345.5 374.5 505.5 534.5>
VStem: 308 104<707.5 736.5> 468 104<707.5 736.5>
AnchorPoint: "Anchor-7" 523.96 782 basechar 0
AnchorPoint: "Anchor-5" 357.74 0 basechar 0
LayerCount: 2
Fore
SplineSet
105.90234375 650 m 1xb8
 204.90234375 650 l 1
 227.146484375 96 l 1
 395.467773438 488 l 1
 519.467773438 488 l 1x78
 521.295898438 92 l 1
 527.295898438 92 l 1
 787.90234375 650 l 1
 885.90234375 650 l 1
 581.740234375 0 l 1
 437.740234375 0 l 1xb8
 433.024414062 373 l 1
 270.740234375 0 l 1
 133.740234375 0 l 1x78
 105.90234375 650 l 1xb8
379.206054688 722 m 0
 385.370117188 751 413.259765625 774 442.259765625 774 c 0
 467.438958946 774 484.408939954 756.661342622 484.408939954 733.111086191 c 0
 484.408939954 729.537461893 484.01818197 725.820806679 483.206054688 722 c 0
 477.041992188 693 449.153320312 670 420.153320312 670 c 0
 394.973983081 670 378.003215809 687.338855574 378.003215809 710.889317609 c 0
 378.003215809 714.462818081 378.393957995 718.179337231 379.206054688 722 c 0
539.206054688 722 m 0
 545.370117188 751 573.259765625 774 602.259765625 774 c 0
 627.438958946 774 644.408939954 756.661342622 644.408939954 733.111086191 c 0
 644.408939954 729.537461893 644.01818197 725.820806679 643.206054688 722 c 0
 637.041992188 693 609.153320312 670 580.153320312 670 c 0
 554.973983081 670 538.003215809 687.338855574 538.003215809 710.889317609 c 0
 538.003215809 714.462818081 538.393957995 718.179337231 539.206054688 722 c 0
EndSplineSet
Validated: 1572865
EndChar

StartChar: Wgrave.ss03
Encoding: 65543 -1 127
Width: 880
GlyphClass: 2
Flags: HMW
HStem: 0 92<584 590 584 664 520 590> 0 488<216 498 216 498 374 664 374 520> 661 100<391 429 335 485 391 391>
VStem: 50 780<650 650>
AnchorPoint: "Anchor-7" 520.878 761 basechar 0
AnchorPoint: "Anchor-5" 359.122 0 basechar 0
LayerCount: 2
Fore
SplineSet
107.284179688 650 m 1xb0
 206.284179688 650 l 1
 228.52734375 96 l 1
 396.849609375 488 l 1
 520.849609375 488 l 1x70
 522.677734375 92 l 1
 528.677734375 92 l 1
 789.284179688 650 l 1
 887.284179688 650 l 1
 583.122070312 0 l 1
 439.122070312 0 l 1xb0
 434.40625 373 l 1
 272.122070312 0 l 1
 135.122070312 0 l 1x70
 107.284179688 650 l 1xb0
415.877929688 761 m 1
 509.877929688 761 l 1
 544.622070312 661 l 1
 450.622070312 661 l 1
 415.877929688 761 l 1
EndSplineSet
Validated: 1572865
EndChar

StartChar: O.ss04
Encoding: 65544 -1 128
Width: 800
GlyphClass: 2
Flags: HMW
HStem: -16 101<339 461 339 489.5> 563 101<339 461>
VStem: 80 101<257.5 390.5 257.5 419> 619 101<257.5 390.5>
AnchorPoint: "Anchor-7" 469.081 649 basechar 0
AnchorPoint: "Anchor-6" 415.257 10 basechar 0
AnchorPoint: "Anchor-5" 331.132 0 basechar 0
LayerCount: 2
Fore
SplineSet
327.73046875 -16 m 0
 173.84591904 -16 71.6101910567 94.8600916294 71.6101910567 246.689694593 c 0
 71.6101910567 271.469757653 74.3334854729 297.34114215 80 324 c 0
 120.385742188 514 293.26953125 664 472.26953125 664 c 0
 626.868983276 664 728.440849985 553.347265895 728.440849985 401.736380143 c 0
 728.440849985 376.826850862 725.6989999 350.811689528 720 324 c 0
 679.614257812 134 506.73046875 -16 327.73046875 -16 c 0
181 324 m 0
 176.954964172 304.969929203 175.013309981 286.492624366 175.013309981 268.799501486 c 0
 175.013309981 162.836471527 244.655373917 85 349.19921875 85 c 0
 471.19921875 85 590.729492188 191 619 324 c 0
 623.045035828 343.030070797 624.986690019 361.507375634 624.986690019 379.200498514 c 0
 624.986690019 485.163528473 555.344626083 563 450.80078125 563 c 0
 328.80078125 563 209.270507812 457 181 324 c 0
EndSplineSet
Validated: 524289
EndChar

StartChar: Oacute.ss04
Encoding: 65545 -1 129
Width: 800
GlyphClass: 2
Flags: HMW
HStem: -16 101<339 461 339 489.5> 563 101<339 461> 707 100<355 505 411 449>
VStem: 80 101<257.5 390.5 257.5 419> 619 101<257.5 390.5>
AnchorPoint: "Anchor-7" 487.467 807 basechar 0
AnchorPoint: "Anchor-6" 400.06 10 basechar 0
AnchorPoint: "Anchor-5" 315.934 0 basechar 0
LayerCount: 2
Fore
SplineSet
312.533203125 -16 m 0
 158.648500988 -16 56.4120011502 94.8603112496 56.4120011502 246.690145768 c 0
 56.4120011502 271.470071683 59.1352776758 297.341303944 64.8017578125 324 c 0
 105.1875 514 278.071289062 664 457.071289062 664 c 0
 611.670741088 664 713.242607797 553.347265895 713.242607797 401.736380143 c 0
 713.242607797 376.826850862 710.500757712 350.811689528 704.801757812 324 c 0
 664.416015625 134 491.533203125 -16 312.533203125 -16 c 0
165.801757812 324 m 0
 161.756932898 304.970264106 159.815375604 286.493274715 159.815375604 268.80043561 c 0
 159.815375604 162.836928975 229.456824525 85 334.000976562 85 c 0
 456.000976562 85 575.532226562 191 603.801757812 324 c 0
 607.846829332 343.030238712 609.788502089 361.507701709 609.788502089 379.200966868 c 0
 609.788502089 485.16375783 540.147206431 563 435.603515625 563 c 0
 313.603515625 563 194.072265625 457 165.801757812 324 c 0
421.2109375 707 m 1
 498.466796875 807 l 1
 592.466796875 807 l 1
 515.2109375 707 l 1
 421.2109375 707 l 1
EndSplineSet
Validated: 524289
EndChar

StartChar: Ocircumflex.ss04
Encoding: 65546 -1 130
Width: 800
GlyphClass: 2
Flags: HMW
HStem: -16 101<339 461 339 489.5> 563 101<339 461> 708 91<275 409 391 430 391 525>
VStem: 80 101<257.5 390.5 257.5 419> 619 101<257.5 390.5>
AnchorPoint: "Anchor-7" 486.617 799 basechar 0
AnchorPoint: "Anchor-6" 400.91 10 basechar 0
AnchorPoint: "Anchor-5" 316.784 0 basechar 0
LayerCount: 2
Fore
SplineSet
313.3828125 -16 m 0
 159.49826279 -16 57.2625348067 94.8600916294 57.2625348067 246.689694593 c 0
 57.2625348067 271.469757653 59.9858292229 297.34114215 65.65234375 324 c 0
 106.038085938 514 278.921875 664 457.921875 664 c 0
 612.521327026 664 714.093193735 553.347265895 714.093193735 401.736380143 c 0
 714.093193735 376.826850862 711.35134365 350.811689528 705.65234375 324 c 0
 665.266601562 134 492.3828125 -16 313.3828125 -16 c 0
166.65234375 324 m 0
 162.607518836 304.970264106 160.665961542 286.493274715 160.665961542 268.80043561 c 0
 160.665961542 162.836928975 230.307410463 85 334.8515625 85 c 0
 456.8515625 85 576.3828125 191 604.65234375 324 c 0
 608.697379578 343.030070797 610.639033769 361.507375634 610.639033769 379.200498514 c 0
 610.639033769 485.163528473 540.996969833 563 436.453125 563 c 0
 314.453125 563 194.922851562 457 166.65234375 324 c 0
342.274414062 708 m 1
 477.6171875 799 l 1
 495.6171875 799 l 1
 592.274414062 708 l 1
 497.274414062 708 l 1
 472.80078125 734 l 1
 437.274414062 708 l 1
 342.274414062 708 l 1
EndSplineSet
Validated: 524289
EndChar

StartChar: Odieresis.ss04
Encoding: 65547 -1 131
Width: 800
GlyphClass: 2
Flags: HMW
HStem: -16 101<339 461 339 489.5> 563 101<339 461> 716 104<305.5 334.5 465.5 494.5>
VStem: 80 101<257.5 390.5 257.5 419> 268 104<753.5 782.5> 428 104<753.5 782.5> 619 101<257.5 390.5>
AnchorPoint: "Anchor-7" 490.549 828 basechar 0
AnchorPoint: "Anchor-6" 398.678 10 basechar 0
AnchorPoint: "Anchor-5" 314.553 0 basechar 0
LayerCount: 2
Fore
SplineSet
311.151367188 -16 m 0
 157.266817478 -16 55.0310894943 94.8600916295 55.0310894943 246.689694593 c 0
 55.0310894943 271.469757654 57.7543839104 297.34114215 63.4208984375 324 c 0
 103.806640625 514 276.689453125 664 455.689453125 664 c 0
 610.289059881 664 711.861695572 553.347044402 711.861695572 401.735924925 c 0
 711.861695572 376.826533914 709.119863621 350.811526202 703.420898438 324 c 0
 663.03515625 134 490.151367188 -16 311.151367188 -16 c 0
164.420898438 324 m 0
 160.375826918 304.969761288 158.434154161 286.492298291 158.434154161 268.799033132 c 0
 158.434154161 162.83624217 228.075449819 85 332.619140625 85 c 0
 454.619140625 85 574.150390625 191 602.420898438 324 c 0
 606.465723352 343.029735894 608.407280646 361.506725285 608.407280646 379.19956439 c 0
 608.407280646 485.163071025 538.765831725 563 434.221679688 563 c 0
 312.221679688 563 192.690429688 457 164.420898438 324 c 0
345.795898438 768 m 0
 351.959960938 797 379.848632812 820 408.848632812 820 c 0
 434.027970043 820 450.998737317 802.661144425 450.998737317 779.11068239 c 0
 450.998737317 775.537181918 450.607995131 771.820662769 449.795898438 768 c 0
 443.631835938 739 415.743164062 716 386.743164062 716 c 0
 361.563826831 716 344.593059559 733.338855574 344.593059559 756.889317609 c 0
 344.593059559 760.462818081 344.983801745 764.179337231 345.795898438 768 c 0
505.795898438 768 m 0
 511.959960938 797 539.848632812 820 568.848632812 820 c 0
 594.027970043 820 610.998737317 802.661144425 610.998737317 779.11068239 c 0
 610.998737317 775.537181918 610.607995131 771.820662769 609.795898438 768 c 0
 603.631835938 739 575.743164062 716 546.743164062 716 c 0
 521.563826831 716 504.593059559 733.338855574 504.593059559 756.889317609 c 0
 504.593059559 760.462818081 504.983801745 764.179337231 505.795898438 768 c 0
EndSplineSet
Validated: 524289
EndChar

StartChar: Ograve.ss04
Encoding: 65548 -1 132
Width: 800
GlyphClass: 2
Flags: HMW
HStem: -16 101<339 461 339 489.5> 563 101<339 461> 707 100<351 389 295 445 351 351>
VStem: 80 101<257.5 390.5 257.5 419> 619 101<257.5 390.5>
AnchorPoint: "Anchor-7" 487.467 807 basechar 0
AnchorPoint: "Anchor-6" 400.06 10 basechar 0
AnchorPoint: "Anchor-5" 315.934 0 basechar 0
LayerCount: 2
Fore
SplineSet
312.533203125 -16 m 0
 158.648500988 -16 56.4120011502 94.8603112496 56.4120011502 246.690145768 c 0
 56.4120011502 271.470071683 59.1352776758 297.341303944 64.8017578125 324 c 0
 105.1875 514 278.071289062 664 457.071289062 664 c 0
 611.670741088 664 713.242607797 553.347265895 713.242607797 401.736380143 c 0
 713.242607797 376.826850862 710.500757712 350.811689528 704.801757812 324 c 0
 664.416015625 134 491.533203125 -16 312.533203125 -16 c 0
165.801757812 324 m 0
 161.756932898 304.970264106 159.815375604 286.493274715 159.815375604 268.80043561 c 0
 159.815375604 162.836928975 229.456824525 85 334.000976562 85 c 0
 456.000976562 85 575.532226562 191 603.801757812 324 c 0
 607.846829332 343.030238712 609.788502089 361.507701709 609.788502089 379.200966868 c 0
 609.788502089 485.16375783 540.147206431 563 435.603515625 563 c 0
 313.603515625 563 194.072265625 457 165.801757812 324 c 0
382.466796875 807 m 1
 476.466796875 807 l 1
 511.2109375 707 l 1
 417.2109375 707 l 1
 382.466796875 807 l 1
EndSplineSet
Validated: 524289
EndChar

StartChar: Ohungarumlaut.ss04
Encoding: 65549 -1 133
Width: 800
GlyphClass: 2
Flags: HMW
HStem: -16 101<339 461 339 489.5> 563 101<339 461> 707 180<273 406 329 350 510 531 329 454>
VStem: 80 101<257.5 390.5 257.5 419> 619 101<257.5 390.5>
AnchorPoint: "Anchor-7" 495.97 887 basechar 0
AnchorPoint: "Anchor-6" 391.558 10 basechar 0
AnchorPoint: "Anchor-5" 307.432 0 basechar 0
LayerCount: 2
Fore
SplineSet
304.030273438 -16 m 0
 150.145723728 -16 47.9099957443 94.8600916295 47.9099957443 246.689694593 c 0
 47.9099957443 271.469757654 50.6332901604 297.34114215 56.2998046875 324 c 0
 96.685546875 514 269.569335938 664 448.569335938 664 c 0
 603.168787964 664 704.740654672 553.347265894 704.740654672 401.736380142 c 0
 704.740654672 376.826850862 701.998804587 350.811689528 696.299804688 324 c 0
 655.9140625 134 483.030273438 -16 304.030273438 -16 c 0
157.299804688 324 m 0
 153.254979774 304.970264106 151.31342248 286.493274715 151.31342248 268.80043561 c 0
 151.31342248 162.836928975 220.954871401 85 325.499023438 85 c 0
 447.499023438 85 567.030273438 191 595.299804688 324 c 0
 599.344840516 343.030070797 601.286494707 361.507375634 601.286494707 379.200498514 c 0
 601.286494707 485.163528473 531.644430771 563 427.100585938 563 c 0
 305.100585938 563 185.5703125 457 157.299804688 324 c 0
330.708984375 707 m 1
 424.969726562 887 l 1
 501.969726562 887 l 1
 407.708984375 707 l 1
 330.708984375 707 l 1
511.708984375 707 m 1
 605.969726562 887 l 1
 682.969726562 887 l 1
 588.708984375 707 l 1
 511.708984375 707 l 1
EndSplineSet
Validated: 524289
EndChar

StartChar: Omacron.ss04
Encoding: 65550 -1 134
Width: 800
GlyphClass: 2
Flags: HMW
HStem: -16 101<339 461 339 489.5> 563 101<339 461> 734 66<235 565 235 565>
VStem: 80 101<257.5 390.5 257.5 419> 235 330<734 800 734 800> 619 101<257.5 390.5>
AnchorPoint: "Anchor-7" 486.723 800 basechar 0
AnchorPoint: "Anchor-6" 400.804 10 basechar 0
AnchorPoint: "Anchor-5" 316.678 0 basechar 0
LayerCount: 2
Fore
SplineSet
313.27734375 -16 m 0
 159.392641613 -16 57.1561417752 94.8603112496 57.1561417752 246.690145768 c 0
 57.1561417752 271.470071683 59.8794183008 297.341303944 65.5458984375 324 c 0
 105.931640625 514 278.815429688 664 457.815429688 664 c 0
 612.414881714 664 713.986748422 553.347265894 713.986748422 401.736380142 c 0
 713.986748422 376.826850862 711.244898337 350.811689528 705.545898438 324 c 0
 665.16015625 134 492.27734375 -16 313.27734375 -16 c 0
166.545898438 324 m 0
 162.501073524 304.970264106 160.55951623 286.493274715 160.55951623 268.80043561 c 0
 160.55951623 162.836928975 230.200965151 85 334.745117188 85 c 0
 456.745117188 85 576.276367188 191 604.545898438 324 c 0
 608.590969958 343.030238711 610.532642715 361.507701708 610.532642715 379.200966867 c 0
 610.532642715 485.163757829 540.891347056 563 436.34765625 563 c 0
 314.34765625 563 194.81640625 457 166.545898438 324 c 0
307.694335938 734 m 1
 321.72265625 800 l 1
 651.72265625 800 l 1
 637.694335938 734 l 1
 307.694335938 734 l 1
EndSplineSet
Validated: 524289
EndChar

StartChar: Oslash.ss04
Encoding: 65551 -1 135
Width: 820
GlyphClass: 2
Flags: HMW
HStem: -16 101<383 461 383 489.5> 0 86<103 170 170 170 170 222> 563 101<339 420.5>
VStem: 80 101<294 390.5 294 419> 619 101<257.5 350>
AnchorPoint: "Anchor-7" 469.081 649 basechar 0
AnchorPoint: "Anchor-6" 415.257 10 basechar 0
AnchorPoint: "Anchor-5" 331.132 0 basechar 0
LayerCount: 2
Fore
SplineSet
34.1318359375 0 m 1x78
 119.411132812 86 l 1x78
 88.6618876107 129.587365594 71.6408914972 184.918010981 71.6408914972 246.88429481 c 0
 71.6408914972 271.639088569 74.3572850659 297.452868857 80 324 c 0
 120.385742188 514 293.26953125 664 472.26953125 664 c 0
 537.26953125 664 592.23046875 645 635.00390625 611 c 1
 672.081054688 649 l 1
 790.081054688 649 l 1
 690.612304688 548 l 1
 714.931327425 506.602478126 728.384110715 456.636182166 728.384110715 401.385612237 c 0
 728.384110715 376.55809909 725.66763978 350.663551981 720 324 c 0
 679.614257812 134 506.73046875 -16 327.73046875 -16 c 0
 269.73046875 -16 219.918945312 -1 179.87109375 27 c 1xb8
 153.131835938 0 l 1
 34.1318359375 0 l 1x78
181 324 m 0
 176.873497406 304.585625286 174.869714393 285.799447147 174.869714393 267.878610879 c 0
 174.869714393 230.415218095 183.626573412 196.733510612 200.053710938 169 c 1
 555.787109375 530 l 1
 527.25 551 491.80078125 563 450.80078125 563 c 0
 328.80078125 563 209.270507812 457 181 324 c 0
259.087890625 108 m 1xb8
 284.899414062 93 315.19921875 85 349.19921875 85 c 0
 471.19921875 85 590.729492188 191 619 324 c 0
 622.997408591 342.806680743 624.921641145 361.090149592 624.921641145 378.661178102 c 0
 624.921641145 409.673602198 618.927394352 438.466677495 607.7578125 464 c 1
 259.087890625 108 l 1xb8
EndSplineSet
Validated: 524289
EndChar

StartChar: Otilde.ss04
Encoding: 65552 -1 136
Width: 800
GlyphClass: 2
Flags: HMW
HStem: -16 101<339 461 339 489.5> 563 101<339 461> 703 58<435.5 466 435.5 481> 754 58<338 364>
VStem: 80 101<257.5 390.5 257.5 419> 258 58<708 720.5 708 737.5> 489 58<793 807> 619 101<257.5 390.5>
AnchorPoint: "Anchor-7" 487.786 811 basechar 0
AnchorPoint: "Anchor-6" 399.528 10 basechar 0
AnchorPoint: "Anchor-5" 315.402 0 basechar 0
LayerCount: 2
Fore
SplineSet
312.001953125 -16 m 0xe9
 158.117250988 -16 55.8807511502 94.8603112496 55.8807511502 246.690145768 c 0
 55.8807511502 271.470071683 58.6040276758 297.341303944 64.2705078125 324 c 0
 104.65625 514 277.540039062 664 456.540039062 664 c 0
 611.139491088 664 712.711357797 553.347265895 712.711357797 401.736380143 c 0
 712.711357797 376.826850862 709.969507712 350.811689528 704.270507812 324 c 0
 663.884765625 134 491.001953125 -16 312.001953125 -16 c 0xe9
165.270507812 324 m 0
 161.225682898 304.970264106 159.284125604 286.493274715 159.284125604 268.80043561 c 0
 159.284125604 162.836928975 228.925574525 85 333.469726562 85 c 0
 455.469726562 85 575.000976562 191 603.270507812 324 c 0
 607.315579332 343.030238712 609.257252089 361.507701709 609.257252089 379.200966868 c 0
 609.257252089 485.16375783 539.615956431 563 435.072265625 563 c 0
 313.072265625 563 193.541015625 457 165.270507812 324 c 0
323.892578125 708 m 1xdf
 336.43359375 767 384.998046875 812 435.998046875 812 c 0
 483.998046875 812 492.158203125 761 533.158203125 761 c 0
 553.158203125 761 569.984375 779 575.935546875 807 c 1
 633.935546875 807 l 1xef
 621.182617188 747 570.830078125 703 520.830078125 703 c 0
 469.830078125 703 455.669921875 754 423.669921875 754 c 0
 403.669921875 754 387.206054688 733 381.892578125 708 c 1
 323.892578125 708 l 1xdf
EndSplineSet
Validated: 524289
EndChar

StartChar: Q.ss04
Encoding: 65553 -1 137
Width: 800
GlyphClass: 2
Flags: HMW
HStem: -16 101<339 416.5 339 430> -16 249 0 233 563 101<339 461>
VStem: 80 101<257.5 390.5 257.5 419> 619 101<293.5 390.5>
AnchorPoint: "Anchor-7" 469.293 650 basechar 0
AnchorPoint: "Anchor-5" 331.132 0 basechar 0
LayerCount: 2
Fore
SplineSet
521.131835938 0 m 1x3c
 500.508789062 30 l 1
 446.34375 1 387.73046875 -16 327.73046875 -16 c 0x9c
 173.84591904 -16 71.6101910567 94.8600916294 71.6101910567 246.689694593 c 0
 71.6101910567 271.469757653 74.3334854729 297.34114215 80 324 c 0
 120.385742188 514 293.26953125 664 472.26953125 664 c 0
 626.868983276 664 728.440849985 553.347265895 728.440849985 401.736380143 c 0
 728.440849985 376.826850862 725.6989999 350.811689528 720 324 c 0
 700.444335938 232 650.015625 150 583.048828125 89 c 1
 643.131835938 0 l 1
 521.131835938 0 l 1x3c
181 324 m 0
 176.954964172 304.969929203 175.013309981 286.492624366 175.013309981 268.799501486 c 0
 175.013309981 162.836471527 244.655373917 85 349.19921875 85 c 0
 382.19921875 85 415.899414062 93 446.875 107 c 1x9c
 359.444335938 232 l 1
 485.870117188 234 l 1
 531.416015625 166 l 1x5c
 574.34375 208 606.034179688 263 619 324 c 0
 623.045035828 343.030070797 624.986690019 361.507375634 624.986690019 379.200498514 c 0
 624.986690019 485.163528473 555.344626083 563 450.80078125 563 c 0
 328.80078125 563 209.270507812 457 181 324 c 0
EndSplineSet
Validated: 1572865
EndChar

StartChar: O.ss05
Encoding: 65554 -1 138
Width: 998
GlyphClass: 2
Flags: HMW
HStem: 0 101<315.5 589 409 589> 548 101<348 589 409 589>
VStem: 80 101<265 387.5 265 415> 817 101<265 387.5>
AnchorPoint: "Anchor-7" 567.975 649 basechar 0
AnchorPoint: "Anchor-6" 839.151 10 basechar 0
AnchorPoint: "Anchor-5" 430.025 0 basechar 0
LayerCount: 2
Fore
SplineSet
340.025390625 0 m 2
 177.975709515 0 73.3424505443 111.141144268 73.3424505443 258.586227156 c 0
 73.3424505443 281.287918462 75.8228726449 304.850226101 80.9560546875 329 c 0
 117.516601562 501 299.974609375 649 477.974609375 649 c 2
 657.974609375 649 l 2
 812.573991971 649 925.645816911 537.118526622 925.645816911 391.299653981 c 0
 925.645816911 371.114489906 923.479153263 350.279022987 918.956054688 329 c 0
 880.05859375 146 704.025390625 0 520.025390625 0 c 2
 340.025390625 0 l 2
181.956054688 329 m 0
 178.333800539 311.958503382 176.589571051 295.413317372 176.589571051 279.534354648 c 0
 176.589571051 176.145199419 250.53466068 101 361.493164062 101 c 2
 541.493164062 101 l 2
 669.493164062 101 790.749023438 201 817.956054688 329 c 0
 820.902530082 342.862064085 822.316306019 356.513568427 822.316306019 369.809820743 c 0
 822.316306019 468.737946516 744.052375952 548 636.506835938 548 c 2
 456.506835938 548 l 2
 334.506835938 548 206.825195312 446 181.956054688 329 c 0
EndSplineSet
Validated: 524289
EndChar

StartChar: Oacute.ss05
Encoding: 65555 -1 139
Width: 998
GlyphClass: 2
Flags: HMW
HStem: 0 101<315.5 589 409 589> 548 101<348 589 409 589> 707 100<454 604 510 548>
VStem: 80 101<265 387.5 265 415> 817 101<265 387.5>
AnchorPoint: "Anchor-7" 584.767 807 basechar 0
AnchorPoint: "Anchor-6" 822.359 10 basechar 0
AnchorPoint: "Anchor-5" 413.233 0 basechar 0
LayerCount: 2
Fore
SplineSet
323.233398438 0 m 2
 161.183717328 0 56.5504583568 111.141144268 56.5504583568 258.586227156 c 0
 56.5504583568 281.287918462 59.0308804574 304.850226101 64.1640625 329 c 0
 100.724609375 501 283.182617188 649 461.182617188 649 c 2
 641.182617188 649 l 2
 795.781999784 649 908.853824723 537.118526622 908.853824723 391.299653982 c 0
 908.853824723 371.114489907 906.687161075 350.279022987 902.1640625 329 c 0
 863.266601562 146 687.233398438 0 503.233398438 0 c 2
 323.233398438 0 l 2
165.1640625 329 m 0
 161.541808351 311.958503382 159.797578863 295.413317373 159.797578863 279.534354648 c 0
 159.797578863 176.145199419 233.742668493 101 344.701171875 101 c 2
 524.701171875 101 l 2
 652.701171875 101 773.95703125 201 801.1640625 329 c 0
 804.110537894 342.862064085 805.524313831 356.513568428 805.524313831 369.809820744 c 0
 805.524313831 468.737946517 727.260383764 548 619.71484375 548 c 2
 439.71484375 548 l 2
 317.71484375 548 190.033203125 446 165.1640625 329 c 0
518.510742188 707 m 1
 595.766601562 807 l 1
 689.766601562 807 l 1
 612.510742188 707 l 1
 518.510742188 707 l 1
EndSplineSet
Validated: 524289
EndChar

StartChar: Ocircumflex.ss05
Encoding: 65556 -1 140
Width: 998
GlyphClass: 2
Flags: HMW
HStem: 0 101<315.5 589 409 589> 548 101<348 589 409 589> 708 91<374 508 490 529 490 624>
VStem: 80 101<265 387.5 265 415> 817 101<265 387.5>
AnchorPoint: "Anchor-7" 583.916 799 basechar 0
AnchorPoint: "Anchor-6" 823.209 10 basechar 0
AnchorPoint: "Anchor-5" 414.084 0 basechar 0
LayerCount: 2
Fore
SplineSet
324.083984375 0 m 2
 162.034303265 0 57.4010442943 111.141144268 57.4010442943 258.586227156 c 0
 57.4010442943 281.287918462 59.8814663949 304.850226101 65.0146484375 329 c 0
 101.57421875 501 284.033203125 649 462.033203125 649 c 2
 642.033203125 649 l 2
 796.632912941 649 909.704135794 537.118053011 909.704135794 391.298728073 c 0
 909.704135794 371.113852748 907.537559111 350.278697626 903.014648438 329 c 0
 864.1171875 146 688.083984375 0 504.083984375 0 c 2
 324.083984375 0 l 2
166.014648438 329 m 0
 162.392394289 311.958503382 160.648164801 295.413317372 160.648164801 279.534354648 c 0
 160.648164801 176.145199419 234.59325443 101 345.551757812 101 c 2
 525.551757812 101 l 2
 653.551757812 101 774.807617188 201 802.014648438 329 c 0
 804.961098647 342.8619456 806.374861893 356.513335058 806.374861893 369.809479799 c 0
 806.374861893 468.737764405 728.110116687 548 620.564453125 548 c 2
 440.564453125 548 l 2
 318.564453125 548 190.883789062 446 166.014648438 329 c 0
439.573242188 708 m 1
 574.916015625 799 l 1
 592.916015625 799 l 1
 689.573242188 708 l 1
 594.573242188 708 l 1
 570.100585938 734 l 1
 534.573242188 708 l 1
 439.573242188 708 l 1
EndSplineSet
Validated: 524289
EndChar

StartChar: Odieresis.ss05
Encoding: 65557 -1 141
Width: 998
GlyphClass: 2
Flags: HMW
HStem: 0 101<315.5 589 409 589> 548 101<348 589 409 589> 716 104<404.5 433.5 564.5 593.5>
VStem: 80 101<265 387.5 265 415> 367 104<753.5 782.5> 527 104<753.5 782.5> 817 101<265 387.5>
AnchorPoint: "Anchor-7" 587.849 828 basechar 0
AnchorPoint: "Anchor-6" 820.978 10 basechar 0
AnchorPoint: "Anchor-5" 411.852 0 basechar 0
LayerCount: 2
Fore
SplineSet
321.8515625 0 m 2
 159.80203293 0 55.1695514663 111.140936401 55.1695514663 258.585813507 c 0
 55.1695514663 281.287632242 57.649989905 304.850079423 62.783203125 329 c 0
 99.3427734375 501 281.80078125 649 459.80078125 649 c 2
 639.80078125 649 l 2
 794.400616338 649 907.472650678 537.117871696 907.472650678 391.298373603 c 0
 907.472650678 371.113608821 905.306087322 350.278573066 900.783203125 329 c 0
 861.884765625 146 685.8515625 0 501.8515625 0 c 2
 321.8515625 0 l 2
163.783203125 329 m 0
 160.160748672 311.958172713 158.416426383 295.412675294 158.416426383 279.533430313 c 0
 158.416426383 176.144751537 232.362139787 101 343.3203125 101 c 2
 523.3203125 101 l 2
 651.3203125 101 772.575195312 201 799.783203125 329 c 0
 802.729653334 342.861945601 804.14341658 356.513335059 804.14341658 369.809479799 c 0
 804.14341658 468.737764405 725.878671374 548 618.333007812 548 c 2
 438.333007812 548 l 2
 316.333007812 548 188.65234375 446 163.783203125 329 c 0
443.095703125 768 m 0
 449.259765625 797 477.1484375 820 506.1484375 820 c 0
 531.327774731 820 548.298542004 802.661144426 548.298542004 779.110682391 c 0
 548.298542004 775.537181918 547.907799818 771.820662769 547.095703125 768 c 0
 540.930664062 739 513.041992188 716 484.041992188 716 c 0
 458.863129131 716 441.892526869 733.338202535 441.892526869 756.887987119 c 0
 441.892526869 760.461895586 442.283376969 764.178863057 443.095703125 768 c 0
603.095703125 768 m 0
 609.259765625 797 637.1484375 820 666.1484375 820 c 0
 691.327774731 820 708.298542004 802.661144426 708.298542004 779.110682391 c 0
 708.298542004 775.537181918 707.907799818 771.820662769 707.095703125 768 c 0
 700.930664062 739 673.041992188 716 644.041992188 716 c 0
 618.863129131 716 601.892526869 733.338202535 601.892526869 756.887987119 c 0
 601.892526869 760.461895586 602.283376969 764.178863057 603.095703125 768 c 0
EndSplineSet
Validated: 524289
EndChar

StartChar: Ograve.ss05
Encoding: 65558 -1 142
Width: 998
GlyphClass: 2
Flags: HMW
HStem: 0 101<315.5 589 409 589> 548 101<348 589 409 589> 707 100<450 488 394 544 450 450>
VStem: 80 101<265 387.5 265 415> 817 101<265 387.5>
AnchorPoint: "Anchor-7" 584.767 807 basechar 0
AnchorPoint: "Anchor-6" 822.359 10 basechar 0
AnchorPoint: "Anchor-5" 413.233 0 basechar 0
LayerCount: 2
Fore
SplineSet
323.233398438 0 m 2
 161.183717328 0 56.5504583568 111.141144268 56.5504583568 258.586227156 c 0
 56.5504583568 281.287918462 59.0308804574 304.850226101 64.1640625 329 c 0
 100.724609375 501 283.182617188 649 461.182617188 649 c 2
 641.182617188 649 l 2
 795.781999784 649 908.853824723 537.118526622 908.853824723 391.299653982 c 0
 908.853824723 371.114489907 906.687161075 350.279022987 902.1640625 329 c 0
 863.266601562 146 687.233398438 0 503.233398438 0 c 2
 323.233398438 0 l 2
165.1640625 329 m 0
 161.541808351 311.958503382 159.797578863 295.413317373 159.797578863 279.534354648 c 0
 159.797578863 176.145199419 233.742668493 101 344.701171875 101 c 2
 524.701171875 101 l 2
 652.701171875 101 773.95703125 201 801.1640625 329 c 0
 804.110537894 342.862064085 805.524313831 356.513568428 805.524313831 369.809820744 c 0
 805.524313831 468.737946517 727.260383764 548 619.71484375 548 c 2
 439.71484375 548 l 2
 317.71484375 548 190.033203125 446 165.1640625 329 c 0
479.766601562 807 m 1
 573.766601562 807 l 1
 608.510742188 707 l 1
 514.510742188 707 l 1
 479.766601562 807 l 1
EndSplineSet
Validated: 524289
EndChar

StartChar: Ohungarumlaut.ss05
Encoding: 65559 -1 143
Width: 998
GlyphClass: 2
Flags: HMW
HStem: 0 101<315.5 589 409 589> 548 101<348 589 409 589> 707 180<372 505 428 449 609 630 428 553>
VStem: 80 101<265 387.5 265 415> 817 101<265 387.5>
AnchorPoint: "Anchor-7" 593.269 887 basechar 0
AnchorPoint: "Anchor-6" 813.856 10 basechar 0
AnchorPoint: "Anchor-5" 404.731 0 basechar 0
LayerCount: 2
Fore
SplineSet
314.731445312 0 m 2
 152.681764202 0 48.0485052318 111.141144268 48.0485052318 258.586227156 c 0
 48.0485052318 281.287918462 50.5289273324 304.850226101 55.662109375 329 c 0
 92.2216796875 501 274.680664062 649 452.680664062 649 c 2
 632.680664062 649 l 2
 787.280373878 649 900.351596731 537.118053012 900.351596731 391.298728074 c 0
 900.351596731 371.113852748 898.185020048 350.278697626 893.662109375 329 c 0
 854.764648438 146 678.731445312 0 494.731445312 0 c 2
 314.731445312 0 l 2
156.662109375 329 m 0
 153.039855226 311.958503382 151.295625738 295.413317373 151.295625738 279.534354648 c 0
 151.295625738 176.145199419 225.240715368 101 336.19921875 101 c 2
 516.19921875 101 l 2
 644.19921875 101 765.455078125 201 792.662109375 329 c 0
 795.608559584 342.861945601 797.02232283 356.513335059 797.02232283 369.809479799 c 0
 797.02232283 468.737764405 718.757577624 548 611.211914062 548 c 2
 431.211914062 548 l 2
 309.211914062 548 181.53125 446 156.662109375 329 c 0
428.008789062 707 m 1
 522.268554688 887 l 1
 599.268554688 887 l 1
 505.008789062 707 l 1
 428.008789062 707 l 1
609.008789062 707 m 1
 703.268554688 887 l 1
 780.268554688 887 l 1
 686.008789062 707 l 1
 609.008789062 707 l 1
EndSplineSet
Validated: 524289
EndChar

StartChar: Omacron.ss05
Encoding: 65560 -1 144
Width: 998
GlyphClass: 2
Flags: HMW
HStem: 0 101<315.5 589 409 589> 548 101<348 589 409 589> 734 66<334 664 334 664>
VStem: 80 101<265 387.5 265 415> 334 330<734 800 734 800> 817 101<265 387.5>
AnchorPoint: "Anchor-7" 584.022 800 basechar 0
AnchorPoint: "Anchor-6" 823.103 10 basechar 0
AnchorPoint: "Anchor-5" 413.978 0 basechar 0
LayerCount: 2
Fore
SplineSet
323.977539062 0 m 2
 161.927857952 0 57.2945989818 111.141144268 57.2945989818 258.586227156 c 0
 57.2945989818 281.287918462 59.7750210824 304.850226101 64.908203125 329 c 0
 101.467773438 501 283.926757812 649 461.926757812 649 c 2
 641.926757812 649 l 2
 796.526467628 649 909.597690481 537.118053012 909.597690481 391.298728074 c 0
 909.597690481 371.113852748 907.431113798 350.278697626 902.908203125 329 c 0
 864.010742188 146 687.977539062 0 503.977539062 0 c 2
 323.977539062 0 l 2
165.908203125 329 m 0
 162.285948976 311.958503382 160.541719488 295.413317373 160.541719488 279.534354648 c 0
 160.541719488 176.145199419 234.486809118 101 345.4453125 101 c 2
 525.4453125 101 l 2
 653.4453125 101 774.701171875 201 801.908203125 329 c 0
 804.854653334 342.861945601 806.26841658 356.513335059 806.26841658 369.809479799 c 0
 806.26841658 468.737764405 728.003671374 548 620.458007812 548 c 2
 440.458007812 548 l 2
 318.458007812 548 190.77734375 446 165.908203125 329 c 0
404.994140625 734 m 1
 419.022460938 800 l 1
 749.022460938 800 l 1
 734.994140625 734 l 1
 404.994140625 734 l 1
EndSplineSet
Validated: 524289
EndChar

StartChar: Oslash.ss05
Encoding: 65561 -1 145
Width: 1018
GlyphClass: 2
Flags: HMW
HStem: 0 101<386 589 409 589> 548 101<348 589 409 589> 570 79<803 803>
VStem: 80 101<290 387.5 290 415> 817 101<265 362>
AnchorPoint: "Anchor-7" 567.975 649 basechar 0
AnchorPoint: "Anchor-6" 839.151 10 basechar 0
AnchorPoint: "Anchor-5" 430.025 0 basechar 0
LayerCount: 2
Fore
SplineSet
71.025390625 0 m 1xd8
 151.69140625 69 l 1
 101.439660023 115.211268757 73.2703111067 181.590972583 73.2703111067 258.088034313 c 0
 73.2703111067 280.913579973 75.7783232666 304.639908138 80.9560546875 329 c 0
 117.516601562 501 299.974609375 649 477.974609375 649 c 2
 657.974609375 649 l 2
 707.974609375 649 753.423828125 637 792.172851562 617 c 1
 829.974609375 649 l 1
 947.974609375 649 l 1xd8
 855.182617188 570 l 1xb8
 899.729854461 524.258032442 925.67324484 461.686081349 925.67324484 391.604201936 c 0
 925.67324484 371.29139336 923.493753225 350.347679356 918.956054688 329 c 0
 880.05859375 146 704.025390625 0 520.025390625 0 c 2
 340.025390625 0 l 2
 294.025390625 0 252.938476562 9 218.338867188 25 c 1
 189.025390625 0 l 1
 71.025390625 0 l 1xd8
181.956054688 329 m 0
 178.316947652 311.879027083 176.562886932 295.239855142 176.562886932 279.262267926 c 0
 176.562886932 222.448909856 198.740926246 174.000514236 237.208007812 142 c 1
 700.380859375 538 l 1
 680.65625 544 659.506835938 548 636.506835938 548 c 2
 456.506835938 548 l 2
 334.506835938 548 206.825195312 446 181.956054688 329 c 0
313.556640625 106 m 1
 327.918945312 103 344.493164062 101 361.493164062 101 c 2
 541.493164062 101 l 2
 669.493164062 101 790.749023438 201 817.956054688 329 c 0
 820.940486087 343.040081559 822.373794703 356.808642609 822.373794703 370.18053615 c 0
 822.373794703 419.667606069 802.74302303 463.721868847 769.453125 496 c 1
 313.556640625 106 l 1
EndSplineSet
Validated: 524289
EndChar

StartChar: Otilde.ss05
Encoding: 65562 -1 146
Width: 998
GlyphClass: 2
Flags: HMW
HStem: 0 101<315.5 589 409 589> 548 101<348 589 409 589> 703 58<534.5 565 534.5 580> 754 58<437 463>
VStem: 80 101<265 387.5 265 415> 357 58<708 720.5 708 737.5> 588 58<793 807> 817 101<265 387.5>
AnchorPoint: "Anchor-7" 585.085 811 basechar 0
AnchorPoint: "Anchor-6" 821.827 10 basechar 0
AnchorPoint: "Anchor-5" 412.702 0 basechar 0
LayerCount: 2
Fore
SplineSet
322.702148438 0 m 2xe9
 160.652467328 0 56.0192083568 111.141144268 56.0192083568 258.586227156 c 0
 56.0192083568 281.287918462 58.4996304574 304.850226101 63.6328125 329 c 0
 100.193359375 501 282.651367188 649 460.651367188 649 c 2
 640.651367188 649 l 2
 795.251077004 649 908.322299856 537.118053012 908.322299856 391.298728075 c 0
 908.322299856 371.113852749 906.155723173 350.278697626 901.6328125 329 c 0
 862.735351562 146 686.702148438 0 502.702148438 0 c 2
 322.702148438 0 l 2xe9
164.6328125 329 m 0
 161.010558351 311.958503382 159.266328863 295.413317373 159.266328863 279.534354648 c 0
 159.266328863 176.145199419 233.211418493 101 344.169921875 101 c 2
 524.169921875 101 l 2
 652.169921875 101 773.42578125 201 800.6328125 329 c 0
 803.579262709 342.861945601 804.993025955 356.513335059 804.993025955 369.8094798 c 0
 804.993025955 468.737764405 726.72828075 548 619.182617188 548 c 2
 439.182617188 548 l 2
 317.182617188 548 189.501953125 446 164.6328125 329 c 0
421.192382812 708 m 1xdf
 433.733398438 767 482.297851562 812 533.297851562 812 c 0
 581.297851562 812 589.458007812 761 630.458007812 761 c 0
 650.458007812 761 667.283203125 779 673.235351562 807 c 1
 731.235351562 807 l 1xef
 718.481445312 747 668.12890625 703 618.12890625 703 c 0
 567.12890625 703 552.969726562 754 520.969726562 754 c 0
 500.969726562 754 484.505859375 733 479.192382812 708 c 1
 421.192382812 708 l 1xdf
EndSplineSet
Validated: 524289
EndChar

StartChar: Q.ss05
Encoding: 65563 -1 147
Width: 1008
GlyphClass: 2
Flags: HMW
HStem: 0 101<315.5 589 409 589> 548 101<348 589 409 589>
VStem: 80 101<265 387.5 265 415> 817 101<285 387.5>
AnchorPoint: "Anchor-7" 567.975 649 basechar 0
AnchorPoint: "Anchor-6" 839.151 10 basechar 0
AnchorPoint: "Anchor-5" 430.025 0 basechar 0
LayerCount: 2
Fore
SplineSet
736.025390625 0 m 1
 701.015625 47 l 1
 644.638671875 17 583.025390625 0 520.025390625 0 c 2
 340.025390625 0 l 2
 177.975709515 0 73.3424505443 111.141144268 73.3424505443 258.586227156 c 0
 73.3424505443 281.287918462 75.8228726449 304.850226101 80.9560546875 329 c 0
 117.516601562 501 299.974609375 649 477.974609375 649 c 2
 657.974609375 649 l 2
 812.573991971 649 925.645816911 537.118526622 925.645816911 391.299653981 c 0
 925.645816911 371.114489906 923.479153263 350.279022987 918.956054688 329 c 0
 900.251953125 241 850.459960938 162 782.918945312 103 c 1
 859.025390625 0 l 1
 736.025390625 0 l 1
181.956054688 329 m 0
 178.333800539 311.958503382 176.589571051 295.413317372 176.589571051 279.534354648 c 0
 176.589571051 176.145199419 250.53466068 101 361.493164062 101 c 2
 541.493164062 101 l 2
 669.493164062 101 790.749023438 201 817.956054688 329 c 0
 820.902530082 342.862064085 822.316306019 356.513568427 822.316306019 369.809820743 c 0
 822.316306019 468.737946516 744.052375952 548 636.506835938 548 c 2
 456.506835938 548 l 2
 334.506835938 548 206.825195312 446 181.956054688 329 c 0
EndSplineSet
Validated: 524289
EndChar

StartChar: A_O_N.dlig
Encoding: 65564 -1 148
Width: 1958
GlyphClass: 3
Flags: HMW
HStem: -16 101<869 991 869 1019.5> 169 93<228 419 228 446 200 419 540 615 540 540> 276 94<1743 1756 1743 1756 1703 1756> 276 374<1756 1756> 563 101<869 991> 565 85<320 330 320 320>
VStem: 610 101<313.5 390.5 257.5 419> 1149 101<257.5 390.5> 1427 98<0 519 0 650> 1756 98<0 276 276 276 370 650 0 650>
AnchorPoint: "Anchor-13" 1702.08 649 baselig 0
AnchorPoint: "Anchor-12" 1740.13 0 baselig 0
AnchorPoint: "Anchor-11" 1564.13 0 baselig 0
AnchorPoint: "Anchor-13" 389.293 650 baselig 1
AnchorPoint: "Anchor-12" 517.257 10 baselig 1
AnchorPoint: "Anchor-11" 251.132 0 baselig 1
LayerCount: 2
Fore
SplineSet
857.73046875 -16 m 0xcbc0
 731.73046875 -16 640.672851562 59 611.053710938 169 c 1
 507.053710938 169 l 1
 521.131835938 0 l 1
 427.131835938 0 l 1
 413.053710938 169 l 1
 167.053710938 169 l 1
 80.1318359375 0 l 1
 -18.8681640625 0 l 1
 321.29296875 650 l 1
 465.29296875 650 l 1xc7c0
 498.821289062 262 l 1
 601.821289062 262 l 1
 603.072265625 282 605.536132812 303 610 324 c 0
 650.385742188 514 823.26953125 664 1002.26953125 664 c 0
 1156.86898328 664 1258.44084999 553.347265896 1258.44084999 401.736380144 c 0
 1258.44084999 376.826850864 1255.6989999 350.811689529 1250 324 c 0
 1209.61425781 134 1036.73046875 -16 857.73046875 -16 c 0xcbc0
214.821289062 262 m 1
 405.821289062 262 l 1
 381.2265625 565 l 1
 371.2265625 565 l 1xc7c0
 214.821289062 262 l 1
711 324 m 0
 706.954964172 304.969929203 705.013309981 286.492624366 705.013309981 268.799501486 c 0
 705.013309981 162.836471527 774.655373917 85 879.19921875 85 c 0
 1001.19921875 85 1120.72949219 191 1149 324 c 0
 1153.04503583 343.030070796 1154.98669002 361.507375633 1154.98669002 379.200498512 c 0
 1154.98669002 485.163528472 1085.34462608 563 980.80078125 563 c 0xcbc0
 858.80078125 563 739.270507812 457 711 324 c 0
1358.13183594 0 m 1xebc0
 1496.29296875 650 l 1
 1608.29296875 650 l 1xd3c0
 1752.77734375 370 l 1
 1765.77734375 370 l 1xebc0
 1825.29296875 650 l 1
 1923.29296875 650 l 1xd3c0
 1785.13183594 0 l 1
 1687.13183594 0 l 1
 1745.796875 276 l 1
 1692.796875 276 l 1
 1566.44824219 519 l 1
 1456.13183594 0 l 1
 1358.13183594 0 l 1xebc0
EndSplineSet
Validated: 524289
Ligature2: "'dlig' Discretionary Ligatures in Latin lookup 7 subtable" A O N
EndChar

StartChar: Eacute_E.dlig
Encoding: 65565 -1 149
Width: 720
GlyphClass: 3
Flags: HMW
HStem: 0 98<94 311 409 626 94 311> 275 98<144 311 144 311 409 576> 552 97<94 626 94 311 409 409 409 626> 708 100<315 464 370 409>
VStem: 311 98<98 275 98 275 373 552>
LayerCount: 2
Fore
SplineSet
125.458007812 552 m 1
 146.076171875 649 l 1
 678.076171875 649 l 1
 657.458007812 552 l 1
 440.458007812 552 l 1
 402.411132812 373 l 1
 569.411132812 373 l 1
 548.580078125 275 l 1
 381.580078125 275 l 1
 343.958007812 98 l 1
 560.958007812 98 l 1
 540.126953125 0 l 1
 8.126953125 0 l 1
 28.9580078125 98 l 1
 245.958007812 98 l 1
 283.580078125 275 l 1
 116.580078125 275 l 1
 137.411132812 373 l 1
 304.411132812 373 l 1
 342.458007812 552 l 1
 125.458007812 552 l 1
379.6171875 708 m 1
 455.873046875 808 l 1
 549.873046875 808 l 1
 473.6171875 708 l 1
 379.6171875 708 l 1
EndSplineSet
Validated: 524289
Ligature2: "'dlig' Discretionary Ligatures in Latin lookup 7 subtable" Eacute E
EndChar

StartChar: F_V_E.dlig
Encoding: 65566 -1 150
Width: 1372
GlyphClass: 3
Flags: HMW
HStem: 0 94<1054 1280 1054 1280> 273 93<202 365 202 432> 278 93<1054 1230 1054 1230> 556 94<202 430 202 202 1054 1054 1054 1280>
VStem: 104 98<0 273 0 366 366 556> 104 326<556 650 556 650 556 650> 956 98<94 278 371 556> 956 274<278 371 278 650> 956 324<0 94 556 650>
AnchorPoint: "Anchor-13" 329.081 650 baselig 0
AnchorPoint: "Anchor-11" 190.919 0 baselig 0
AnchorPoint: "Anchor-11" 1049.92 0 baselig 1
AnchorPoint: "Anchor-13" 1187.87 649 baselig 1
AnchorPoint: "Anchor-12" 1173.92 0 baselig 1
LayerCount: 2
Fore
SplineSet
440.71484375 366 m 1xda
 470.276367188 124 l 1
 748.868164062 649 l 1
 841.868164062 649 l 1
 498.918945312 0 l 1
 385.918945312 0 l 1
 353.947265625 273 l 1
 190.947265625 273 l 1
 132.918945312 0 l 1
 34.9189453125 0 l 1
 173.081054688 650 l 1xda
 499.081054688 650 l 1
 479.100585938 556 l 1xd6
 251.100585938 556 l 1
 210.71484375 366 l 1
 440.71484375 366 l 1xda
886.918945312 0 m 1
 1025.08105469 650 l 1xda
 1349.08105469 650 l 1
 1329.10058594 556 l 1xd880
 1103.10058594 556 l 1
 1063.77734375 371 l 1xba
 1239.77734375 371 l 1
 1220.00976562 278 l 1xb9
 1044.00976562 278 l 1
 1004.89941406 94 l 1xba
 1230.89941406 94 l 1
 1210.91894531 0 l 1xd880
 886.918945312 0 l 1
EndSplineSet
Validated: 524289
Ligature2: "'dlig' Discretionary Ligatures in Latin lookup 7 subtable" F V E
EndChar

StartChar: I_E.dlig
Encoding: 65567 -1 151
Width: 520
GlyphClass: 3
Flags: HMW
HStem: 0 94<214 428 214 428> 278 93<214 378 214 378> 555 94<116 259 259 428> 717 104<150.5 180>
VStem: 113 104<754.5 783.5> 116 98<94 278 371 649> 116 262<278 371 278 649> 116 312<0 94 555 649> 259 169<555 649>
LayerCount: 2
Fore
SplineSet
28.7451171875 0 m 1xe480
 166.694335938 649 l 1
 264.694335938 649 l 1
 205.604492188 371 l 1xe480
 369.604492188 371 l 1
 349.8359375 278 l 1xe2
 185.8359375 278 l 1
 146.725585938 94 l 1xe480
 360.725585938 94 l 1
 340.745117188 0 l 1xe1
 28.7451171875 0 l 1xe480
189.201171875 769 m 0xf880
 195.365234375 798 223.254882812 821 252.254882812 821 c 0
 278.157385374 821 294.450803415 803.853764781 294.450803415 780.503637574 c 0
 294.450803415 776.809898478 294.043079552 772.96091419 293.201171875 769 c 0
 287.037109375 740 260.1484375 717 230.1484375 717 c 0
 204.969100269 717 187.998332996 734.338855574 187.998332996 757.889317609 c 0
 187.998332996 761.462818082 188.389075182 765.179337231 189.201171875 769 c 0xf880
289.71484375 555 m 1
 309.694335938 649 l 1xe480
 478.694335938 649 l 1
 458.71484375 555 l 1xe1
 289.71484375 555 l 1
EndSplineSet
Validated: 524289
Ligature2: "'dlig' Discretionary Ligatures in Latin lookup 7 subtable" I E
EndChar

StartChar: M_P.dlig
Encoding: 65568 -1 152
Width: 1140
GlyphClass: 3
Flags: HMW
HStem: 214 94<726 839 839 843 726 839> 276 94<366 419 407 419 407 460> 276 374<100 366 100 460> 556 94<726 839 726 726>
VStem: 100 98<0 517 0 650> 628 98<0 214 308 517 517 517> 961 97<395.5 468.5>
LayerCount: 2
Fore
SplineSet
355.584960938 276 m 1x5e
 238.810546875 517 l 1
 128.918945312 0 l 1
 30.9189453125 0 l 1
 169.081054688 650 l 1
 281.081054688 650 l 1x2e
 416.565429688 370 l 1
 428.565429688 370 l 1x5e
 683.081054688 650 l 1
 912.081054688 650 l 2
 1021.72996272 650 1086.95165017 587.143751953 1086.95165017 487.837841916 c 0
 1086.95165017 470.312106064 1084.92025524 451.651108902 1080.74316406 432 c 0
 1052.8984375 301 948.40625 214 819.40625 214 c 2
 702.40625 214 l 1x9e
 656.918945312 0 l 1
 558.918945312 0 l 1
 668.810546875 517 l 1
 449.584960938 276 l 1
 355.584960938 276 l 1x5e
722.38671875 308 m 1x9e
 835.38671875 308 l 2
 909.38671875 308 968.2265625 359 983.743164062 432 c 0
 986.081475933 443.000911885 987.223535912 453.502210077 987.223535912 463.404648012 c 0
 987.223535912 519.212941775 950.94897663 556 888.100585938 556 c 2
 775.100585938 556 l 1
 722.38671875 308 l 1x9e
EndSplineSet
Validated: 524289
Ligature2: "'dlig' Discretionary Ligatures in Latin lookup 7 subtable" M P
EndChar

StartChar: N_E.dlig
Encoding: 65569 -1 153
Width: 835
GlyphClass: 3
Flags: HMW
HStem: 0 98<523 743 523 743> 275 96<523 693 523 693> 276 94<416 425 416 425 375 425> 276 374<104 425 104 375> 552 97<523 743 523 743>
VStem: 104 98<0 513 0 650> 425 98<98 275 98 276 98 276 371 552 649 650> 425 268<275 276 276 276 370 371 275 650> 425 318<0 98 0 276 0 276 552 649>
LayerCount: 2
Fore
SplineSet
494.081054688 650 m 1xce
 592.081054688 650 l 1
 591.868164062 649 l 1xce
 811.868164062 649 l 1
 791.25 552 l 1xcc80
 571.25 552 l 1
 532.77734375 371 l 1xce
 702.77734375 371 l 1
 682.372070312 275 l 1xcd
 512.372070312 275 l 1
 474.75 98 l 1xce
 694.75 98 l 1
 673.918945312 0 l 1xcc80
 355.918945312 0 l 1
 414.584960938 276 l 1
 364.584960938 276 l 1xae
 241.9609375 513 l 1
 132.918945312 0 l 1
 34.9189453125 0 l 1
 173.081054688 650 l 1
 281.081054688 650 l 1x96
 425.565429688 370 l 1
 434.565429688 370 l 1xae
 494.081054688 650 l 1xce
EndSplineSet
Validated: 524289
Ligature2: "'dlig' Discretionary Ligatures in Latin lookup 7 subtable" N E
EndChar

StartChar: T_E.dlig
Encoding: 65570 -1 154
Width: 945
GlyphClass: 3
Flags: HMW
HStem: 0 94<625 853 625 853> 278 93<625 803 625 803> 555 94<50 219 50 853 317 317 317 853>
VStem: 50 267<0 649 0 649> 219 98<0 555 0 555> 527 98<94 278 371 510> 527 276<278 371 278 510 278 510> 527 326<0 94 0 510>
LayerCount: 2
Fore
SplineSet
150.025390625 0 m 1xec
 267.994140625 555 l 1xec
 98.994140625 555 l 1
 118.974609375 649 l 1
 921.974609375 649 l 1
 901.994140625 555 l 1xf1
 365.994140625 555 l 1
 248.025390625 0 l 1
 150.025390625 0 l 1xec
458.025390625 0 m 1
 566.4296875 510 l 1
 664.4296875 510 l 1
 634.883789062 371 l 1xec
 812.883789062 371 l 1
 793.116210938 278 l 1xea
 615.116210938 278 l 1
 576.005859375 94 l 1xec
 804.005859375 94 l 1
 784.025390625 0 l 1xe9
 458.025390625 0 l 1
EndSplineSet
Validated: 524289
Ligature2: "'dlig' Discretionary Ligatures in Latin lookup 7 subtable" T E
EndChar

StartChar: T_T.liga
Encoding: 65571 -1 155
Width: 940
GlyphClass: 3
Flags: HMW
HStem: 555 94<50 890 50 219 317 317 317 624 722 722 722 890>
VStem: 50 267<0 649 0 649> 219 98<0 555 0 555> 624 98<0 555 0 555> 624 266<0 649 555 649>
LayerCount: 2
Fore
SplineSet
98.994140625 555 m 1xd0
 118.974609375 649 l 1
 958.974609375 649 l 1
 938.994140625 555 l 1xc8
 770.994140625 555 l 1
 653.025390625 0 l 1
 555.025390625 0 l 1
 672.994140625 555 l 1
 365.994140625 555 l 1
 248.025390625 0 l 1
 150.025390625 0 l 1
 267.994140625 555 l 1xb0
 98.994140625 555 l 1xd0
EndSplineSet
Validated: 524289
Ligature2: "'liga' Standard Ligatures in Latin lookup 8 subtable" T T
EndChar

StartChar: V_T_F.dlig
Encoding: 65572 -1 156
Width: 1636
GlyphClass: 3
Flags: HMW
HStem: 81 97<1053 1285 1053 1285> 357 98<658 749 658 658 847 955 1053 1436 1053 1053> 555 94<50 749 50 1544 847 847 847 1544>
VStem: 749 98<0 357 0 357 455 555> 955 98<-194 81 178 357> 955 330<81 178 81 357 81 357>
LayerCount: 2
Fore
SplineSet
797.356445312 455 m 1xf8
 818.612304688 555 l 1
 119.612304688 555 l 1
 139.592773438 649 l 1
 1633.59277344 649 l 1
 1613.61230469 555 l 1
 916.612304688 555 l 1
 895.356445312 455 l 1
 1484.35644531 455 l 1
 1463.52636719 357 l 1
 1080.52636719 357 l 1
 1042.47851562 178 l 1xf8
 1274.47851562 178 l 1
 1253.86035156 81 l 1xf4
 1021.86035156 81 l 1
 963.407226562 -194 l 1
 865.407226562 -194 l 1
 982.526367188 357 l 1
 874.526367188 357 l 1
 798.643554688 0 l 1
 700.643554688 0 l 1
 776.526367188 357 l 1
 685.526367188 357 l 1
 390.407226562 -194 l 1
 277.407226562 -194 l 1
 198.356445312 455 l 1
 296.356445312 455 l 1
 361.764648438 -70 l 1
 644.356445312 455 l 1
 797.356445312 455 l 1xf8
EndSplineSet
Validated: 524289
Ligature2: "'dlig' Discretionary Ligatures in Latin lookup 7 subtable" V T F
EndChar

